<svg width="242" height="60" viewBox="0 0 242 60" fill="none" xmlns="http://www.w3.org/2000/svg">
<g clip-path="url(#clip0_6039_24812)">
<path d="M186.337 1.54934V9.36813H184.721C173.727 9.36813 162.645 17.2742 162.645 35.0057V58.0258H155.358V2.37484H162.645V14.2607C167.794 6.04598 176.341 1.24061 185.284 1.50236L186.337 1.54934Z" fill="white"/>
<path d="M216.391 1.12695C201.568 1.12695 189.977 13.8384 189.977 30.08V30.2947C189.977 46.7914 201.696 59.2478 217.242 59.2478C229.008 59.2478 235.631 53.7176 240.136 48.8719L240.9 48.0196L235.718 43.429L234.954 44.2343C229.859 49.7176 224.295 52.2679 217.416 52.2679C206.972 52.2679 198.987 44.5699 197.713 33.3887H241.799L241.926 32.4088C242.013 31.5162 242.013 31.1739 242.013 30.2008C242 13.0733 231.468 1.12695 216.391 1.12695ZM197.7 26.59C199.061 15.7511 206.663 8.01286 216.216 8.01286C228.022 8.01286 233.204 17.7511 234.183 26.59H197.7Z" fill="white"/>
<path d="M81.2991 24.4633V58.0271H73.9984V25.0808C73.9984 14.1882 68.6218 7.92642 59.2229 7.92642C51.6206 7.92642 43.4417 13.4835 43.4417 25.7385V58.0271H36.1076V24.7721C36.1076 15.0137 31.2137 8.75864 23.2561 8.01367C22.8672 7.92642 22.4717 7.92642 22.0762 7.92642H21.5935C12.5029 8.14119 7.30063 14.3627 7.30063 25.0808V58.0271H0V24.4633C0 10.2016 8.48052 1.01367 21.6404 1.01367C21.8549 1.01367 22.0762 1.01367 22.2974 1.06065C27.0639 1.1479 31.2204 2.45662 34.7534 5.00025C35.283 5.34924 35.759 5.7385 36.2417 6.18146C38.1255 7.89287 39.4797 9.77206 40.4384 11.4365C40.5255 11.3492 40.5724 11.215 40.6596 11.1278C45.2384 4.42307 51.6273 1.01367 59.6653 1.01367C72.8252 1.01367 81.2991 10.2016 81.2991 24.4633Z" fill="white"/>
<path d="M117.755 0C101.203 0 87.7886 13.4295 87.7886 30C87.7886 46.5638 101.203 60 117.755 60C134.301 60 147.722 46.5638 147.722 30C147.722 13.4295 134.301 0 117.755 0ZM135.186 27.4899L129.863 32.6846C128.683 33.8322 128.146 35.4899 128.428 37.1141L129.682 44.4564C129.977 46.1544 128.187 47.4564 126.665 46.651L120.082 43.1879C118.627 42.4161 116.884 42.4161 115.429 43.1879L108.846 46.651C107.317 47.4564 105.534 46.1544 105.822 44.4564L107.083 37.1141C107.357 35.4899 106.821 33.8322 105.641 32.6846L100.318 27.4899C99.0848 26.2819 99.7619 24.1812 101.471 23.9329L108.832 22.8658C110.461 22.6242 111.869 21.604 112.593 20.1275L115.885 13.4497C116.649 11.8993 118.855 11.8993 119.619 13.4497L122.911 20.1275C123.641 21.604 125.049 22.6242 126.678 22.8658L134.033 23.9329C135.742 24.1812 136.426 26.2819 135.186 27.4899Z" fill="white"/>
</g>
<defs>
<clipPath id="clip0_6039_24812">
<rect width="242" height="60" fill="white"/>
</clipPath>
</defs>
</svg>
