<svg width="18" height="18" viewBox="0 0 18 18" fill="none" xmlns="http://www.w3.org/2000/svg">
<path fill-rule="evenodd" clip-rule="evenodd" d="M16.1996 7.79961H10.1996V1.79961C10.1996 1.13961 9.65961 0.599609 8.99961 0.599609C8.33961 0.599609 7.79961 1.13961 7.79961 1.79961V7.79961H1.79961C1.13961 7.79961 0.599609 8.33961 0.599609 8.99961C0.599609 9.65961 1.13961 10.1996 1.79961 10.1996H7.79961V16.1996C7.79961 16.8596 8.33961 17.3996 8.99961 17.3996C9.65961 17.3996 10.1996 16.8596 10.1996 16.1996V10.1996H16.1996C16.8596 10.1996 17.3996 9.65961 17.3996 8.99961C17.3996 8.33961 16.8596 7.79961 16.1996 7.79961Z" fill="#FF7F32"/>
</svg>
