<svg width="373" height="279" viewBox="0 0 373 279" fill="none" xmlns="http://www.w3.org/2000/svg">
<g filter="url(#filter0_i_7272_33907)">
<rect x="61.5311" y="0.0708008" width="250.072" height="166.715" rx="18.3019" fill="#F5EDE3"/>
</g>
<g filter="url(#filter1_i_7272_33907)">
<rect x="61.5311" y="6.85242" width="250.072" height="166.715" rx="18.3019" fill="#FAF7F3"/>
</g>
<g filter="url(#filter2_ddddddi_7272_33907)">
<rect x="61.5311" y="13.634" width="250.072" height="166.715" rx="18.3019" fill="white"/>
</g>
<mask id="mask0_7272_33907" style="mask-type:alpha" maskUnits="userSpaceOnUse" x="61" y="13" width="251" height="168">
<rect x="61.5311" y="13.634" width="250.072" height="166.715" rx="18.3019" fill="white"/>
</mask>
<g mask="url(#mask0_7272_33907)">
<path d="M74.5782 97.132C74.5782 98.4725 74.616 99.8215 74.6868 101.178C76.6005 137.573 105.064 167.765 141.334 171.886C149.117 172.77 156.681 172.432 163.89 171.079C166.141 170.658 167.575 168.423 167.024 166.199L162.184 146.562C161.788 144.971 160.545 143.706 158.941 143.369C137.502 138.86 121.404 119.863 121.404 97.1155V96.8696C121.404 74.1174 137.502 55.121 158.941 50.6165C160.545 50.2794 161.788 49.0097 162.184 47.4194L167.024 27.781C167.575 25.5622 166.141 23.3268 163.89 22.9017C156.681 21.5534 149.117 21.2116 141.334 22.0987C105.064 26.2198 76.6005 56.412 74.6868 92.8019C74.616 94.1596 74.5782 95.5087 74.5782 96.8531V97.132Z" fill="#FBEDE6"/>
<path d="M187.381 97.0737C187.381 94.5719 203.987 88.4763 212.363 88.4763C219.535 88.4763 225.347 92.3232 225.347 97.0737C225.347 101.824 219.535 105.675 212.363 105.675C203.987 105.675 187.381 99.6925 187.381 97.0737Z" fill="#FBEDE6"/>
<path d="M184.975 116.387C186.101 114.348 202.374 116.829 209.191 120.58C215.032 123.797 218.038 129.539 215.899 133.407C213.765 137.274 207.298 137.807 201.456 134.589C194.64 130.837 183.8 118.519 184.975 116.387Z" fill="#FBEDE6"/>
<path d="M173.865 133.118C175.687 131.969 187.758 141.228 191.601 147.306C194.895 152.514 194.762 158.505 191.306 160.687C187.849 162.868 182.371 160.412 179.077 155.208C175.233 149.129 171.96 134.321 173.865 133.118Z" fill="#FBEDE6"/>
<path d="M184.975 77.5727C186.101 79.6124 202.374 77.1311 209.191 73.3801C215.032 70.1625 218.038 64.4213 215.899 60.5532C213.765 56.6858 207.298 56.157 201.456 59.3714C194.64 63.1225 183.8 75.441 184.975 77.5727Z" fill="#FBEDE6"/>
<path d="M173.865 60.8393C175.687 61.988 187.758 52.7291 191.601 46.6507C194.895 41.4429 194.762 35.4518 191.306 33.2706C187.849 31.0887 182.371 33.5456 179.077 38.7534C175.233 44.8318 171.96 59.6363 173.865 60.8393Z" fill="#FBEDE6"/>
<path d="M73.7357 128.696C73.2304 128.696 72.7998 128.621 72.4439 128.471C72.088 128.322 71.7962 128.116 71.5685 127.852C71.3407 127.589 71.1699 127.286 71.056 126.945C70.9421 126.596 70.8745 126.226 70.8532 125.834C70.846 125.642 70.8389 125.432 70.8318 125.205C70.8318 124.97 70.8318 124.735 70.8318 124.5C70.8389 124.265 70.846 124.048 70.8532 123.849C70.8674 123.457 70.935 123.091 71.056 122.749C71.177 122.4 71.3514 122.098 71.5791 121.842C71.814 121.585 72.1094 121.382 72.4653 121.233C72.8211 121.084 73.2446 121.009 73.7357 121.009C74.2339 121.009 74.661 121.084 75.0168 121.233C75.3727 121.382 75.6645 121.585 75.8923 121.842C76.1272 122.098 76.3015 122.4 76.4154 122.749C76.5364 123.091 76.604 123.457 76.6183 123.849C76.6325 124.048 76.6396 124.265 76.6396 124.5C76.6396 124.735 76.6396 124.97 76.6396 125.205C76.6396 125.432 76.6325 125.642 76.6183 125.834C76.604 126.226 76.54 126.596 76.4261 126.945C76.3122 127.286 76.1414 127.589 75.9136 127.852C75.6859 128.116 75.3905 128.322 75.0275 128.471C74.6717 128.621 74.2411 128.696 73.7357 128.696ZM73.7357 127.468C74.1983 127.468 74.5364 127.318 74.7499 127.019C74.9706 126.713 75.0845 126.301 75.0916 125.781C75.1058 125.575 75.1129 125.368 75.1129 125.162C75.1129 124.948 75.1129 124.735 75.1129 124.521C75.1129 124.308 75.1058 124.105 75.0916 123.913C75.0845 123.407 74.9706 123.002 74.7499 122.696C74.5364 122.382 74.1983 122.226 73.7357 122.226C73.2802 122.226 72.9421 122.382 72.7215 122.696C72.508 123.002 72.3941 123.407 72.3798 123.913C72.3798 124.105 72.3763 124.308 72.3692 124.521C72.3692 124.735 72.3692 124.948 72.3692 125.162C72.3763 125.368 72.3798 125.575 72.3798 125.781C72.3941 126.301 72.5115 126.713 72.7322 127.019C72.9528 127.318 73.2873 127.468 73.7357 127.468ZM83.9552 128.696C83.4498 128.696 83.0192 128.621 82.6634 128.471C82.3075 128.322 82.0157 128.116 81.7879 127.852C81.5602 127.589 81.3894 127.286 81.2755 126.945C81.1616 126.596 81.094 126.226 81.0726 125.834C81.0655 125.642 81.0584 125.432 81.0513 125.205C81.0513 124.97 81.0513 124.735 81.0513 124.5C81.0584 124.265 81.0655 124.048 81.0726 123.849C81.0869 123.457 81.1545 123.091 81.2755 122.749C81.3965 122.4 81.5708 122.098 81.7986 121.842C82.0335 121.585 82.3289 121.382 82.6847 121.233C83.0406 121.084 83.4641 121.009 83.9552 121.009C84.4534 121.009 84.8804 121.084 85.2363 121.233C85.5922 121.382 85.884 121.585 86.1118 121.842C86.3466 122.098 86.521 122.4 86.6349 122.749C86.7559 123.091 86.8235 123.457 86.8377 123.849C86.852 124.048 86.8591 124.265 86.8591 124.5C86.8591 124.735 86.8591 124.97 86.8591 125.205C86.8591 125.432 86.852 125.642 86.8377 125.834C86.8235 126.226 86.7594 126.596 86.6456 126.945C86.5317 127.286 86.3609 127.589 86.1331 127.852C85.9054 128.116 85.61 128.322 85.247 128.471C84.8911 128.621 84.4605 128.696 83.9552 128.696ZM83.9552 127.468C84.4178 127.468 84.7559 127.318 84.9694 127.019C85.1901 126.713 85.3039 126.301 85.311 125.781C85.3253 125.575 85.3324 125.368 85.3324 125.162C85.3324 124.948 85.3324 124.735 85.3324 124.521C85.3324 124.308 85.3253 124.105 85.311 123.913C85.3039 123.407 85.1901 123.002 84.9694 122.696C84.7559 122.382 84.4178 122.226 83.9552 122.226C83.4997 122.226 83.1616 122.382 82.9409 122.696C82.7274 123.002 82.6135 123.407 82.5993 123.913C82.5993 124.105 82.5958 124.308 82.5886 124.521C82.5886 124.735 82.5886 124.948 82.5886 125.162C82.5958 125.368 82.5993 125.575 82.5993 125.781C82.6135 126.301 82.731 126.713 82.9516 127.019C83.1723 127.318 83.5068 127.468 83.9552 127.468ZM94.1746 128.696C93.6693 128.696 93.2387 128.621 92.8828 128.471C92.527 128.322 92.2352 128.116 92.0074 127.852C91.7796 127.589 91.6088 127.286 91.4949 126.945C91.3811 126.596 91.3134 126.226 91.2921 125.834C91.285 125.642 91.2779 125.432 91.2707 125.205C91.2707 124.97 91.2707 124.735 91.2707 124.5C91.2779 124.265 91.285 124.048 91.2921 123.849C91.3063 123.457 91.3739 123.091 91.4949 122.749C91.6159 122.4 91.7903 122.098 92.0181 121.842C92.2529 121.585 92.5483 121.382 92.9042 121.233C93.2601 121.084 93.6835 121.009 94.1746 121.009C94.6729 121.009 95.0999 121.084 95.4558 121.233C95.8117 121.382 96.1035 121.585 96.3312 121.842C96.5661 122.098 96.7405 122.4 96.8544 122.749C96.9753 123.091 97.043 123.457 97.0572 123.849C97.0714 124.048 97.0786 124.265 97.0786 124.5C97.0786 124.735 97.0786 124.97 97.0786 125.205C97.0786 125.432 97.0714 125.642 97.0572 125.834C97.043 126.226 96.9789 126.596 96.865 126.945C96.7511 127.286 96.5803 127.589 96.3526 127.852C96.1248 128.116 95.8294 128.322 95.4665 128.471C95.1106 128.621 94.68 128.696 94.1746 128.696ZM94.1746 127.468C94.6373 127.468 94.9754 127.318 95.1889 127.019C95.4095 126.713 95.5234 126.301 95.5305 125.781C95.5447 125.575 95.5519 125.368 95.5519 125.162C95.5519 124.948 95.5519 124.735 95.5519 124.521C95.5519 124.308 95.5447 124.105 95.5305 123.913C95.5234 123.407 95.4095 123.002 95.1889 122.696C94.9754 122.382 94.6373 122.226 94.1746 122.226C93.7191 122.226 93.3811 122.382 93.1604 122.696C92.9469 123.002 92.833 123.407 92.8188 123.913C92.8188 124.105 92.8152 124.308 92.8081 124.521C92.8081 124.735 92.8081 124.948 92.8081 125.162C92.8152 125.368 92.8188 125.575 92.8188 125.781C92.833 126.301 92.9505 126.713 93.1711 127.019C93.3917 127.318 93.7262 127.468 94.1746 127.468ZM104.394 128.696C103.889 128.696 103.458 128.621 103.102 128.471C102.746 128.322 102.455 128.116 102.227 127.852C101.999 127.589 101.828 127.286 101.714 126.945C101.601 126.596 101.533 126.226 101.512 125.834C101.504 125.642 101.497 125.432 101.49 125.205C101.49 124.97 101.49 124.735 101.49 124.5C101.497 124.265 101.504 124.048 101.512 123.849C101.526 123.457 101.593 123.091 101.714 122.749C101.835 122.4 102.01 122.098 102.238 121.842C102.472 121.585 102.768 121.382 103.124 121.233C103.48 121.084 103.903 121.009 104.394 121.009C104.892 121.009 105.319 121.084 105.675 121.233C106.031 121.382 106.323 121.585 106.551 121.842C106.786 122.098 106.96 122.4 107.074 122.749C107.195 123.091 107.262 123.457 107.277 123.849C107.291 124.048 107.298 124.265 107.298 124.5C107.298 124.735 107.298 124.97 107.298 125.205C107.298 125.432 107.291 125.642 107.277 125.834C107.262 126.226 107.198 126.596 107.084 126.945C106.971 127.286 106.8 127.589 106.572 127.852C106.344 128.116 106.049 128.322 105.686 128.471C105.33 128.621 104.899 128.696 104.394 128.696ZM104.394 127.468C104.857 127.468 105.195 127.318 105.408 127.019C105.629 126.713 105.743 126.301 105.75 125.781C105.764 125.575 105.771 125.368 105.771 125.162C105.771 124.948 105.771 124.735 105.771 124.521C105.771 124.308 105.764 124.105 105.75 123.913C105.743 123.407 105.629 123.002 105.408 122.696C105.195 122.382 104.857 122.226 104.394 122.226C103.939 122.226 103.601 122.382 103.38 122.696C103.166 123.002 103.052 123.407 103.038 123.913C103.038 124.105 103.035 124.308 103.028 124.521C103.028 124.735 103.028 124.948 103.028 125.162C103.035 125.368 103.038 125.575 103.038 125.781C103.052 126.301 103.17 126.713 103.391 127.019C103.611 127.318 103.946 127.468 104.394 127.468Z" fill="#64656A"/>
<path d="M138.555 128.696C138.049 128.696 137.619 128.621 137.263 128.472C136.907 128.322 136.615 128.116 136.388 127.853C136.16 127.589 135.989 127.287 135.875 126.945C135.761 126.596 135.694 126.226 135.672 125.835C135.665 125.643 135.658 125.433 135.651 125.205C135.651 124.97 135.651 124.735 135.651 124.5C135.658 124.265 135.665 124.048 135.672 123.849C135.686 123.458 135.754 123.091 135.875 122.749C135.996 122.401 136.17 122.098 136.398 121.842C136.633 121.586 136.928 121.383 137.284 121.233C137.64 121.084 138.064 121.009 138.555 121.009C139.053 121.009 139.48 121.084 139.836 121.233C140.192 121.383 140.484 121.586 140.711 121.842C140.946 122.098 141.121 122.401 141.235 122.749C141.356 123.091 141.423 123.458 141.437 123.849C141.452 124.048 141.459 124.265 141.459 124.5C141.459 124.735 141.459 124.97 141.459 125.205C141.459 125.433 141.452 125.643 141.437 125.835C141.423 126.226 141.359 126.596 141.245 126.945C141.131 127.287 140.96 127.589 140.733 127.853C140.505 128.116 140.21 128.322 139.847 128.472C139.491 128.621 139.06 128.696 138.555 128.696ZM138.555 127.468C139.017 127.468 139.356 127.319 139.569 127.02C139.79 126.714 139.904 126.301 139.911 125.781C139.925 125.575 139.932 125.369 139.932 125.162C139.932 124.949 139.932 124.735 139.932 124.522C139.932 124.308 139.925 124.105 139.911 123.913C139.904 123.408 139.79 123.002 139.569 122.696C139.356 122.383 139.017 122.226 138.555 122.226C138.099 122.226 137.761 122.383 137.541 122.696C137.327 123.002 137.213 123.408 137.199 123.913C137.199 124.105 137.195 124.308 137.188 124.522C137.188 124.735 137.188 124.949 137.188 125.162C137.195 125.369 137.199 125.575 137.199 125.781C137.213 126.301 137.331 126.714 137.551 127.02C137.772 127.319 138.106 127.468 138.555 127.468ZM148.774 128.696C148.269 128.696 147.838 128.621 147.482 128.472C147.127 128.322 146.835 128.116 146.607 127.853C146.379 127.589 146.208 127.287 146.095 126.945C145.981 126.596 145.913 126.226 145.892 125.835C145.885 125.643 145.877 125.433 145.87 125.205C145.87 124.97 145.87 124.735 145.87 124.5C145.877 124.265 145.885 124.048 145.892 123.849C145.906 123.458 145.974 123.091 146.095 122.749C146.216 122.401 146.39 122.098 146.618 121.842C146.853 121.586 147.148 121.383 147.504 121.233C147.86 121.084 148.283 121.009 148.774 121.009C149.272 121.009 149.7 121.084 150.055 121.233C150.411 121.383 150.703 121.586 150.931 121.842C151.166 122.098 151.34 122.401 151.454 122.749C151.575 123.091 151.643 123.458 151.657 123.849C151.671 124.048 151.678 124.265 151.678 124.5C151.678 124.735 151.678 124.97 151.678 125.205C151.678 125.433 151.671 125.643 151.657 125.835C151.643 126.226 151.579 126.596 151.465 126.945C151.351 127.287 151.18 127.589 150.952 127.853C150.724 128.116 150.429 128.322 150.066 128.472C149.71 128.621 149.28 128.696 148.774 128.696ZM148.774 127.468C149.237 127.468 149.575 127.319 149.789 127.02C150.009 126.714 150.123 126.301 150.13 125.781C150.144 125.575 150.151 125.369 150.151 125.162C150.151 124.949 150.151 124.735 150.151 124.522C150.151 124.308 150.144 124.105 150.13 123.913C150.123 123.408 150.009 123.002 149.789 122.696C149.575 122.383 149.237 122.226 148.774 122.226C148.319 122.226 147.981 122.383 147.76 122.696C147.547 123.002 147.433 123.408 147.418 123.913C147.418 124.105 147.415 124.308 147.408 124.522C147.408 124.735 147.408 124.949 147.408 125.162C147.415 125.369 147.418 125.575 147.418 125.781C147.433 126.301 147.55 126.714 147.771 127.02C147.991 127.319 148.326 127.468 148.774 127.468ZM158.994 128.696C158.488 128.696 158.058 128.621 157.702 128.472C157.346 128.322 157.054 128.116 156.826 127.853C156.599 127.589 156.428 127.287 156.314 126.945C156.2 126.596 156.133 126.226 156.111 125.835C156.104 125.643 156.097 125.433 156.09 125.205C156.09 124.97 156.09 124.735 156.09 124.5C156.097 124.265 156.104 124.048 156.111 123.849C156.125 123.458 156.193 123.091 156.314 122.749C156.435 122.401 156.609 122.098 156.837 121.842C157.072 121.586 157.367 121.383 157.723 121.233C158.079 121.084 158.503 121.009 158.994 121.009C159.492 121.009 159.919 121.084 160.275 121.233C160.631 121.383 160.923 121.586 161.15 121.842C161.385 122.098 161.56 122.401 161.673 122.749C161.794 123.091 161.862 123.458 161.876 123.849C161.891 124.048 161.898 124.265 161.898 124.5C161.898 124.735 161.898 124.97 161.898 125.205C161.898 125.433 161.891 125.643 161.876 125.835C161.862 126.226 161.798 126.596 161.684 126.945C161.57 127.287 161.399 127.589 161.172 127.853C160.944 128.116 160.649 128.322 160.286 128.472C159.93 128.621 159.499 128.696 158.994 128.696ZM158.994 127.468C159.456 127.468 159.794 127.319 160.008 127.02C160.229 126.714 160.342 126.301 160.35 125.781C160.364 125.575 160.371 125.369 160.371 125.162C160.371 124.949 160.371 124.735 160.371 124.522C160.371 124.308 160.364 124.105 160.35 123.913C160.342 123.408 160.229 123.002 160.008 122.696C159.794 122.383 159.456 122.226 158.994 122.226C158.538 122.226 158.2 122.383 157.98 122.696C157.766 123.002 157.652 123.408 157.638 123.913C157.638 124.105 157.634 124.308 157.627 124.522C157.627 124.735 157.627 124.949 157.627 125.162C157.634 125.369 157.638 125.575 157.638 125.781C157.652 126.301 157.77 126.714 157.99 127.02C158.211 127.319 158.545 127.468 158.994 127.468ZM169.213 128.696C168.708 128.696 168.277 128.621 167.921 128.472C167.566 128.322 167.274 128.116 167.046 127.853C166.818 127.589 166.647 127.287 166.533 126.945C166.42 126.596 166.352 126.226 166.331 125.835C166.324 125.643 166.316 125.433 166.309 125.205C166.309 124.97 166.309 124.735 166.309 124.5C166.316 124.265 166.324 124.048 166.331 123.849C166.345 123.458 166.413 123.091 166.533 122.749C166.654 122.401 166.829 122.098 167.057 121.842C167.292 121.586 167.587 121.383 167.943 121.233C168.299 121.084 168.722 121.009 169.213 121.009C169.711 121.009 170.138 121.084 170.494 121.233C170.85 121.383 171.142 121.586 171.37 121.842C171.605 122.098 171.779 122.401 171.893 122.749C172.014 123.091 172.082 123.458 172.096 123.849C172.11 124.048 172.117 124.265 172.117 124.5C172.117 124.735 172.117 124.97 172.117 125.205C172.117 125.433 172.11 125.643 172.096 125.835C172.082 126.226 172.017 126.596 171.904 126.945C171.79 127.287 171.619 127.589 171.391 127.853C171.163 128.116 170.868 128.322 170.505 128.472C170.149 128.621 169.719 128.696 169.213 128.696ZM169.213 127.468C169.676 127.468 170.014 127.319 170.227 127.02C170.448 126.714 170.562 126.301 170.569 125.781C170.583 125.575 170.59 125.369 170.59 125.162C170.59 124.949 170.59 124.735 170.59 124.522C170.59 124.308 170.583 124.105 170.569 123.913C170.562 123.408 170.448 123.002 170.227 122.696C170.014 122.383 169.676 122.226 169.213 122.226C168.758 122.226 168.42 122.383 168.199 122.696C167.985 123.002 167.872 123.408 167.857 123.913C167.857 124.105 167.854 124.308 167.847 124.522C167.847 124.735 167.847 124.949 167.847 125.162C167.854 125.369 167.857 125.575 167.857 125.781C167.872 126.301 167.989 126.714 168.21 127.02C168.43 127.319 168.765 127.468 169.213 127.468Z" fill="#64656A"/>
<path d="M203.374 128.696C202.869 128.696 202.438 128.621 202.083 128.472C201.727 128.322 201.435 128.116 201.207 127.853C200.979 127.589 200.808 127.287 200.695 126.945C200.581 126.596 200.513 126.226 200.492 125.835C200.485 125.643 200.478 125.433 200.47 125.205C200.47 124.97 200.47 124.735 200.47 124.5C200.478 124.265 200.485 124.048 200.492 123.849C200.506 123.458 200.574 123.091 200.695 122.749C200.816 122.401 200.99 122.098 201.218 121.842C201.453 121.586 201.748 121.383 202.104 121.233C202.46 121.084 202.883 121.009 203.374 121.009C203.873 121.009 204.3 121.084 204.655 121.233C205.011 121.383 205.303 121.586 205.531 121.842C205.766 122.098 205.94 122.401 206.054 122.749C206.175 123.091 206.243 123.458 206.257 123.849C206.271 124.048 206.278 124.265 206.278 124.5C206.278 124.735 206.278 124.97 206.278 125.205C206.278 125.433 206.271 125.643 206.257 125.835C206.243 126.226 206.179 126.596 206.065 126.945C205.951 127.287 205.78 127.589 205.552 127.853C205.324 128.116 205.029 128.322 204.666 128.472C204.31 128.621 203.88 128.696 203.374 128.696ZM203.374 127.468C203.837 127.468 204.175 127.319 204.389 127.02C204.609 126.714 204.723 126.301 204.73 125.781C204.744 125.575 204.752 125.369 204.752 125.162C204.752 124.949 204.752 124.735 204.752 124.522C204.752 124.308 204.744 124.105 204.73 123.913C204.723 123.408 204.609 123.002 204.389 122.696C204.175 122.383 203.837 122.226 203.374 122.226C202.919 122.226 202.581 122.383 202.36 122.696C202.147 123.002 202.033 123.408 202.018 123.913C202.018 124.105 202.015 124.308 202.008 124.522C202.008 124.735 202.008 124.949 202.008 125.162C202.015 125.369 202.018 125.575 202.018 125.781C202.033 126.301 202.15 126.714 202.371 127.02C202.591 127.319 202.926 127.468 203.374 127.468ZM213.594 128.696C213.088 128.696 212.658 128.621 212.302 128.472C211.946 128.322 211.654 128.116 211.427 127.853C211.199 127.589 211.028 127.287 210.914 126.945C210.8 126.596 210.733 126.226 210.711 125.835C210.704 125.643 210.697 125.433 210.69 125.205C210.69 124.97 210.69 124.735 210.69 124.5C210.697 124.265 210.704 124.048 210.711 123.849C210.725 123.458 210.793 123.091 210.914 122.749C211.035 122.401 211.209 122.098 211.437 121.842C211.672 121.586 211.967 121.383 212.323 121.233C212.679 121.084 213.103 121.009 213.594 121.009C214.092 121.009 214.519 121.084 214.875 121.233C215.231 121.383 215.523 121.586 215.75 121.842C215.985 122.098 216.16 122.401 216.273 122.749C216.394 123.091 216.462 123.458 216.476 123.849C216.491 124.048 216.498 124.265 216.498 124.5C216.498 124.735 216.498 124.97 216.498 125.205C216.498 125.433 216.491 125.643 216.476 125.835C216.462 126.226 216.398 126.596 216.284 126.945C216.17 127.287 215.999 127.589 215.772 127.853C215.544 128.116 215.249 128.322 214.886 128.472C214.53 128.621 214.099 128.696 213.594 128.696ZM213.594 127.468C214.056 127.468 214.395 127.319 214.608 127.02C214.829 126.714 214.943 126.301 214.95 125.781C214.964 125.575 214.971 125.369 214.971 125.162C214.971 124.949 214.971 124.735 214.971 124.522C214.971 124.308 214.964 124.105 214.95 123.913C214.943 123.408 214.829 123.002 214.608 122.696C214.395 122.383 214.056 122.226 213.594 122.226C213.138 122.226 212.8 122.383 212.58 122.696C212.366 123.002 212.252 123.408 212.238 123.913C212.238 124.105 212.234 124.308 212.227 124.522C212.227 124.735 212.227 124.949 212.227 125.162C212.234 125.369 212.238 125.575 212.238 125.781C212.252 126.301 212.37 126.714 212.59 127.02C212.811 127.319 213.145 127.468 213.594 127.468ZM223.813 128.696C223.308 128.696 222.877 128.621 222.521 128.472C222.166 128.322 221.874 128.116 221.646 127.853C221.418 127.589 221.247 127.287 221.134 126.945C221.02 126.596 220.952 126.226 220.931 125.835C220.924 125.643 220.916 125.433 220.909 125.205C220.909 124.97 220.909 124.735 220.909 124.5C220.916 124.265 220.924 124.048 220.931 123.849C220.945 123.458 221.013 123.091 221.134 122.749C221.255 122.401 221.429 122.098 221.657 121.842C221.892 121.586 222.187 121.383 222.543 121.233C222.899 121.084 223.322 121.009 223.813 121.009C224.311 121.009 224.739 121.084 225.094 121.233C225.45 121.383 225.742 121.586 225.97 121.842C226.205 122.098 226.379 122.401 226.493 122.749C226.614 123.091 226.682 123.458 226.696 123.849C226.71 124.048 226.717 124.265 226.717 124.5C226.717 124.735 226.717 124.97 226.717 125.205C226.717 125.433 226.71 125.643 226.696 125.835C226.682 126.226 226.618 126.596 226.504 126.945C226.39 127.287 226.219 127.589 225.991 127.853C225.763 128.116 225.468 128.322 225.105 128.472C224.749 128.621 224.319 128.696 223.813 128.696ZM223.813 127.468C224.276 127.468 224.614 127.319 224.827 127.02C225.048 126.714 225.162 126.301 225.169 125.781C225.183 125.575 225.19 125.369 225.19 125.162C225.19 124.949 225.19 124.735 225.19 124.522C225.19 124.308 225.183 124.105 225.169 123.913C225.162 123.408 225.048 123.002 224.827 122.696C224.614 122.383 224.276 122.226 223.813 122.226C223.358 122.226 223.02 122.383 222.799 122.696C222.586 123.002 222.472 123.408 222.457 123.913C222.457 124.105 222.454 124.308 222.447 124.522C222.447 124.735 222.447 124.949 222.447 125.162C222.454 125.369 222.457 125.575 222.457 125.781C222.472 126.301 222.589 126.714 222.81 127.02C223.03 127.319 223.365 127.468 223.813 127.468ZM234.033 128.696C233.527 128.696 233.097 128.621 232.741 128.472C232.385 128.322 232.093 128.116 231.865 127.853C231.638 127.589 231.467 127.287 231.353 126.945C231.239 126.596 231.172 126.226 231.15 125.835C231.143 125.643 231.136 125.433 231.129 125.205C231.129 124.97 231.129 124.735 231.129 124.5C231.136 124.265 231.143 124.048 231.15 123.849C231.164 123.458 231.232 123.091 231.353 122.749C231.474 122.401 231.648 122.098 231.876 121.842C232.111 121.586 232.406 121.383 232.762 121.233C233.118 121.084 233.542 121.009 234.033 121.009C234.531 121.009 234.958 121.084 235.314 121.233C235.67 121.383 235.962 121.586 236.189 121.842C236.424 122.098 236.599 122.401 236.712 122.749C236.833 123.091 236.901 123.458 236.915 123.849C236.93 124.048 236.937 124.265 236.937 124.5C236.937 124.735 236.937 124.97 236.937 125.205C236.937 125.433 236.93 125.643 236.915 125.835C236.901 126.226 236.837 126.596 236.723 126.945C236.609 127.287 236.438 127.589 236.211 127.853C235.983 128.116 235.688 128.322 235.325 128.472C234.969 128.621 234.538 128.696 234.033 128.696ZM234.033 127.468C234.495 127.468 234.833 127.319 235.047 127.02C235.268 126.714 235.381 126.301 235.389 125.781C235.403 125.575 235.41 125.369 235.41 125.162C235.41 124.949 235.41 124.735 235.41 124.522C235.41 124.308 235.403 124.105 235.389 123.913C235.381 123.408 235.268 123.002 235.047 122.696C234.833 122.383 234.495 122.226 234.033 122.226C233.577 122.226 233.239 122.383 233.018 122.696C232.805 123.002 232.691 123.408 232.677 123.913C232.677 124.105 232.673 124.308 232.666 124.522C232.666 124.735 232.666 124.949 232.666 125.162C232.673 125.369 232.677 125.575 232.677 125.781C232.691 126.301 232.809 126.714 233.029 127.02C233.25 127.319 233.584 127.468 234.033 127.468Z" fill="#64656A"/>
<path d="M268.194 128.696C267.688 128.696 267.258 128.621 266.902 128.472C266.546 128.322 266.254 128.116 266.027 127.853C265.799 127.589 265.628 127.287 265.514 126.945C265.4 126.596 265.333 126.226 265.311 125.835C265.304 125.643 265.297 125.433 265.29 125.205C265.29 124.97 265.29 124.735 265.29 124.5C265.297 124.265 265.304 124.048 265.311 123.849C265.325 123.458 265.393 123.091 265.514 122.749C265.635 122.401 265.809 122.098 266.037 121.842C266.272 121.586 266.567 121.383 266.923 121.233C267.279 121.084 267.703 121.009 268.194 121.009C268.692 121.009 269.119 121.084 269.475 121.233C269.831 121.383 270.123 121.586 270.35 121.842C270.585 122.098 270.76 122.401 270.873 122.749C270.994 123.091 271.062 123.458 271.076 123.849C271.091 124.048 271.098 124.265 271.098 124.5C271.098 124.735 271.098 124.97 271.098 125.205C271.098 125.433 271.091 125.643 271.076 125.835C271.062 126.226 270.998 126.596 270.884 126.945C270.77 127.287 270.599 127.589 270.372 127.853C270.144 128.116 269.849 128.322 269.486 128.472C269.13 128.621 268.699 128.696 268.194 128.696ZM268.194 127.468C268.656 127.468 268.994 127.319 269.208 127.02C269.429 126.714 269.543 126.301 269.55 125.781C269.564 125.575 269.571 125.369 269.571 125.162C269.571 124.949 269.571 124.735 269.571 124.522C269.571 124.308 269.564 124.105 269.55 123.913C269.543 123.408 269.429 123.002 269.208 122.696C268.994 122.383 268.656 122.226 268.194 122.226C267.738 122.226 267.4 122.383 267.18 122.696C266.966 123.002 266.852 123.408 266.838 123.913C266.838 124.105 266.834 124.308 266.827 124.522C266.827 124.735 266.827 124.949 266.827 125.162C266.834 125.369 266.838 125.575 266.838 125.781C266.852 126.301 266.97 126.714 267.19 127.02C267.411 127.319 267.745 127.468 268.194 127.468ZM278.413 128.696C277.908 128.696 277.477 128.621 277.121 128.472C276.766 128.322 276.474 128.116 276.246 127.853C276.018 127.589 275.847 127.287 275.734 126.945C275.62 126.596 275.552 126.226 275.531 125.835C275.524 125.643 275.516 125.433 275.509 125.205C275.509 124.97 275.509 124.735 275.509 124.5C275.516 124.265 275.524 124.048 275.531 123.849C275.545 123.458 275.613 123.091 275.734 122.749C275.855 122.401 276.029 122.098 276.257 121.842C276.492 121.586 276.787 121.383 277.143 121.233C277.499 121.084 277.922 121.009 278.413 121.009C278.911 121.009 279.339 121.084 279.694 121.233C280.05 121.383 280.342 121.586 280.57 121.842C280.805 122.098 280.979 122.401 281.093 122.749C281.214 123.091 281.282 123.458 281.296 123.849C281.31 124.048 281.317 124.265 281.317 124.5C281.317 124.735 281.317 124.97 281.317 125.205C281.317 125.433 281.31 125.643 281.296 125.835C281.282 126.226 281.218 126.596 281.104 126.945C280.99 127.287 280.819 127.589 280.591 127.853C280.363 128.116 280.068 128.322 279.705 128.472C279.349 128.621 278.919 128.696 278.413 128.696ZM278.413 127.468C278.876 127.468 279.214 127.319 279.427 127.02C279.648 126.714 279.762 126.301 279.769 125.781C279.783 125.575 279.79 125.369 279.79 125.162C279.79 124.949 279.79 124.735 279.79 124.522C279.79 124.308 279.783 124.105 279.769 123.913C279.762 123.408 279.648 123.002 279.427 122.696C279.214 122.383 278.876 122.226 278.413 122.226C277.958 122.226 277.62 122.383 277.399 122.696C277.185 123.002 277.072 123.408 277.057 123.913C277.057 124.105 277.054 124.308 277.047 124.522C277.047 124.735 277.047 124.949 277.047 125.162C277.054 125.369 277.057 125.575 277.057 125.781C277.072 126.301 277.189 126.714 277.41 127.02C277.63 127.319 277.965 127.468 278.413 127.468ZM288.633 128.696C288.127 128.696 287.697 128.621 287.341 128.472C286.985 128.322 286.693 128.116 286.465 127.853C286.238 127.589 286.067 127.287 285.953 126.945C285.839 126.596 285.772 126.226 285.75 125.835C285.743 125.643 285.736 125.433 285.729 125.205C285.729 124.97 285.729 124.735 285.729 124.5C285.736 124.265 285.743 124.048 285.75 123.849C285.764 123.458 285.832 123.091 285.953 122.749C286.074 122.401 286.248 122.098 286.476 121.842C286.711 121.586 287.006 121.383 287.362 121.233C287.718 121.084 288.142 121.009 288.633 121.009C289.131 121.009 289.558 121.084 289.914 121.233C290.27 121.383 290.562 121.586 290.789 121.842C291.024 122.098 291.199 122.401 291.312 122.749C291.433 123.091 291.501 123.458 291.515 123.849C291.53 124.048 291.537 124.265 291.537 124.5C291.537 124.735 291.537 124.97 291.537 125.205C291.537 125.433 291.53 125.643 291.515 125.835C291.501 126.226 291.437 126.596 291.323 126.945C291.209 127.287 291.038 127.589 290.811 127.853C290.583 128.116 290.288 128.322 289.925 128.472C289.569 128.621 289.138 128.696 288.633 128.696ZM288.633 127.468C289.095 127.468 289.433 127.319 289.647 127.02C289.868 126.714 289.981 126.301 289.989 125.781C290.003 125.575 290.01 125.369 290.01 125.162C290.01 124.949 290.01 124.735 290.01 124.522C290.01 124.308 290.003 124.105 289.989 123.913C289.981 123.408 289.868 123.002 289.647 122.696C289.433 122.383 289.095 122.226 288.633 122.226C288.177 122.226 287.839 122.383 287.618 122.696C287.405 123.002 287.291 123.408 287.277 123.913C287.277 124.105 287.273 124.308 287.266 124.522C287.266 124.735 287.266 124.949 287.266 125.162C287.273 125.369 287.277 125.575 287.277 125.781C287.291 126.301 287.409 126.714 287.629 127.02C287.85 127.319 288.184 127.468 288.633 127.468ZM298.852 128.696C298.347 128.696 297.916 128.621 297.56 128.472C297.205 128.322 296.913 128.116 296.685 127.853C296.457 127.589 296.286 127.287 296.172 126.945C296.059 126.596 295.991 126.226 295.97 125.835C295.963 125.643 295.955 125.433 295.948 125.205C295.948 124.97 295.948 124.735 295.948 124.5C295.955 124.265 295.963 124.048 295.97 123.849C295.984 123.458 296.051 123.091 296.172 122.749C296.293 122.401 296.468 122.098 296.696 121.842C296.93 121.586 297.226 121.383 297.582 121.233C297.938 121.084 298.361 121.009 298.852 121.009C299.35 121.009 299.777 121.084 300.133 121.233C300.489 121.383 300.781 121.586 301.009 121.842C301.244 122.098 301.418 122.401 301.532 122.749C301.653 123.091 301.72 123.458 301.735 123.849C301.749 124.048 301.756 124.265 301.756 124.5C301.756 124.735 301.756 124.97 301.756 125.205C301.756 125.433 301.749 125.643 301.735 125.835C301.72 126.226 301.656 126.596 301.543 126.945C301.429 127.287 301.258 127.589 301.03 127.853C300.802 128.116 300.507 128.322 300.144 128.472C299.788 128.621 299.358 128.696 298.852 128.696ZM298.852 127.468C299.315 127.468 299.653 127.319 299.866 127.02C300.087 126.714 300.201 126.301 300.208 125.781C300.222 125.575 300.229 125.369 300.229 125.162C300.229 124.949 300.229 124.735 300.229 124.522C300.229 124.308 300.222 124.105 300.208 123.913C300.201 123.408 300.087 123.002 299.866 122.696C299.653 122.383 299.315 122.226 298.852 122.226C298.397 122.226 298.059 122.383 297.838 122.696C297.624 123.002 297.511 123.408 297.496 123.913C297.496 124.105 297.493 124.308 297.486 124.522C297.486 124.735 297.486 124.949 297.486 125.162C297.493 125.369 297.496 125.575 297.496 125.781C297.511 126.301 297.628 126.714 297.849 127.02C298.069 127.319 298.404 127.468 298.852 127.468Z" fill="#64656A"/>
</g>
<g clip-path="url(#clip0_7272_33907)">
<path d="M136.908 31.9616V34.6128H136.365C132.667 34.6128 128.941 37.2936 128.941 43.3061V51.1118H126.49V32.2416H128.941V36.2718C130.672 33.4864 133.547 31.857 136.554 31.9457L136.908 31.9616Z" fill="#636569"/>
<path d="M147.014 31.8182C142.03 31.8182 138.132 36.1284 138.132 41.6357V41.7085C138.132 47.3022 142.073 51.5259 147.301 51.5259C151.257 51.5259 153.484 49.6507 154.999 48.0077L155.256 47.7186L153.514 46.1621L153.257 46.4351C151.543 48.2944 149.672 49.1592 147.359 49.1592C143.847 49.1592 141.162 46.5489 140.734 42.7576H155.559L155.601 42.4253C155.631 42.1227 155.631 42.0066 155.631 41.6766C155.626 35.869 152.085 31.8182 147.014 31.8182ZM140.729 40.4546C141.187 36.7793 143.743 34.1554 146.956 34.1554C150.926 34.1554 152.668 37.4575 152.998 40.4546H140.729Z" fill="#636569"/>
<path d="M101.586 39.7332V51.114H99.1308V39.9402C99.1308 36.2468 97.3228 34.1235 94.1621 34.1235C91.6056 34.1235 88.8552 36.0078 88.8552 40.1633V51.1117H86.3889V39.8356C86.3889 36.5267 84.7432 34.4057 82.0672 34.1531C81.9365 34.1235 81.8035 34.1235 81.6705 34.1235H81.5081C78.4512 34.1963 76.7018 36.3059 76.7018 39.9402V51.1117H74.2467V39.7332C74.2467 34.895 77.0985 31.7795 81.5239 31.7795C81.5961 31.7795 81.6705 31.7795 81.7449 31.7955C83.3477 31.8251 84.7455 32.2688 85.9335 33.1313C86.1116 33.2497 86.2717 33.3816 86.434 33.5318C87.0675 34.1121 87.5229 34.7493 87.8453 35.3137C87.8746 35.2841 87.8904 35.2386 87.9197 35.209C89.4594 32.9356 91.6079 31.7795 94.3109 31.7795C98.7363 31.7795 101.586 34.895 101.586 39.7332Z" fill="#636569"/>
<path fill-rule="evenodd" clip-rule="evenodd" d="M123.92 41.6082C123.92 47.2263 119.408 51.7807 113.843 51.7807C108.278 51.7807 103.766 47.2263 103.766 41.6082C103.766 35.9901 108.278 31.4358 113.843 31.4358C119.408 31.4358 123.92 35.9901 123.92 41.6082ZM115.579 38.2606L114.472 35.9962C114.215 35.4728 113.473 35.4728 113.223 35.9962L112.116 38.2606C111.873 38.7612 111.399 39.1094 110.851 39.1891L108.376 39.5532C107.801 39.6374 107.574 40.3474 107.988 40.757L109.778 42.5184C110.173 42.9076 110.353 43.4697 110.261 44.0204L109.837 46.5078C109.738 47.0835 110.337 47.525 110.851 47.2519L113.065 46.0777C113.554 45.8182 114.141 45.8182 114.63 46.0777L116.844 47.2519C117.355 47.525 117.955 47.0858 117.858 46.5078L117.434 44.0204C117.34 43.4697 117.52 42.9076 117.917 42.5184L119.707 40.757C120.122 40.3497 119.894 39.6374 119.319 39.5532L116.844 39.1891C116.298 39.1094 115.825 38.7612 115.579 38.2606Z" fill="#FF7F30"/>
</g>
<g filter="url(#filter3_i_7272_33907)">
<path d="M40.3386 69.0345C40.3386 58.7251 48.696 50.3677 59.0053 50.3677C67.5361 50.3677 74.9815 56.151 77.0919 64.4166L79.5644 74.1007C81.9843 83.5784 90.5214 90.2097 100.303 90.2097H272.832C282.613 90.2097 291.15 83.5784 293.57 74.1008L296.043 64.4166C298.153 56.151 305.599 50.3677 314.129 50.3677C324.439 50.3677 332.796 58.7251 332.796 69.0344V223.935C332.796 235.756 323.213 245.339 311.392 245.339H61.7425C49.9214 245.339 40.3386 235.756 40.3386 223.935V69.0345Z" fill="#FAF7F3"/>
</g>
<g filter="url(#filter4_di_7272_33907)">
<path d="M128.5 163.785C128.5 164.81 128.529 165.841 128.583 166.879C130.046 194.709 151.811 217.796 179.545 220.947C185.497 221.622 191.281 221.364 196.793 220.329C198.515 220.008 199.611 218.299 199.19 216.598L195.489 201.582C195.186 200.366 194.236 199.398 193.009 199.141C176.615 195.693 164.306 181.167 164.306 163.772V163.584C164.306 146.186 176.615 131.66 193.009 128.216C194.236 127.958 195.186 126.987 195.489 125.771L199.19 110.754C199.611 109.058 198.515 107.348 196.793 107.023C191.281 105.992 185.497 105.731 179.545 106.409C151.811 109.561 130.046 132.648 128.583 160.474C128.529 161.512 128.5 162.544 128.5 163.572V163.785Z" fill="#F7F2ED"/>
<path d="M214.756 163.74C214.756 161.827 227.454 157.166 233.859 157.166C239.343 157.166 243.787 160.108 243.787 163.74C243.787 167.373 239.343 170.317 233.859 170.317C227.454 170.317 214.756 165.743 214.756 163.74Z" fill="#F7F2ED"/>
<path d="M212.917 178.509C213.778 176.949 226.221 178.846 231.433 181.715C235.9 184.175 238.199 188.565 236.563 191.523C234.931 194.48 229.986 194.888 225.519 192.427C220.307 189.558 212.018 180.139 212.917 178.509Z" fill="#F7F2ED"/>
<path d="M204.421 191.302C205.814 190.424 215.044 197.504 217.984 202.152C220.502 206.134 220.4 210.715 217.757 212.383C215.114 214.051 210.925 212.173 208.406 208.193C205.467 203.546 202.965 192.222 204.421 191.302Z" fill="#F7F2ED"/>
<path d="M212.917 148.829C213.778 150.388 226.221 148.491 231.433 145.623C235.9 143.162 238.199 138.772 236.563 135.814C234.931 132.857 229.986 132.453 225.519 134.911C220.307 137.779 212.018 147.199 212.917 148.829Z" fill="#F7F2ED"/>
<path d="M204.421 136.033C205.814 136.911 215.044 129.831 217.984 125.183C220.502 121.201 220.4 116.62 217.757 114.952C215.114 113.284 210.925 115.162 208.406 119.145C205.467 123.793 202.965 135.113 204.421 136.033Z" fill="#F7F2ED"/>
</g>
<g filter="url(#filter5_d_7272_33907)">
<path d="M82.166 208.152C82.6467 207.571 82.9873 206.78 82.9873 205.979C82.9873 205.869 82.9772 205.758 82.9572 205.668C82.176 205.698 81.2345 206.189 80.6736 206.85C80.2329 207.351 79.8223 208.152 79.8223 208.953C79.8223 209.074 79.8423 209.194 79.8524 209.234C79.9024 209.244 79.9826 209.254 80.0627 209.254C80.7638 209.254 81.6452 208.783 82.166 208.152ZM82.7168 209.424C81.545 209.424 80.5935 210.135 79.9826 210.135C79.3315 210.135 78.4802 209.464 77.4586 209.464C75.5256 209.464 73.5625 211.067 73.5625 214.081C73.5625 215.964 74.2836 217.947 75.185 219.229C75.9563 220.311 76.6273 221.203 77.5988 221.203C78.5603 221.203 78.981 220.562 80.1729 220.562C81.3848 220.562 81.6552 221.183 82.7168 221.183C83.7685 221.183 84.4696 220.221 85.1306 219.27C85.8718 218.178 86.1823 217.116 86.1923 217.066C86.1322 217.046 84.119 216.225 84.119 213.921C84.119 211.928 85.7015 211.037 85.7916 210.967C84.75 209.464 83.1575 209.424 82.7168 209.424Z" fill="#FFAB79"/>
<path d="M89.8989 221.092H92.483V216.315H95.6679C98.6025 216.315 100.586 214.372 100.586 211.487V211.467C100.586 208.573 98.6025 206.64 95.6679 206.64H89.8989V221.092ZM95.037 208.753C96.8899 208.753 97.9716 209.745 97.9716 211.477V211.497C97.9716 213.23 96.8899 214.232 95.037 214.232H92.483V208.753H95.037ZM104.673 221.273C106.115 221.273 107.277 220.652 107.878 219.59H108.048V221.092H110.512V213.611C110.512 211.297 108.93 209.935 106.115 209.935C103.511 209.935 101.748 211.157 101.508 213L101.498 213.09H103.852L103.862 213.05C104.112 212.329 104.853 211.918 105.995 211.918C107.337 211.918 108.048 212.519 108.048 213.611V214.552L105.234 214.722C102.57 214.883 101.077 216.024 101.077 217.978V217.998C101.077 219.991 102.59 221.273 104.673 221.273ZM103.541 217.877V217.857C103.541 216.956 104.192 216.445 105.584 216.355L108.048 216.195V217.076C108.048 218.378 106.936 219.36 105.434 219.36C104.332 219.36 103.541 218.809 103.541 217.877ZM113.247 224.938C115.671 224.938 116.923 224.067 117.864 221.323L121.791 210.145H119.166L116.622 218.699H116.432L113.878 210.145H111.154L115.07 221.102L114.94 221.603C114.669 222.595 114.058 223.015 113.037 223.015C112.776 223.015 112.496 223.005 112.296 222.985V224.898C112.596 224.928 112.947 224.938 113.247 224.938Z" fill="#FFCFB0"/>
</g>
<defs>
<filter id="filter0_i_7272_33907" x="61.5311" y="-3.49652" width="250.072" height="170.282" filterUnits="userSpaceOnUse" color-interpolation-filters="sRGB">
<feFlood flood-opacity="0" result="BackgroundImageFix"/>
<feBlend mode="normal" in="SourceGraphic" in2="BackgroundImageFix" result="shape"/>
<feColorMatrix in="SourceAlpha" type="matrix" values="0 0 0 0 0 0 0 0 0 0 0 0 0 0 0 0 0 0 127 0" result="hardAlpha"/>
<feOffset dy="-3.56732"/>
<feGaussianBlur stdDeviation="2.67549"/>
<feComposite in2="hardAlpha" operator="arithmetic" k2="-1" k3="1"/>
<feColorMatrix type="matrix" values="0 0 0 0 0.966594 0 0 0 0 0.868033 0 0 0 0 0.806432 0 0 0 1 0"/>
<feBlend mode="normal" in2="shape" result="effect1_innerShadow_7272_33907"/>
</filter>
<filter id="filter1_i_7272_33907" x="61.5311" y="3.28509" width="250.072" height="170.282" filterUnits="userSpaceOnUse" color-interpolation-filters="sRGB">
<feFlood flood-opacity="0" result="BackgroundImageFix"/>
<feBlend mode="normal" in="SourceGraphic" in2="BackgroundImageFix" result="shape"/>
<feColorMatrix in="SourceAlpha" type="matrix" values="0 0 0 0 0 0 0 0 0 0 0 0 0 0 0 0 0 0 127 0" result="hardAlpha"/>
<feOffset dy="-3.56732"/>
<feGaussianBlur stdDeviation="2.67549"/>
<feComposite in2="hardAlpha" operator="arithmetic" k2="-1" k3="1"/>
<feColorMatrix type="matrix" values="0 0 0 0 0.966594 0 0 0 0 0.868033 0 0 0 0 0.806432 0 0 0 1 0"/>
<feBlend mode="normal" in2="shape" result="effect1_innerShadow_7272_33907"/>
</filter>
<filter id="filter2_ddddddi_7272_33907" x="0.524734" y="12.8715" width="372.085" height="304.742" filterUnits="userSpaceOnUse" color-interpolation-filters="sRGB">
<feFlood flood-opacity="0" result="BackgroundImageFix"/>
<feColorMatrix in="SourceAlpha" type="matrix" values="0 0 0 0 0 0 0 0 0 0 0 0 0 0 0 0 0 0 127 0" result="hardAlpha"/>
<feOffset dy="2.11025"/>
<feGaussianBlur stdDeviation="0.844102"/>
<feColorMatrix type="matrix" values="0 0 0 0 0.737255 0 0 0 0 0.435294 0 0 0 0 0.141176 0 0 0 0.0196802 0"/>
<feBlend mode="normal" in2="BackgroundImageFix" result="effect1_dropShadow_7272_33907"/>
<feColorMatrix in="SourceAlpha" type="matrix" values="0 0 0 0 0 0 0 0 0 0 0 0 0 0 0 0 0 0 127 0" result="hardAlpha"/>
<feOffset dy="5.07123"/>
<feGaussianBlur stdDeviation="2.02849"/>
<feColorMatrix type="matrix" values="0 0 0 0 0.737255 0 0 0 0 0.435294 0 0 0 0 0.141176 0 0 0 0.0282725 0"/>
<feBlend mode="normal" in2="effect1_dropShadow_7272_33907" result="effect2_dropShadow_7272_33907"/>
<feColorMatrix in="SourceAlpha" type="matrix" values="0 0 0 0 0 0 0 0 0 0 0 0 0 0 0 0 0 0 127 0" result="hardAlpha"/>
<feOffset dy="9.54869"/>
<feGaussianBlur stdDeviation="3.81947"/>
<feColorMatrix type="matrix" values="0 0 0 0 0.737255 0 0 0 0 0.435294 0 0 0 0 0.141176 0 0 0 0.035 0"/>
<feBlend mode="normal" in2="effect2_dropShadow_7272_33907" result="effect3_dropShadow_7272_33907"/>
<feColorMatrix in="SourceAlpha" type="matrix" values="0 0 0 0 0 0 0 0 0 0 0 0 0 0 0 0 0 0 127 0" result="hardAlpha"/>
<feOffset dy="17.0332"/>
<feGaussianBlur stdDeviation="6.81329"/>
<feColorMatrix type="matrix" values="0 0 0 0 0.737255 0 0 0 0 0.435294 0 0 0 0 0.141176 0 0 0 0.0417275 0"/>
<feBlend mode="normal" in2="effect3_dropShadow_7272_33907" result="effect4_dropShadow_7272_33907"/>
<feColorMatrix in="SourceAlpha" type="matrix" values="0 0 0 0 0 0 0 0 0 0 0 0 0 0 0 0 0 0 127 0" result="hardAlpha"/>
<feOffset dy="31.8588"/>
<feGaussianBlur stdDeviation="12.7435"/>
<feColorMatrix type="matrix" values="0 0 0 0 0.737255 0 0 0 0 0.435294 0 0 0 0 0.141176 0 0 0 0.0503198 0"/>
<feBlend mode="normal" in2="effect4_dropShadow_7272_33907" result="effect5_dropShadow_7272_33907"/>
<feColorMatrix in="SourceAlpha" type="matrix" values="0 0 0 0 0 0 0 0 0 0 0 0 0 0 0 0 0 0 127 0" result="hardAlpha"/>
<feOffset dy="76.258"/>
<feGaussianBlur stdDeviation="30.5032"/>
<feColorMatrix type="matrix" values="0 0 0 0 0.737255 0 0 0 0 0.435294 0 0 0 0 0.141176 0 0 0 0.07 0"/>
<feBlend mode="normal" in2="effect5_dropShadow_7272_33907" result="effect6_dropShadow_7272_33907"/>
<feBlend mode="normal" in="SourceGraphic" in2="effect6_dropShadow_7272_33907" result="shape"/>
<feColorMatrix in="SourceAlpha" type="matrix" values="0 0 0 0 0 0 0 0 0 0 0 0 0 0 0 0 0 0 127 0" result="hardAlpha"/>
<feOffset dy="-3.05032"/>
<feGaussianBlur stdDeviation="0.38129"/>
<feComposite in2="hardAlpha" operator="arithmetic" k2="-1" k3="1"/>
<feColorMatrix type="matrix" values="0 0 0 0 0.917647 0 0 0 0 0.854902 0 0 0 0 0.815686 0 0 0 0.8 0"/>
<feBlend mode="normal" in2="shape" result="effect7_innerShadow_7272_33907"/>
</filter>
<filter id="filter3_i_7272_33907" x="40.3386" y="46.8004" width="292.458" height="198.539" filterUnits="userSpaceOnUse" color-interpolation-filters="sRGB">
<feFlood flood-opacity="0" result="BackgroundImageFix"/>
<feBlend mode="normal" in="SourceGraphic" in2="BackgroundImageFix" result="shape"/>
<feColorMatrix in="SourceAlpha" type="matrix" values="0 0 0 0 0 0 0 0 0 0 0 0 0 0 0 0 0 0 127 0" result="hardAlpha"/>
<feOffset dy="-3.56732"/>
<feGaussianBlur stdDeviation="4.01324"/>
<feComposite in2="hardAlpha" operator="arithmetic" k2="-1" k3="1"/>
<feColorMatrix type="matrix" values="0 0 0 0 0.917647 0 0 0 0 0.854902 0 0 0 0 0.815686 0 0 0 0.8 0"/>
<feBlend mode="normal" in2="shape" result="effect1_innerShadow_7272_33907"/>
</filter>
<filter id="filter4_di_7272_33907" x="128.5" y="106.034" width="115.288" height="118.855" filterUnits="userSpaceOnUse" color-interpolation-filters="sRGB">
<feFlood flood-opacity="0" result="BackgroundImageFix"/>
<feColorMatrix in="SourceAlpha" type="matrix" values="0 0 0 0 0 0 0 0 0 0 0 0 0 0 0 0 0 0 127 0" result="hardAlpha"/>
<feOffset dy="0.891831"/>
<feColorMatrix type="matrix" values="0 0 0 0 1 0 0 0 0 1 0 0 0 0 1 0 0 0 1 0"/>
<feBlend mode="normal" in2="BackgroundImageFix" result="effect1_dropShadow_7272_33907"/>
<feBlend mode="normal" in="SourceGraphic" in2="effect1_dropShadow_7272_33907" result="shape"/>
<feColorMatrix in="SourceAlpha" type="matrix" values="0 0 0 0 0 0 0 0 0 0 0 0 0 0 0 0 0 0 127 0" result="hardAlpha"/>
<feOffset dy="3.56732"/>
<feGaussianBlur stdDeviation="3.56732"/>
<feComposite in2="hardAlpha" operator="arithmetic" k2="-1" k3="1"/>
<feColorMatrix type="matrix" values="0 0 0 0 0.995761 0 0 0 0 0.919487 0 0 0 0 0.843213 0 0 0 1 0"/>
<feBlend mode="normal" in2="shape" result="effect2_innerShadow_7272_33907"/>
</filter>
<filter id="filter5_d_7272_33907" x="73.5625" y="205.668" width="48.228" height="20.162" filterUnits="userSpaceOnUse" color-interpolation-filters="sRGB">
<feFlood flood-opacity="0" result="BackgroundImageFix"/>
<feColorMatrix in="SourceAlpha" type="matrix" values="0 0 0 0 0 0 0 0 0 0 0 0 0 0 0 0 0 0 127 0" result="hardAlpha"/>
<feOffset dy="0.891831"/>
<feColorMatrix type="matrix" values="0 0 0 0 1 0 0 0 0 1 0 0 0 0 1 0 0 0 1 0"/>
<feBlend mode="normal" in2="BackgroundImageFix" result="effect1_dropShadow_7272_33907"/>
<feBlend mode="normal" in="SourceGraphic" in2="effect1_dropShadow_7272_33907" result="shape"/>
</filter>
<clipPath id="clip0_7272_33907">
<rect width="81.3795" height="20.3449" fill="white" transform="translate(74.2467 31.4358)"/>
</clipPath>
</defs>
</svg>
