<svg width="32" height="32" viewBox="0 0 32 32" fill="none" xmlns="http://www.w3.org/2000/svg">
<path d="M26.2199 22.4154C25.8372 23.3007 25.3839 24.1154 24.8585 24.8647C24.1425 25.8874 23.5545 26.594 23.1039 26.9874C22.4039 27.63 21.6519 27.9607 20.8479 27.9794C20.2719 27.9794 19.5759 27.8154 18.7652 27.482C17.9519 27.15 17.2052 26.9874 16.5212 26.9874C15.8052 26.9874 15.0372 27.15 14.2145 27.482C13.3932 27.8154 12.7292 27.99 12.2212 28.006C11.4519 28.0394 10.6825 27.7007 9.91586 26.9874C9.42653 26.5607 8.81453 25.8274 8.07986 24.79C7.2932 23.6847 6.64653 22.398 6.13986 20.9354C5.5972 19.3527 5.3252 17.822 5.3252 16.3394C5.3252 14.642 5.69186 13.1767 6.42653 11.95C7.0052 10.9633 7.7732 10.186 8.7332 9.61535C9.69453 9.04335 10.7345 8.75135 11.8532 8.73268C12.4665 8.73268 13.2705 8.92202 14.2665 9.29535C15.2625 9.66868 15.9025 9.85802 16.1812 9.85802C16.3919 9.85802 17.0999 9.63535 18.3052 9.19402C19.4425 8.78468 20.4025 8.61535 21.1892 8.68202C23.3225 8.85402 24.9239 9.69402 25.9892 11.2087C24.0825 12.3647 23.1399 13.982 23.1585 16.058C23.1745 17.6754 23.7625 19.0207 24.9145 20.0887C25.4372 20.5847 26.0199 20.9674 26.6679 21.2394C26.5265 21.6487 26.3772 22.0394 26.2199 22.4154ZM21.3305 3.17402C21.3305 4.44068 20.8665 5.62468 19.9452 6.71935C18.8305 8.02068 17.4839 8.77402 16.0239 8.65535C16.0052 8.50335 15.9959 8.34335 15.9959 8.17535C15.9959 6.95802 16.5239 5.65668 17.4665 4.59135C17.9359 4.05268 18.5332 3.60335 19.2572 3.24602C19.9799 2.89402 20.6625 2.69935 21.3052 2.66602C21.3225 2.83668 21.3305 3.00602 21.3305 3.17402Z" fill="#202945"/>
</svg>
