<svg width="32" height="33" viewBox="0 0 32 33" fill="none" xmlns="http://www.w3.org/2000/svg">
<path fill-rule="evenodd" clip-rule="evenodd" d="M25.5998 9.73047C25.1518 9.73047 24.7518 9.90647 24.4638 10.1945L15.9998 18.6745L7.5358 10.1945C7.2478 9.90647 6.8478 9.73047 6.3998 9.73047C5.5198 9.73047 4.7998 10.4505 4.7998 11.3305C4.7998 11.7785 4.9758 12.1785 5.2638 12.4665L14.8638 22.0665C15.1518 22.3545 15.5518 22.5305 15.9998 22.5305C16.4478 22.5305 16.8478 22.3545 17.1358 22.0665L26.7358 12.4665C27.0238 12.1785 27.1998 11.7785 27.1998 11.3305C27.1998 10.4505 26.4798 9.73047 25.5998 9.73047Z" fill="#BFBEC0"/>
</svg>
