<svg width="41" height="39" viewBox="0 0 41 39" fill="none" xmlns="http://www.w3.org/2000/svg">
<path fill-rule="evenodd" clip-rule="evenodd" d="M19.1227 2.21447C19.5075 0.778529 20.9834 -0.0736234 22.4194 0.311136L38.2794 4.56082C39.7153 4.94558 40.5675 6.42155 40.1827 7.85749L33.425 33.0775C33.0403 34.5135 31.5643 35.3656 30.1284 34.9809L26.8851 34.1118C26.7321 34.1388 26.5748 34.1529 26.4141 34.1529H25.4058L17.8185 38.5334C16.531 39.2767 14.8848 38.8356 14.1415 37.5482L12.1812 34.1529L9.99458 34.1529C8.50798 34.1529 7.30285 32.9478 7.30285 31.4612V25.7033L1.08666 14.9365C0.343359 13.6491 0.784466 12.0029 2.0719 11.2596L7.30285 8.23947L7.30285 5.35146C7.30285 3.86487 8.50798 2.65974 9.99458 2.65974L19.0034 2.65974L19.1227 2.21447ZM7.30285 11.3476L3.41776 13.5907L7.30285 20.3199V11.3476ZM15.2894 34.1529L16.4726 36.2023L20.0224 34.1529L15.2894 34.1529ZM12.365 27.4345L18.2821 5.35146H9.99458L9.99458 31.4612H16.9927L14.2683 30.7312C12.8324 30.3464 11.9802 28.8705 12.365 27.4345Z" />
</svg>
