<svg width="375" height="312" viewBox="0 0 375 312" fill="none" xmlns="http://www.w3.org/2000/svg">
<g filter="url(#filter0_ddddddi_6039_24866)">
<path d="M27.1655 71.3231C27.1655 59.003 37.1529 49.0156 49.473 49.0156H325.527C337.847 49.0156 347.835 59.003 347.835 71.3231V240.488C347.835 252.808 337.847 262.795 325.527 262.795H49.473C37.1529 262.795 27.1655 252.808 27.1655 240.488V71.3231Z" fill="#FF7F32"/>
</g>
<mask id="mask0_6039_24866" style="mask-type:alpha" maskUnits="userSpaceOnUse" x="27" y="49" width="321" height="214">
<rect x="27.1655" y="49.0156" width="320.669" height="213.78" fill="url(#paint0_linear_6039_24866)"/>
</mask>
<g mask="url(#mask0_6039_24866)">
<path opacity="0.83" d="M270.66 214.8C298.343 214.8 320.784 192.492 320.784 164.974C320.784 137.456 298.343 115.148 270.66 115.148C242.977 115.148 220.536 137.456 220.536 164.974C220.536 192.492 242.977 214.8 270.66 214.8Z" fill="white"/>
<path opacity="0.79" d="M258.473 214.8C286.156 214.8 308.597 192.492 308.597 164.974C308.597 137.456 286.156 115.148 258.473 115.148C230.791 115.148 208.35 137.456 208.35 164.974C208.35 192.492 230.791 214.8 258.473 214.8Z" fill="white"/>
<path opacity="0.75" d="M246.287 214.8C273.969 214.8 296.411 192.492 296.411 164.974C296.411 137.456 273.969 115.148 246.287 115.148C218.604 115.148 196.163 137.456 196.163 164.974C196.163 192.492 218.604 214.8 246.287 214.8Z" fill="white"/>
<path opacity="0.69" d="M234.1 214.8C261.782 214.8 284.224 192.492 284.224 164.974C284.224 137.456 261.782 115.148 234.1 115.148C206.417 115.148 183.976 137.456 183.976 164.974C183.976 192.492 206.417 214.8 234.1 214.8Z" fill="white"/>
<path opacity="0.65" d="M221.913 214.8C249.596 214.8 272.037 192.492 272.037 164.974C272.037 137.456 249.596 115.148 221.913 115.148C194.231 115.148 171.79 137.456 171.79 164.974C171.79 192.492 194.231 214.8 221.913 214.8Z" fill="white"/>
<path opacity="0.64" d="M209.727 214.8C237.409 214.8 259.851 192.492 259.851 164.974C259.851 137.456 237.409 115.148 209.727 115.148C182.044 115.148 159.603 137.456 159.603 164.974C159.603 192.492 182.044 214.8 209.727 214.8Z" fill="white"/>
<path opacity="0.52" d="M197.54 214.8C225.223 214.8 247.664 192.492 247.664 164.974C247.664 137.456 225.223 115.148 197.54 115.148C169.858 115.148 147.417 137.456 147.417 164.974C147.417 192.492 169.858 214.8 197.54 214.8Z" fill="white"/>
<path opacity="0.52" d="M185.354 214.8C213.036 214.8 235.478 192.492 235.478 164.974C235.478 137.456 213.036 115.148 185.354 115.148C157.671 115.148 135.23 137.456 135.23 164.974C135.23 192.492 157.671 214.8 185.354 214.8Z" fill="white"/>
<path opacity="0.5" d="M173.167 214.8C200.85 214.8 223.291 192.492 223.291 164.974C223.291 137.456 200.85 115.148 173.167 115.148C145.485 115.148 123.043 137.456 123.043 164.974C123.043 192.492 145.485 214.8 173.167 214.8Z" fill="white"/>
<path opacity="0.49" d="M160.981 214.8C188.663 214.8 211.104 192.492 211.104 164.974C211.104 137.456 188.663 115.148 160.981 115.148C133.298 115.148 110.857 137.456 110.857 164.974C110.857 192.492 133.298 214.8 160.981 214.8Z" fill="white"/>
<path opacity="0.44" d="M148.794 214.8C176.476 214.8 198.917 192.492 198.917 164.974C198.917 137.456 176.476 115.148 148.794 115.148C121.111 115.148 98.6699 137.456 98.6699 164.974C98.6699 192.492 121.111 214.8 148.794 214.8Z" fill="white"/>
<path opacity="0.4" d="M136.607 214.8C164.29 214.8 186.731 192.492 186.731 164.974C186.731 137.456 164.29 115.148 136.607 115.148C108.925 115.148 86.4834 137.456 86.4834 164.974C86.4834 192.492 108.925 214.8 136.607 214.8Z" fill="white"/>
<path opacity="0.29" d="M124.421 214.8C152.103 214.8 174.544 192.492 174.544 164.974C174.544 137.456 152.103 115.148 124.421 115.148C96.7381 115.148 74.2969 137.456 74.2969 164.974C74.2969 192.492 96.7381 214.8 124.421 214.8Z" fill="white"/>
<path opacity="0.27" d="M112.234 214.8C139.917 214.8 162.358 192.492 162.358 164.974C162.358 137.456 139.917 115.148 112.234 115.148C84.5515 115.148 62.1104 137.456 62.1104 164.974C62.1104 192.492 84.5515 214.8 112.234 214.8Z" fill="white"/>
<path opacity="0.25" d="M100.048 214.8C127.73 214.8 150.171 192.492 150.171 164.974C150.171 137.456 127.73 115.148 100.048 115.148C72.365 115.148 49.9238 137.456 49.9238 164.974C49.9238 192.492 72.365 214.8 100.048 214.8Z" fill="white"/>
<path opacity="0.25" d="M87.8606 214.8C115.543 214.8 137.984 192.492 137.984 164.974C137.984 137.456 115.543 115.148 87.8606 115.148C60.178 115.148 37.7368 137.456 37.7368 164.974C37.7368 192.492 60.178 214.8 87.8606 214.8Z" fill="white"/>
<path opacity="0.22" d="M75.6746 214.8C103.357 214.8 125.798 192.492 125.798 164.974C125.798 137.456 103.357 115.148 75.6746 115.148C47.992 115.148 25.5508 137.456 25.5508 164.974C25.5508 192.492 47.992 214.8 75.6746 214.8Z" fill="white"/>
<path opacity="0.14" d="M63.4875 214.8C91.1701 214.8 113.611 192.492 113.611 164.974C113.611 137.456 91.1701 115.148 63.4875 115.148C35.8049 115.148 13.3638 137.456 13.3638 164.974C13.3638 192.492 35.8049 214.8 63.4875 214.8Z" fill="white"/>
<path opacity="0.06" d="M51.301 214.8C78.9836 214.8 101.425 192.492 101.425 164.974C101.425 137.456 78.9836 115.148 51.301 115.148C23.6184 115.148 1.17725 137.456 1.17725 164.974C1.17725 192.492 23.6184 214.8 51.301 214.8Z" fill="white"/>
<path opacity="0.03" d="M39.1145 214.8C66.7971 214.8 89.2383 192.492 89.2383 164.974C89.2383 137.456 66.7971 115.148 39.1145 115.148C11.4319 115.148 -11.0093 137.456 -11.0093 164.974C-11.0093 192.492 11.4319 214.8 39.1145 214.8Z" fill="white"/>
<path opacity="0.95" fill-rule="evenodd" clip-rule="evenodd" d="M332.97 164.974C332.97 192.492 310.529 214.8 282.846 214.8C255.164 214.8 232.723 192.492 232.723 164.974C232.723 137.456 255.164 115.148 282.846 115.148C310.529 115.148 332.97 137.456 332.97 164.974ZM291.481 148.578L285.975 137.487C284.697 134.923 281.008 134.923 279.763 137.487L274.257 148.578C273.046 151.03 270.691 152.735 267.966 153.125L255.654 154.909C252.795 155.321 251.662 158.799 253.725 160.806L262.629 169.433C264.591 171.339 265.488 174.093 265.029 176.79L262.92 188.973C262.427 191.794 265.41 193.956 267.966 192.618L278.978 186.867C281.411 185.596 284.327 185.596 286.76 186.867L297.772 192.618C300.317 193.956 303.3 191.805 302.818 188.973L300.709 176.79C300.239 174.093 301.136 171.339 303.109 169.433L312.013 160.806C314.076 158.81 312.943 155.321 310.084 154.909L297.772 153.125C295.058 152.735 292.703 151.03 291.481 148.578Z" fill="white"/>
<path opacity="0.95" d="M285.975 137.487L291.481 148.578C292.703 151.03 295.058 152.735 297.772 153.125L310.084 154.909C312.943 155.321 314.076 158.81 312.013 160.806L303.109 169.433C301.136 171.339 300.239 174.093 300.709 176.79L302.818 188.973C303.3 191.805 300.317 193.956 297.772 192.618L286.76 186.867C284.327 185.596 281.411 185.596 278.978 186.867L267.966 192.618C265.41 193.956 262.427 191.794 262.92 188.973L265.029 176.79C265.488 174.093 264.591 171.339 262.629 169.433L253.725 160.806C251.662 158.799 252.795 155.321 255.654 154.909L267.966 153.125C270.691 152.735 273.046 151.03 274.257 148.578L279.763 137.487C281.008 134.923 284.697 134.923 285.975 137.487Z" fill="#FF7F32"/>
<path d="M46.9037 240.322C46.8219 240.322 46.755 240.296 46.7029 240.244C46.6509 240.192 46.6249 240.129 46.6249 240.055V232.794C46.6249 232.712 46.6509 232.645 46.7029 232.593C46.755 232.541 46.8219 232.515 46.9037 232.515H47.7849C47.889 232.515 47.967 232.544 48.0191 232.604C48.0711 232.656 48.1046 232.697 48.1195 232.727L50.2721 236.742L52.4471 232.727C52.462 232.697 52.4954 232.656 52.5475 232.604C52.5995 232.544 52.6776 232.515 52.7817 232.515H53.6517C53.7335 232.515 53.8004 232.541 53.8525 232.593C53.9045 232.645 53.9306 232.712 53.9306 232.794V240.055C53.9306 240.129 53.9045 240.192 53.8525 240.244C53.8004 240.296 53.7335 240.322 53.6517 240.322H52.7148C52.633 240.322 52.5661 240.296 52.514 240.244C52.4694 240.192 52.4471 240.129 52.4471 240.055V235.225L50.8856 238.203C50.8484 238.27 50.8001 238.329 50.7406 238.382C50.6811 238.426 50.603 238.448 50.5064 238.448H50.0491C49.945 238.448 49.8632 238.426 49.8037 238.382C49.7516 238.329 49.707 238.27 49.6698 238.203L48.1083 235.225V240.055C48.1083 240.129 48.0823 240.192 48.0302 240.244C47.9782 240.296 47.915 240.322 47.8406 240.322H46.9037ZM59.2793 240.322C59.2049 240.322 59.1417 240.296 59.0897 240.244C59.0376 240.192 59.0116 240.129 59.0116 240.055V232.794C59.0116 232.712 59.0376 232.645 59.0897 232.593C59.1417 232.541 59.2049 232.515 59.2793 232.515H64.1869C64.2687 232.515 64.3356 232.541 64.3877 232.593C64.4397 232.645 64.4658 232.712 64.4658 232.794V233.53C64.4658 233.604 64.4397 233.667 64.3877 233.719C64.3356 233.771 64.2687 233.797 64.1869 233.797H60.5173V235.772H63.9415C64.0233 235.772 64.0903 235.798 64.1423 235.85C64.1944 235.894 64.2204 235.957 64.2204 236.039V236.731C64.2204 236.813 64.1944 236.879 64.1423 236.932C64.0903 236.976 64.0233 236.998 63.9415 236.998H60.5173V239.04H64.2761C64.3579 239.04 64.4249 239.066 64.4769 239.118C64.529 239.17 64.555 239.237 64.555 239.318V240.055C64.555 240.129 64.529 240.192 64.4769 240.244C64.4249 240.296 64.3579 240.322 64.2761 240.322H59.2793ZM69.5749 240.322C69.4932 240.322 69.4262 240.296 69.3742 240.244C69.3221 240.192 69.2961 240.129 69.2961 240.055V232.794C69.2961 232.712 69.3221 232.645 69.3742 232.593C69.4262 232.541 69.4932 232.515 69.5749 232.515H70.4561C70.5602 232.515 70.6383 232.544 70.6903 232.604C70.7424 232.656 70.7758 232.697 70.7907 232.727L72.9434 236.742L75.1183 232.727C75.1332 232.697 75.1667 232.656 75.2187 232.604C75.2708 232.544 75.3489 232.515 75.453 232.515H76.3229C76.4047 232.515 76.4717 232.541 76.5237 232.593C76.5758 232.645 76.6018 232.712 76.6018 232.794V240.055C76.6018 240.129 76.5758 240.192 76.5237 240.244C76.4717 240.296 76.4047 240.322 76.3229 240.322H75.386C75.3042 240.322 75.2373 240.296 75.1853 240.244C75.1406 240.192 75.1183 240.129 75.1183 240.055V235.225L73.5568 238.203C73.5196 238.27 73.4713 238.329 73.4118 238.382C73.3523 238.426 73.2743 238.448 73.1776 238.448H72.7203C72.6162 238.448 72.5344 238.426 72.4749 238.382C72.4229 238.329 72.3782 238.27 72.3411 238.203L70.7795 235.225V240.055C70.7795 240.129 70.7535 240.192 70.7015 240.244C70.6494 240.296 70.5862 240.322 70.5119 240.322H69.5749ZM81.9505 240.322C81.8762 240.322 81.813 240.296 81.7609 240.244C81.7089 240.192 81.6828 240.129 81.6828 240.055V232.794C81.6828 232.712 81.7089 232.645 81.7609 232.593C81.813 232.541 81.8762 232.515 81.9505 232.515H85.1851C85.7874 232.515 86.2782 232.608 86.6574 232.794C87.0366 232.972 87.3155 233.221 87.4939 233.541C87.6798 233.861 87.7728 234.232 87.7728 234.656C87.7728 234.939 87.7207 235.188 87.6166 235.403C87.5199 235.612 87.3972 235.783 87.2485 235.917C87.1072 236.05 86.966 236.154 86.8247 236.229C87.1147 236.363 87.3712 236.586 87.5943 236.898C87.8174 237.21 87.9289 237.582 87.9289 238.013C87.9289 238.46 87.8285 238.857 87.6278 239.207C87.427 239.556 87.1296 239.832 86.7355 240.032C86.3414 240.226 85.8543 240.322 85.2743 240.322H81.9505ZM83.2332 239.14H85.0959C85.4974 239.14 85.8023 239.032 86.0105 238.817C86.2187 238.593 86.3228 238.326 86.3228 238.013C86.3228 237.686 86.215 237.415 85.9993 237.199C85.7911 236.984 85.49 236.876 85.0959 236.876H83.2332V239.14ZM83.2332 235.716H84.9843C85.3784 235.716 85.6721 235.623 85.8655 235.437C86.0662 235.244 86.1666 234.995 86.1666 234.69C86.1666 234.377 86.0662 234.136 85.8655 233.965C85.6721 233.786 85.3784 233.697 84.9843 233.697H83.2332V235.716ZM92.943 240.322C92.8687 240.322 92.8055 240.296 92.7534 240.244C92.7014 240.192 92.6753 240.129 92.6753 240.055V232.794C92.6753 232.712 92.7014 232.645 92.7534 232.593C92.8055 232.541 92.8687 232.515 92.943 232.515H97.8507C97.9325 232.515 97.9994 232.541 98.0514 232.593C98.1035 232.645 98.1295 232.712 98.1295 232.794V233.53C98.1295 233.604 98.1035 233.667 98.0514 233.719C97.9994 233.771 97.9325 233.797 97.8507 233.797H94.1811V235.772H97.6053C97.6871 235.772 97.754 235.798 97.806 235.85C97.8581 235.894 97.8841 235.957 97.8841 236.039V236.731C97.8841 236.813 97.8581 236.879 97.806 236.932C97.754 236.976 97.6871 236.998 97.6053 236.998H94.1811V239.04H97.9399C98.0217 239.04 98.0886 239.066 98.1407 239.118C98.1927 239.17 98.2187 239.237 98.2187 239.318V240.055C98.2187 240.129 98.1927 240.192 98.1407 240.244C98.0886 240.296 98.0217 240.322 97.9399 240.322H92.943ZM103.228 240.322C103.153 240.322 103.09 240.296 103.038 240.244C102.986 240.192 102.96 240.129 102.96 240.055V232.794C102.96 232.712 102.986 232.645 103.038 232.593C103.09 232.541 103.153 232.515 103.228 232.515H106.116C107.016 232.515 107.726 232.723 108.247 233.139C108.767 233.556 109.027 234.162 109.027 234.957C109.027 235.508 108.89 235.965 108.615 236.329C108.347 236.694 107.986 236.958 107.533 237.121L109.161 239.965C109.184 240.01 109.195 240.051 109.195 240.088C109.195 240.155 109.169 240.211 109.117 240.255C109.072 240.3 109.02 240.322 108.961 240.322H107.946C107.819 240.322 107.722 240.289 107.656 240.222C107.589 240.155 107.537 240.088 107.499 240.021L106.061 237.378H104.51V240.055C104.51 240.129 104.484 240.192 104.432 240.244C104.388 240.296 104.324 240.322 104.243 240.322H103.228ZM104.51 236.117H106.083C106.536 236.117 106.875 236.017 107.098 235.816C107.321 235.608 107.432 235.318 107.432 234.946C107.432 234.574 107.321 234.284 107.098 234.076C106.882 233.861 106.544 233.753 106.083 233.753H104.51V236.117ZM122.717 240.434C122.026 240.434 121.438 240.315 120.955 240.077C120.479 239.832 120.115 239.486 119.862 239.04C119.609 238.586 119.468 238.043 119.438 237.411C119.431 237.106 119.427 236.779 119.427 236.43C119.427 236.08 119.431 235.746 119.438 235.426C119.468 234.801 119.609 234.262 119.862 233.808C120.122 233.355 120.49 233.009 120.966 232.771C121.449 232.526 122.033 232.403 122.717 232.403C123.223 232.403 123.676 232.47 124.078 232.604C124.479 232.738 124.821 232.924 125.104 233.162C125.387 233.392 125.606 233.663 125.762 233.976C125.918 234.288 126 234.626 126.008 234.991C126.015 235.058 125.993 235.113 125.941 235.158C125.896 235.203 125.84 235.225 125.773 235.225H124.714C124.632 235.225 124.565 235.206 124.513 235.169C124.461 235.125 124.424 235.054 124.401 234.957C124.282 234.467 124.078 234.132 123.788 233.953C123.498 233.775 123.137 233.686 122.706 233.686C122.208 233.686 121.81 233.827 121.513 234.11C121.215 234.385 121.055 234.842 121.033 235.482C121.011 236.091 121.011 236.716 121.033 237.355C121.055 237.995 121.215 238.456 121.513 238.738C121.81 239.014 122.208 239.151 122.706 239.151C123.137 239.151 123.498 239.062 123.788 238.883C124.078 238.698 124.282 238.363 124.401 237.88C124.424 237.776 124.461 237.705 124.513 237.668C124.565 237.631 124.632 237.612 124.714 237.612H125.773C125.84 237.612 125.896 237.634 125.941 237.679C125.993 237.723 126.015 237.779 126.008 237.846C126 238.21 125.918 238.549 125.762 238.861C125.606 239.173 125.387 239.449 125.104 239.687C124.821 239.917 124.479 240.099 124.078 240.233C123.676 240.367 123.223 240.434 122.717 240.434ZM130.11 240.322C130.05 240.322 129.994 240.3 129.942 240.255C129.898 240.211 129.875 240.155 129.875 240.088C129.875 240.058 129.883 240.025 129.898 239.988L132.586 232.794C132.608 232.719 132.649 232.656 132.708 232.604C132.775 232.544 132.865 232.515 132.976 232.515H134.192C134.303 232.515 134.389 232.544 134.448 232.604C134.508 232.656 134.553 232.719 134.582 232.794L137.27 239.988C137.278 240.025 137.281 240.058 137.281 240.088C137.281 240.155 137.259 240.211 137.215 240.255C137.17 240.3 137.118 240.322 137.058 240.322H136.088C135.984 240.322 135.906 240.3 135.854 240.255C135.809 240.203 135.779 240.155 135.765 240.11L135.24 238.75H131.928L131.403 240.11C131.389 240.155 131.355 240.203 131.303 240.255C131.258 240.3 131.184 240.322 131.08 240.322H130.11ZM132.318 237.467H134.85L133.578 234.02L132.318 237.467ZM141.937 240.322C141.862 240.322 141.799 240.296 141.747 240.244C141.695 240.192 141.669 240.129 141.669 240.055V232.794C141.669 232.712 141.695 232.645 141.747 232.593C141.799 232.541 141.862 232.515 141.937 232.515H144.825C145.725 232.515 146.435 232.723 146.956 233.139C147.476 233.556 147.737 234.162 147.737 234.957C147.737 235.508 147.599 235.965 147.324 236.329C147.056 236.694 146.696 236.958 146.242 237.121L147.87 239.965C147.893 240.01 147.904 240.051 147.904 240.088C147.904 240.155 147.878 240.211 147.826 240.255C147.781 240.3 147.729 240.322 147.67 240.322H146.655C146.528 240.322 146.432 240.289 146.365 240.222C146.298 240.155 146.246 240.088 146.208 240.021L144.77 237.378H143.219V240.055C143.219 240.129 143.193 240.192 143.141 240.244C143.097 240.296 143.033 240.322 142.952 240.322H141.937ZM143.219 236.117H144.792C145.246 236.117 145.584 236.017 145.807 235.816C146.03 235.608 146.142 235.318 146.142 234.946C146.142 234.574 146.03 234.284 145.807 234.076C145.591 233.861 145.253 233.753 144.792 233.753H143.219V236.117ZM152.787 240.322C152.713 240.322 152.65 240.296 152.598 240.244C152.546 240.192 152.52 240.129 152.52 240.055V232.794C152.52 232.712 152.546 232.645 152.598 232.593C152.65 232.541 152.713 232.515 152.787 232.515H155.509C156.26 232.515 156.877 232.63 157.361 232.86C157.851 233.091 158.219 233.433 158.465 233.887C158.718 234.34 158.848 234.894 158.855 235.548C158.87 235.876 158.877 236.166 158.877 236.418C158.877 236.671 158.87 236.958 158.855 237.277C158.84 237.969 158.714 238.541 158.476 238.995C158.238 239.441 157.877 239.776 157.394 239.999C156.918 240.214 156.308 240.322 155.565 240.322H152.787ZM154.07 239.04H155.509C155.925 239.04 156.264 238.98 156.524 238.861C156.784 238.742 156.974 238.553 157.093 238.292C157.219 238.025 157.286 237.675 157.294 237.244C157.301 237.021 157.305 236.827 157.305 236.664C157.312 236.493 157.312 236.326 157.305 236.162C157.305 235.991 157.301 235.798 157.294 235.582C157.279 234.972 157.126 234.522 156.836 234.232C156.546 233.942 156.085 233.797 155.453 233.797H154.07V239.04Z" fill="white"/>
</g>
<g clip-path="url(#clip0_6039_24866)">
<path d="M136.219 73.9502V77.8261H135.419C129.971 77.8261 124.481 81.7453 124.481 90.5352V101.947H120.87V74.3594H124.481V80.2515C127.032 76.1793 131.267 73.7972 135.698 73.9269L136.219 73.9502Z" fill="white"/>
<path d="M151.11 73.7402C143.766 73.7402 138.023 80.0415 138.023 88.0928V88.1993C138.023 96.377 143.829 102.552 151.532 102.552C157.361 102.552 160.643 99.8105 162.875 97.4084L163.254 96.9859L160.686 94.7102L160.307 95.1095C157.783 97.8276 155.026 99.0919 151.618 99.0919C146.443 99.0919 142.487 95.2758 141.856 89.733H163.699L163.762 89.2473C163.805 88.8048 163.805 88.6351 163.805 88.1527C163.798 79.6623 158.58 73.7402 151.11 73.7402ZM141.849 86.3628C142.524 80.9897 146.29 77.1537 151.024 77.1537C156.873 77.1537 159.44 81.9812 159.925 86.3628H141.849Z" fill="white"/>
<path d="M84.1768 85.3081V101.946H80.5596V85.6142C80.5596 80.2145 77.8957 77.1104 73.2388 77.1104C69.4722 77.1104 65.4198 79.8651 65.4198 85.9402V101.946H61.786V85.4611C61.786 80.6237 59.3613 77.5229 55.4186 77.1536C55.2259 77.1104 55.0299 77.1104 54.834 77.1104H54.5948C50.0907 77.2169 47.5132 80.301 47.5132 85.6142V101.946H43.896V85.3081C43.896 78.2382 48.0978 73.6836 54.6181 73.6836C54.7243 73.6836 54.834 73.6836 54.9436 73.7069C57.3052 73.7501 59.3646 74.3989 61.1151 75.6598C61.3775 75.8328 61.6133 76.0258 61.8525 76.2454C62.7858 77.0938 63.4568 78.0253 63.9318 78.8504C63.975 78.8071 63.9982 78.7406 64.0414 78.6974C66.31 75.3737 69.4755 73.6836 73.4581 73.6836C79.9783 73.6836 84.1768 78.2382 84.1768 85.3081Z" fill="white"/>
<path d="M102.24 73.1816C94.0386 73.1816 87.3921 79.8389 87.3921 88.0533C87.3921 96.2643 94.0386 102.925 102.24 102.925C110.437 102.925 117.087 96.2643 117.087 88.0533C117.087 79.8389 110.437 73.1816 102.24 73.1816ZM110.876 86.809L108.238 89.3841C107.654 89.953 107.388 90.7747 107.528 91.5799L108.149 95.2196C108.295 96.0613 107.408 96.7067 106.654 96.3075L103.392 94.5908C102.671 94.2082 101.808 94.2082 101.087 94.5908L97.8252 96.3075C97.0679 96.7067 96.1843 96.0613 96.3271 95.2196L96.9516 91.5799C97.0878 90.7747 96.8221 89.953 96.2375 89.3841L93.6001 86.809C92.989 86.2101 93.3244 85.1688 94.1714 85.0457L97.8185 84.5167C98.6257 84.3969 99.3232 83.8912 99.6819 83.1593L101.313 79.8489C101.691 79.0804 102.784 79.0804 103.163 79.8489L104.794 83.1593C105.156 83.8912 105.853 84.3969 106.661 84.5167L110.304 85.0457C111.151 85.1688 111.49 86.2101 110.876 86.809Z" fill="white"/>
</g>
<defs>
<filter id="filter0_ddddddi_6039_24866" x="-98.7475" y="-49.5074" width="572.496" height="465.605" filterUnits="userSpaceOnUse" color-interpolation-filters="sRGB">
<feFlood flood-opacity="0" result="BackgroundImageFix"/>
<feColorMatrix in="SourceAlpha" type="matrix" values="0 0 0 0 0 0 0 0 0 0 0 0 0 0 0 0 0 0 127 0" result="hardAlpha"/>
<feOffset dy="4.35542"/>
<feGaussianBlur stdDeviation="1.74217"/>
<feColorMatrix type="matrix" values="0 0 0 0 0.737255 0 0 0 0 0.435294 0 0 0 0 0.141176 0 0 0 0.0196802 0"/>
<feBlend mode="normal" in2="BackgroundImageFix" result="effect1_dropShadow_6039_24866"/>
<feColorMatrix in="SourceAlpha" type="matrix" values="0 0 0 0 0 0 0 0 0 0 0 0 0 0 0 0 0 0 127 0" result="hardAlpha"/>
<feOffset dy="10.4667"/>
<feGaussianBlur stdDeviation="4.18667"/>
<feColorMatrix type="matrix" values="0 0 0 0 0.737255 0 0 0 0 0.435294 0 0 0 0 0.141176 0 0 0 0.0282725 0"/>
<feBlend mode="normal" in2="effect1_dropShadow_6039_24866" result="effect2_dropShadow_6039_24866"/>
<feColorMatrix in="SourceAlpha" type="matrix" values="0 0 0 0 0 0 0 0 0 0 0 0 0 0 0 0 0 0 127 0" result="hardAlpha"/>
<feOffset dy="19.7078"/>
<feGaussianBlur stdDeviation="7.88313"/>
<feColorMatrix type="matrix" values="0 0 0 0 0.737255 0 0 0 0 0.435294 0 0 0 0 0.141176 0 0 0 0.035 0"/>
<feBlend mode="normal" in2="effect2_dropShadow_6039_24866" result="effect3_dropShadow_6039_24866"/>
<feColorMatrix in="SourceAlpha" type="matrix" values="0 0 0 0 0 0 0 0 0 0 0 0 0 0 0 0 0 0 127 0" result="hardAlpha"/>
<feOffset dy="35.1554"/>
<feGaussianBlur stdDeviation="14.0622"/>
<feColorMatrix type="matrix" values="0 0 0 0 0.737255 0 0 0 0 0.435294 0 0 0 0 0.141176 0 0 0 0.0417275 0"/>
<feBlend mode="normal" in2="effect3_dropShadow_6039_24866" result="effect4_dropShadow_6039_24866"/>
<feColorMatrix in="SourceAlpha" type="matrix" values="0 0 0 0 0 0 0 0 0 0 0 0 0 0 0 0 0 0 127 0" result="hardAlpha"/>
<feOffset dy="35.75"/>
<feGaussianBlur stdDeviation="26.3017"/>
<feColorMatrix type="matrix" values="0 0 0 0 0.737255 0 0 0 0 0.435294 0 0 0 0 0.141176 0 0 0 0.0503198 0"/>
<feBlend mode="normal" in2="effect4_dropShadow_6039_24866" result="effect5_dropShadow_6039_24866"/>
<feColorMatrix in="SourceAlpha" type="matrix" values="0 0 0 0 0 0 0 0 0 0 0 0 0 0 0 0 0 0 127 0" result="hardAlpha"/>
<feOffset dy="27.39"/>
<feGaussianBlur stdDeviation="62.9565"/>
<feColorMatrix type="matrix" values="0 0 0 0 0.737255 0 0 0 0 0.435294 0 0 0 0 0.141176 0 0 0 0.07 0"/>
<feBlend mode="normal" in2="effect5_dropShadow_6039_24866" result="effect6_dropShadow_6039_24866"/>
<feBlend mode="normal" in="SourceGraphic" in2="effect6_dropShadow_6039_24866" result="shape"/>
<feColorMatrix in="SourceAlpha" type="matrix" values="0 0 0 0 0 0 0 0 0 0 0 0 0 0 0 0 0 0 127 0" result="hardAlpha"/>
<feOffset dy="-6.29565"/>
<feGaussianBlur stdDeviation="0.786956"/>
<feComposite in2="hardAlpha" operator="arithmetic" k2="-1" k3="1"/>
<feColorMatrix type="matrix" values="0 0 0 0 0.991667 0 0 0 0 0.403439 0 0 0 0 0.0495833 0 0 0 1 0"/>
<feBlend mode="normal" in2="shape" result="effect7_innerShadow_6039_24866"/>
</filter>
<linearGradient id="paint0_linear_6039_24866" x1="187.5" y1="49.0156" x2="187.5" y2="262.795" gradientUnits="userSpaceOnUse">
<stop stop-color="#E04F39"/>
<stop offset="1" stop-color="#E98C75"/>
</linearGradient>
<clipPath id="clip0_6039_24866">
<rect width="119.902" height="29.7432" fill="white" transform="translate(43.896 73.1816)"/>
</clipPath>
</defs>
</svg>
