<svg width="98" height="66" viewBox="0 0 98 66" fill="none" xmlns="http://www.w3.org/2000/svg">
<g clip-path="url(#clip0_6215_95605)">
<path d="M0 7.46C0 3.33995 3.33996 0 7.46 0H90.54C94.66 0 98 3.33996 98 7.46V57.568C98 61.6881 94.6601 65.028 90.54 65.028H7.46C3.33996 65.028 0 61.6881 0 57.568V7.46Z" fill="#FF7F32"/>
<path d="M59.0461 14.748C58.985 14.748 58.9331 14.7267 58.8904 14.6839C58.8476 14.6412 58.8263 14.5893 58.8263 14.5282V8.5658C58.8263 8.49864 58.8476 8.44368 58.8904 8.40094C58.9331 8.3582 58.985 8.33683 59.0461 8.33683H61.5007C61.9769 8.33683 62.3921 8.41316 62.7463 8.5658C63.1004 8.71235 63.3752 8.93826 63.5706 9.24356C63.766 9.54275 63.8637 9.91826 63.8637 10.3701C63.8637 10.828 63.766 11.2066 63.5706 11.5058C63.3752 11.7989 63.1004 12.0187 62.7463 12.1652C62.3921 12.3118 61.9769 12.3851 61.5007 12.3851H60.136V14.5282C60.136 14.5893 60.1146 14.6412 60.0719 14.6839C60.0352 14.7267 59.9833 14.748 59.9162 14.748H59.0461ZM60.1177 11.3684H61.4549C61.809 11.3684 62.0807 11.286 62.27 11.1211C62.4593 10.9502 62.5539 10.6998 62.5539 10.3701C62.5539 10.0648 62.4654 9.82057 62.2883 9.63739C62.1113 9.44811 61.8334 9.35347 61.4549 9.35347H60.1177V11.3684ZM65.1567 14.748C65.0956 14.748 65.0437 14.7267 65.001 14.6839C64.9583 14.6412 64.9369 14.5893 64.9369 14.5282V10.2144C64.9369 10.1472 64.9583 10.0923 65.001 10.0495C65.0437 10.0068 65.0956 9.98543 65.1567 9.98543H65.8986C65.9596 9.98543 66.0115 10.0068 66.0543 10.0495C66.1031 10.0923 66.1275 10.1472 66.1275 10.2144V10.5899C66.268 10.3945 66.4481 10.2449 66.6679 10.1411C66.8938 10.0373 67.1533 9.98543 67.4464 9.98543H67.8219C67.8891 9.98543 67.941 10.0068 67.9776 10.0495C68.0204 10.0923 68.0417 10.1442 68.0417 10.2052V10.8647C68.0417 10.9257 68.0204 10.9776 67.9776 11.0204C67.941 11.0631 67.8891 11.0845 67.8219 11.0845H67.1075C66.8145 11.0845 66.5855 11.1669 66.4206 11.3318C66.2619 11.4966 66.1825 11.7226 66.1825 12.0095V14.5282C66.1825 14.5893 66.1611 14.6412 66.1184 14.6839C66.0756 14.7267 66.0207 14.748 65.9535 14.748H65.1567ZM70.9282 14.8396C70.2505 14.8396 69.7131 14.6442 69.3163 14.2535C68.9194 13.8627 68.7057 13.307 68.6751 12.5866C68.669 12.5255 68.666 12.4492 68.666 12.3576C68.666 12.2599 68.669 12.1836 68.6751 12.1286C68.6996 11.6707 68.8034 11.2738 68.9865 10.938C69.1758 10.6021 69.4353 10.3457 69.765 10.1686C70.0948 9.98543 70.4825 9.89384 70.9282 9.89384C71.4228 9.89384 71.838 9.99764 72.1738 10.2052C72.5097 10.4067 72.7631 10.6907 72.934 11.057C73.105 11.4173 73.1905 11.8355 73.1905 12.3118V12.5041C73.1905 12.5652 73.1691 12.6171 73.1264 12.6598C73.0836 12.7026 73.0287 12.7239 72.9615 12.7239H69.9207C69.9207 12.7239 69.9207 12.7331 69.9207 12.7514C69.9207 12.7697 69.9207 12.785 69.9207 12.7972C69.9269 13.0109 69.9665 13.2094 70.0398 13.3925C70.1192 13.5696 70.2321 13.7131 70.3787 13.823C70.5313 13.9329 70.7115 13.9879 70.9191 13.9879C71.09 13.9879 71.2335 13.9634 71.3495 13.9146C71.4655 13.8596 71.5602 13.7986 71.6335 13.7314C71.7067 13.6642 71.7586 13.6093 71.7892 13.5666C71.8441 13.4933 71.8869 13.4505 71.9174 13.4383C71.954 13.42 72.0059 13.4109 72.0731 13.4109H72.8607C72.9218 13.4109 72.9707 13.4292 73.0073 13.4658C73.05 13.5024 73.0683 13.5482 73.0622 13.6032C73.0561 13.7009 73.0042 13.8199 72.9065 13.9604C72.815 14.1008 72.6806 14.2382 72.5036 14.3725C72.3265 14.5069 72.1036 14.6198 71.835 14.7114C71.5724 14.7969 71.2702 14.8396 70.9282 14.8396ZM69.9207 11.9546H71.9449V11.9271C71.9449 11.689 71.9052 11.4814 71.8258 11.3043C71.7464 11.1272 71.6304 10.9868 71.4778 10.883C71.3251 10.7792 71.1419 10.7273 70.9282 10.7273C70.7145 10.7273 70.5313 10.7792 70.3787 10.883C70.226 10.9868 70.11 11.1272 70.0307 11.3043C69.9574 11.4814 69.9207 11.689 69.9207 11.9271V11.9546ZM74.5748 16.4882C74.5138 16.4882 74.4619 16.4669 74.4191 16.4241C74.3764 16.3814 74.355 16.3295 74.355 16.2684V10.2052C74.355 10.1442 74.3764 10.0923 74.4191 10.0495C74.4619 10.0068 74.5138 9.98543 74.5748 9.98543H75.2984C75.3655 9.98543 75.4174 10.0068 75.4541 10.0495C75.4968 10.0923 75.5182 10.1442 75.5182 10.2052V10.5716C75.6647 10.3762 75.8571 10.2144 76.0952 10.0862C76.3333 9.95795 76.6295 9.89384 76.9836 9.89384C77.3072 9.89384 77.5881 9.94574 77.8262 10.0495C78.0643 10.1533 78.2628 10.3029 78.4215 10.4983C78.5803 10.6876 78.7024 10.9135 78.7879 11.1761C78.8734 11.4386 78.9222 11.7287 78.9344 12.0462C78.9405 12.15 78.9436 12.2568 78.9436 12.3667C78.9436 12.4766 78.9405 12.5866 78.9344 12.6965C78.9283 13.0018 78.8825 13.2857 78.7971 13.5482C78.7116 13.8047 78.5864 14.0306 78.4215 14.226C78.2628 14.4153 78.0643 14.5649 77.8262 14.6748C77.5881 14.7847 77.3072 14.8396 76.9836 14.8396C76.6539 14.8396 76.373 14.7816 76.141 14.6656C75.909 14.5435 75.7197 14.3847 75.5731 14.1894V16.2684C75.5731 16.3295 75.5518 16.3814 75.509 16.4241C75.4724 16.4669 75.4205 16.4882 75.3533 16.4882H74.5748ZM76.6447 13.8596C76.9073 13.8596 77.1118 13.8047 77.2584 13.6948C77.4049 13.5788 77.5087 13.4292 77.5698 13.246C77.6369 13.0628 77.6766 12.8613 77.6888 12.6415C77.701 12.4583 77.701 12.2751 77.6888 12.092C77.6766 11.8722 77.6369 11.6707 77.5698 11.4875C77.5087 11.3043 77.4049 11.1578 77.2584 11.0479C77.1118 10.9318 76.9073 10.8738 76.6447 10.8738C76.3944 10.8738 76.1898 10.9318 76.0311 11.0479C75.8784 11.1639 75.7655 11.3135 75.6922 11.4966C75.625 11.6737 75.5853 11.8569 75.5731 12.0462C75.567 12.1561 75.564 12.2721 75.564 12.3942C75.564 12.5163 75.567 12.6354 75.5731 12.7514C75.5792 12.9346 75.622 13.1117 75.7014 13.2826C75.7807 13.4475 75.8967 13.5849 76.0494 13.6948C76.202 13.8047 76.4005 13.8596 76.6447 13.8596ZM81.5379 14.8396C81.2204 14.8396 80.9334 14.7786 80.677 14.6565C80.4205 14.5282 80.216 14.3603 80.0633 14.1527C79.9168 13.939 79.8435 13.7009 79.8435 13.4383C79.8435 13.0109 80.0145 12.672 80.3564 12.4217C80.7045 12.1652 81.1624 11.9943 81.7303 11.9088L82.985 11.7256V11.5333C82.985 11.2768 82.9209 11.0784 82.7927 10.938C82.6645 10.7975 82.4447 10.7273 82.1333 10.7273C81.9134 10.7273 81.7333 10.7731 81.5929 10.8647C81.4585 10.9502 81.3578 11.0662 81.2906 11.2127C81.2418 11.2921 81.1716 11.3318 81.08 11.3318H80.3564C80.2893 11.3318 80.2374 11.3135 80.2007 11.2768C80.1702 11.2402 80.1549 11.1913 80.1549 11.1303C80.161 11.0326 80.2007 10.9135 80.274 10.7731C80.3473 10.6327 80.4633 10.4983 80.622 10.3701C80.7808 10.2358 80.9853 10.1228 81.2357 10.0312C81.486 9.93963 81.7883 9.89384 82.1424 9.89384C82.5271 9.89384 82.8507 9.94269 83.1133 10.0404C83.3819 10.132 83.5956 10.2571 83.7544 10.4159C83.9131 10.5747 84.0291 10.7609 84.1024 10.9746C84.1757 11.1883 84.2123 11.4142 84.2123 11.6523V14.5282C84.2123 14.5893 84.1909 14.6412 84.1482 14.6839C84.1055 14.7267 84.0536 14.748 83.9925 14.748H83.2506C83.1835 14.748 83.1285 14.7267 83.0858 14.6839C83.0491 14.6412 83.0308 14.5893 83.0308 14.5282V14.171C82.9514 14.287 82.8446 14.397 82.7103 14.5008C82.5759 14.5985 82.4111 14.6809 82.2157 14.748C82.0264 14.8091 81.8005 14.8396 81.5379 14.8396ZM81.8493 13.9695C82.063 13.9695 82.2554 13.9237 82.4263 13.8322C82.6034 13.7406 82.7408 13.6001 82.8385 13.4109C82.9423 13.2155 82.9942 12.9712 82.9942 12.6781V12.4858L82.0783 12.6323C81.7181 12.6873 81.4494 12.7758 81.2723 12.898C81.0952 13.0201 81.0067 13.1697 81.0067 13.3467C81.0067 13.4811 81.0464 13.5971 81.1258 13.6948C81.2113 13.7864 81.3181 13.8566 81.4463 13.9054C81.5746 13.9482 81.7089 13.9695 81.8493 13.9695ZM85.7903 14.748C85.7292 14.748 85.6773 14.7267 85.6346 14.6839C85.5919 14.6412 85.5705 14.5893 85.5705 14.5282V10.2052C85.5705 10.1442 85.5919 10.0923 85.6346 10.0495C85.6773 10.0068 85.7292 9.98543 85.7903 9.98543H86.5505C86.6176 9.98543 86.6695 10.0068 86.7062 10.0495C86.7489 10.0923 86.7703 10.1442 86.7703 10.2052V14.5282C86.7703 14.5893 86.7489 14.6412 86.7062 14.6839C86.6695 14.7267 86.6176 14.748 86.5505 14.748H85.7903ZM85.7537 9.19777C85.6865 9.19777 85.6315 9.17945 85.5888 9.14281C85.5522 9.10007 85.5338 9.04512 85.5338 8.97795V8.31851C85.5338 8.25745 85.5522 8.20555 85.5888 8.16281C85.6315 8.12007 85.6865 8.0987 85.7537 8.0987H86.5871C86.6543 8.0987 86.7092 8.12007 86.752 8.16281C86.7947 8.20555 86.8161 8.25745 86.8161 8.31851V8.97795C86.8161 9.04512 86.7947 9.10007 86.752 9.14281C86.7092 9.17945 86.6543 9.19777 86.5871 9.19777H85.7537ZM89.9363 14.8396C89.6188 14.8396 89.3379 14.7877 89.0936 14.6839C88.8555 14.574 88.6571 14.4214 88.4983 14.226C88.3396 14.0306 88.2174 13.8016 88.132 13.5391C88.0465 13.2704 87.9976 12.9773 87.9854 12.6598C87.9793 12.5499 87.9763 12.4522 87.9763 12.3667C87.9763 12.2751 87.9793 12.1744 87.9854 12.0645C87.9976 11.7592 88.0434 11.4753 88.1228 11.2127C88.2083 10.9502 88.3304 10.7212 88.4892 10.5258C88.654 10.3243 88.8555 10.1686 89.0936 10.0587C89.3379 9.94879 89.6188 9.89384 89.9363 9.89384C90.266 9.89384 90.5438 9.95185 90.7697 10.0679C91.0017 10.1778 91.1941 10.3213 91.3467 10.4983V8.46506C91.3467 8.404 91.365 8.3521 91.4017 8.30935C91.4444 8.26661 91.4994 8.24524 91.5665 8.24524H92.345C92.4061 8.24524 92.458 8.26661 92.5007 8.30935C92.5435 8.3521 92.5649 8.404 92.5649 8.46506V14.5282C92.5649 14.5893 92.5435 14.6412 92.5007 14.6839C92.458 14.7267 92.4061 14.748 92.345 14.748H91.6215C91.5543 14.748 91.4994 14.7267 91.4566 14.6839C91.42 14.6412 91.4017 14.5893 91.4017 14.5282V14.1894C91.249 14.3786 91.0536 14.5343 90.8155 14.6565C90.5835 14.7786 90.2904 14.8396 89.9363 14.8396ZM90.2751 13.8596C90.5316 13.8596 90.7361 13.8016 90.8888 13.6856C91.0414 13.5696 91.1544 13.4231 91.2277 13.246C91.3009 13.0628 91.3406 12.8766 91.3467 12.6873C91.3528 12.5774 91.3559 12.4614 91.3559 12.3393C91.3559 12.211 91.3528 12.092 91.3467 11.9821C91.3406 11.7989 91.2979 11.6249 91.2185 11.46C91.1391 11.289 91.0231 11.1486 90.8705 11.0387C90.7178 10.9288 90.5194 10.8738 90.2751 10.8738C90.0187 10.8738 89.8141 10.9318 89.6615 11.0479C89.515 11.1578 89.4081 11.3043 89.3409 11.4875C89.2738 11.6707 89.2341 11.8722 89.2219 12.092C89.2158 12.2751 89.2158 12.4583 89.2219 12.6415C89.2341 12.8613 89.2738 13.0628 89.3409 13.246C89.4081 13.4292 89.515 13.5788 89.6615 13.6948C89.8141 13.8047 90.0187 13.8596 90.2751 13.8596Z" fill="#F7F7FA"/>
<path opacity="0.83" fill-rule="evenodd" clip-rule="evenodd" d="M89.9427 40.0774C89.9427 48.5068 83.0684 55.3403 74.5885 55.3403C66.1087 55.3403 59.2344 48.5068 59.2344 40.0774C59.2344 31.6479 66.1087 24.8145 74.5885 24.8145C83.0684 24.8145 89.9427 31.6479 89.9427 40.0774ZM79.2801 31.6573L80.9666 35.0547C81.341 35.8059 82.0624 36.3283 82.8936 36.4478L86.6652 36.9942C87.5411 37.1205 87.888 38.1892 87.256 38.8004L84.5287 41.4433C83.9241 42.0272 83.6493 42.8706 83.7936 43.6969L84.4393 47.4289C84.587 48.2962 83.6734 48.9552 82.8936 48.5455L79.5205 46.7836C78.7751 46.3943 77.8821 46.3943 77.1367 46.7836L73.7636 48.5455C72.9804 48.9552 72.0667 48.2928 72.2178 47.4289L72.8636 43.6969C73.0045 42.8706 72.7297 42.0272 72.1285 41.4433L69.4012 38.8004C68.7692 38.1858 69.1161 37.1205 69.992 36.9942L73.7636 36.4478C74.5983 36.3283 75.3196 35.8059 75.6906 35.0547L77.3771 31.6573C77.7584 30.8719 78.8885 30.8719 79.2801 31.6573Z" fill="white"/>
<path opacity="0.79" fill-rule="evenodd" clip-rule="evenodd" d="M83.5558 48.6568C80.7926 52.691 76.1351 55.3403 70.8551 55.3403C62.3753 55.3403 55.501 48.5068 55.501 40.0774C55.501 31.6479 62.3753 24.8145 70.8551 24.8145C78.2315 24.8145 84.393 29.9852 85.8717 36.8793L82.8932 36.4478C82.062 36.3283 81.3406 35.8059 80.9662 35.0547L79.2797 31.6573C78.8881 30.8719 77.758 30.8719 77.3767 31.6573L75.6902 35.0547C75.3192 35.8059 74.5978 36.3283 73.7632 36.4478L69.9916 36.9942C69.1157 37.1205 68.7688 38.1858 69.4008 38.8004L72.1281 41.4433C72.7292 42.0272 73.004 42.8706 72.8632 43.6969L72.2174 47.4289C72.0663 48.2928 72.98 48.9552 73.7632 48.5455L77.1363 46.7836C77.8816 46.3943 78.7747 46.3943 79.5201 46.7836L82.8932 48.5455C83.1123 48.6606 83.342 48.6914 83.5558 48.6568ZM84.4089 47.2552C85.5579 45.1157 86.2093 42.6721 86.2093 40.0774C86.2093 39.9902 86.2086 39.9032 86.2071 39.8164L84.5282 41.4433C83.9237 42.0272 83.6489 42.8706 83.7932 43.6969L84.4089 47.2552Z" fill="white"/>
<path opacity="0.75" fill-rule="evenodd" clip-rule="evenodd" d="M80.6197 47.3581C78.0187 52.1129 72.9494 55.3403 67.1217 55.3403C58.6419 55.3403 51.7676 48.5068 51.7676 40.0774C51.7676 31.6479 58.6419 24.8145 67.1217 24.8145C74.2235 24.8145 80.1991 29.6073 81.9538 36.1166C81.5349 35.8683 81.1889 35.5021 80.9659 35.0547L79.2794 31.6573C78.8878 30.8719 77.7577 30.8719 77.3764 31.6573L75.6898 35.0547C75.3189 35.8059 74.5975 36.3283 73.7628 36.4478L69.9913 36.9942C69.1154 37.1205 68.7685 38.1858 69.4005 38.8004L72.1278 41.4433C72.7289 42.0272 73.0037 42.8706 72.8629 43.6969L72.2171 47.4289C72.066 48.2928 72.9797 48.9552 73.7628 48.5455L77.136 46.7836C77.8813 46.3943 78.7744 46.3943 79.5198 46.7836L80.6197 47.3581Z" fill="white"/>
<path opacity="0.69" fill-rule="evenodd" clip-rule="evenodd" d="M77.202 46.7506C74.7111 51.8359 69.4619 55.3403 63.3893 55.3403C54.9094 55.3403 48.0352 48.5068 48.0352 40.0774C48.0352 31.6479 54.9094 24.8145 63.3893 24.8145C69.1873 24.8145 74.2347 28.0091 76.8474 32.7242L75.6905 35.0547C75.3195 35.8059 74.5982 36.3283 73.7635 36.4478L69.992 36.9942C69.1161 37.1205 68.7691 38.1858 69.4012 38.8004L72.1285 41.4433C72.7296 42.0272 73.0044 42.8706 72.8636 43.6969L72.2178 47.4289C72.0667 48.2928 72.9804 48.9552 73.7635 48.5455L77.1366 46.7836C77.1583 46.7723 77.1801 46.7613 77.202 46.7506Z" fill="white"/>
<path opacity="0.65" fill-rule="evenodd" clip-rule="evenodd" d="M72.5399 48.3829C69.8023 52.5707 65.0545 55.3403 59.6559 55.3403C51.176 55.3403 44.3018 48.5068 44.3018 40.0774C44.3018 31.6479 51.176 24.8145 59.6559 24.8145C66.7946 24.8145 72.7955 29.6573 74.5151 36.2184C74.2809 36.3316 74.0277 36.41 73.7632 36.4478L69.9917 36.9942C69.1157 37.1205 68.7688 38.1858 69.4008 38.8004L72.1282 41.4433C72.7293 42.0272 73.0041 42.8706 72.8633 43.6969L72.2175 47.4289C72.1505 47.8118 72.2926 48.155 72.5399 48.3829Z" fill="white"/>
<path opacity="0.64" fill-rule="evenodd" clip-rule="evenodd" d="M71.2675 40.6096C70.9854 48.7926 64.2232 55.3403 55.9225 55.3403C47.4426 55.3403 40.5684 48.5068 40.5684 40.0774C40.5684 31.6479 47.4426 24.8145 55.9225 24.8145C63.2912 24.8145 69.4475 29.9743 70.9344 36.8576L69.9913 36.9942C69.1154 37.1205 68.7685 38.1858 69.4005 38.8004L71.2675 40.6096Z" fill="white"/>
<path opacity="0.52" d="M52.1891 55.3403C60.669 55.3403 67.5433 48.5068 67.5433 40.0774C67.5433 31.6479 60.669 24.8145 52.1891 24.8145C43.7093 24.8145 36.835 31.6479 36.835 40.0774C36.835 48.5068 43.7093 55.3403 52.1891 55.3403Z" fill="white"/>
<path opacity="0.52" d="M48.4557 55.3403C56.9356 55.3403 63.8099 48.5068 63.8099 40.0774C63.8099 31.6479 56.9356 24.8145 48.4557 24.8145C39.9759 24.8145 33.1016 31.6479 33.1016 40.0774C33.1016 48.5068 39.9759 55.3403 48.4557 55.3403Z" fill="white"/>
<path opacity="0.5" d="M44.7233 55.3403C53.2032 55.3403 60.0775 48.5068 60.0775 40.0774C60.0775 31.6479 53.2032 24.8145 44.7233 24.8145C36.2434 24.8145 29.3691 31.6479 29.3691 40.0774C29.3691 48.5068 36.2434 55.3403 44.7233 55.3403Z" fill="white"/>
<path opacity="0.49" d="M40.9899 55.3403C49.4698 55.3403 56.3441 48.5068 56.3441 40.0774C56.3441 31.6479 49.4698 24.8145 40.9899 24.8145C32.51 24.8145 25.6357 31.6479 25.6357 40.0774C25.6357 48.5068 32.51 55.3403 40.9899 55.3403Z" fill="white"/>
<path opacity="0.44" d="M37.2565 55.3403C45.7364 55.3403 52.6107 48.5068 52.6107 40.0774C52.6107 31.6479 45.7364 24.8145 37.2565 24.8145C28.7766 24.8145 21.9023 31.6479 21.9023 40.0774C21.9023 48.5068 28.7766 55.3403 37.2565 55.3403Z" fill="white"/>
<path opacity="0.4" d="M33.5241 55.3403C42.0039 55.3403 48.8782 48.5068 48.8782 40.0774C48.8782 31.6479 42.0039 24.8145 33.5241 24.8145C25.0442 24.8145 18.1699 31.6479 18.1699 40.0774C18.1699 48.5068 25.0442 55.3403 33.5241 55.3403Z" fill="white"/>
<path opacity="0.29" d="M29.7917 55.3403C38.2715 55.3403 45.1458 48.5068 45.1458 40.0774C45.1458 31.6479 38.2715 24.8145 29.7917 24.8145C21.3118 24.8145 14.4375 31.6479 14.4375 40.0774C14.4375 48.5068 21.3118 55.3403 29.7917 55.3403Z" fill="white"/>
<path opacity="0.27" d="M26.0583 55.3403C34.5381 55.3403 41.4124 48.5068 41.4124 40.0774C41.4124 31.6479 34.5381 24.8145 26.0583 24.8145C17.5784 24.8145 10.7041 31.6479 10.7041 40.0774C10.7041 48.5068 17.5784 55.3403 26.0583 55.3403Z" fill="white"/>
<path opacity="0.25" d="M22.3258 55.3403C30.8057 55.3403 37.68 48.5068 37.68 40.0774C37.68 31.6479 30.8057 24.8145 22.3258 24.8145C13.846 24.8145 6.97168 31.6479 6.97168 40.0774C6.97168 48.5068 13.846 55.3403 22.3258 55.3403Z" fill="white"/>
<path opacity="0.25" d="M18.5924 55.3403C27.0723 55.3403 33.9466 48.5068 33.9466 40.0774C33.9466 31.6479 27.0723 24.8145 18.5924 24.8145C10.1126 24.8145 3.23828 31.6479 3.23828 40.0774C3.23828 48.5068 10.1126 55.3403 18.5924 55.3403Z" fill="white"/>
<path opacity="0.22" d="M14.859 55.3403C23.3389 55.3403 30.2132 48.5068 30.2132 40.0774C30.2132 31.6479 23.3389 24.8145 14.859 24.8145C6.37917 24.8145 -0.495117 31.6479 -0.495117 40.0774C-0.495117 48.5068 6.37917 55.3403 14.859 55.3403Z" fill="white"/>
<path opacity="0.14" d="M11.1256 55.3403C19.6055 55.3403 26.4798 48.5068 26.4798 40.0774C26.4798 31.6479 19.6055 24.8145 11.1256 24.8145C2.64577 24.8145 -4.22852 31.6479 -4.22852 40.0774C-4.22852 48.5068 2.64577 55.3403 11.1256 55.3403Z" fill="white"/>
<path opacity="0.06" d="M7.39322 55.3403C15.8731 55.3403 22.7474 48.5068 22.7474 40.0774C22.7474 31.6479 15.8731 24.8145 7.39322 24.8145C-1.08665 24.8145 -7.96094 31.6479 -7.96094 40.0774C-7.96094 48.5068 -1.08665 55.3403 7.39322 55.3403Z" fill="white"/>
<path opacity="0.03" d="M3.65982 55.3403C12.1397 55.3403 19.014 48.5068 19.014 40.0774C19.014 31.6479 12.1397 24.8145 3.65982 24.8145C-4.82005 24.8145 -11.6943 31.6479 -11.6943 40.0774C-11.6943 48.5068 -4.82005 55.3403 3.65982 55.3403Z" fill="white"/>
<path opacity="0.95" fill-rule="evenodd" clip-rule="evenodd" d="M93.6751 40.0774C93.6751 48.5068 86.8008 55.3403 78.321 55.3403C69.8411 55.3403 62.9668 48.5068 62.9668 40.0774C62.9668 31.6479 69.8411 24.8145 78.321 24.8145C86.8008 24.8145 93.6751 31.6479 93.6751 40.0774ZM80.9659 35.0546L79.2793 31.6572C78.8878 30.8718 77.7577 30.8718 77.3764 31.6572L75.6898 35.0546C75.3189 35.8058 74.5975 36.3283 73.7628 36.4478L69.9913 36.9941C69.1154 37.1204 68.7685 38.1858 69.4005 38.8004L72.1278 41.4432C72.7289 42.0271 73.0037 42.8705 72.8629 43.6968L72.2171 47.4289C72.066 48.2927 72.9797 48.9552 73.7628 48.5454L77.136 46.7835C77.8813 46.3943 78.7744 46.3943 79.5198 46.7835L82.8929 48.5454C83.6726 48.9552 84.5863 48.2962 84.4386 47.4289L83.7929 43.6968C83.6486 42.8705 83.9234 42.0271 84.5279 41.4432L87.2553 38.8004C87.8873 38.1892 87.5404 37.1204 86.6645 36.9941L82.8929 36.4478C82.0616 36.3283 81.3403 35.8058 80.9659 35.0546Z" fill="white"/>
<g clip-path="url(#clip1_6215_95605)">
<path d="M31.7695 7.63563V8.82293H31.5363C29.9493 8.82293 28.3497 10.0235 28.3497 12.716V16.2117H27.2979V7.76099H28.3497V9.56588C29.0929 8.31845 30.3267 7.58875 31.6176 7.6285L31.7695 7.63563Z" fill="white"/>
<path d="M36.1076 7.57227C33.968 7.57227 32.2949 9.50251 32.2949 11.9688V12.0014C32.2949 14.5065 33.9864 16.398 36.2305 16.398C37.9287 16.398 38.8848 15.5582 39.5351 14.8224L39.6454 14.693L38.8974 13.9959L38.7871 14.1182C38.0516 14.9508 37.2484 15.3381 36.2556 15.3381C34.748 15.3381 33.5955 14.1691 33.4116 12.4713H39.775L39.7934 12.3225C39.806 12.1869 39.806 12.1349 39.806 11.9872C39.8041 9.38633 38.2839 7.57227 36.1076 7.57227ZM33.4097 11.4389C33.6061 9.79297 34.7035 8.6179 36.0824 8.6179C37.7865 8.6179 38.5345 10.0967 38.6758 11.4389H33.4097Z" fill="white"/>
<path d="M16.6081 11.1175V16.2142H15.5543V11.2113C15.5543 9.55721 14.7782 8.60635 13.4215 8.60635C12.3242 8.60635 11.1436 9.4502 11.1436 11.3111V16.2142H10.0849V11.1644C10.0849 9.68256 9.37855 8.73273 8.22991 8.6196C8.17379 8.60635 8.1167 8.60635 8.0596 8.60635H7.98993C6.67776 8.63897 5.92685 9.58371 5.92685 11.2113V16.2142H4.87305V11.1175C4.87305 8.95184 6.09716 7.55664 7.9967 7.55664C8.02767 7.55664 8.0596 7.55664 8.09154 7.56377C8.77955 7.57702 9.37951 7.77576 9.88948 8.16201C9.96593 8.215 10.0346 8.27411 10.1043 8.34138C10.3762 8.60126 10.5717 8.88662 10.7101 9.13936C10.7226 9.12611 10.7294 9.10573 10.742 9.09248C11.4029 8.07436 12.3251 7.55664 13.4854 7.55664C15.3849 7.55664 16.6081 8.95184 16.6081 11.1175Z" fill="white"/>
<path d="M21.8704 7.40234C19.4812 7.40234 17.5449 9.44164 17.5449 11.9579C17.5449 14.4731 19.4812 16.5134 21.8704 16.5134C24.2587 16.5134 26.1959 14.4731 26.1959 11.9579C26.1959 9.44164 24.2587 7.40234 21.8704 7.40234ZM24.3864 11.5767L23.6181 12.3655C23.4477 12.5398 23.3703 12.7915 23.411 13.0382L23.5919 14.1531C23.6345 14.411 23.3761 14.6087 23.1565 14.4864L22.2062 13.9605C21.9962 13.8433 21.7446 13.8433 21.5346 13.9605L20.5844 14.4864C20.3638 14.6087 20.1064 14.411 20.148 14.1531L20.3299 13.0382C20.3696 12.7915 20.2922 12.5398 20.1218 12.3655L19.3535 11.5767C19.1755 11.3933 19.2732 11.0743 19.5199 11.0366L20.5825 10.8745C20.8176 10.8379 21.0208 10.6829 21.1253 10.4587L21.6005 9.4447C21.7108 9.20928 22.0291 9.20928 22.1394 9.4447L22.6146 10.4587C22.7201 10.6829 22.9233 10.8379 23.1584 10.8745L24.2199 11.0366C24.4667 11.0743 24.5654 11.3933 24.3864 11.5767Z" fill="white"/>
</g>
</g>
<defs>
<clipPath id="clip0_6215_95605">
<path d="M0 7.46C0 3.33995 3.33996 0 7.46 0H90.54C94.66 0 98 3.33996 98 7.46V57.568C98 61.6881 94.6601 65.028 90.54 65.028H7.46C3.33996 65.028 0 61.6881 0 57.568V7.46Z" fill="white"/>
</clipPath>
<clipPath id="clip1_6215_95605">
<rect width="34.9312" height="9.11109" fill="white" transform="translate(4.87402 7.40234)"/>
</clipPath>
</defs>
</svg>
