<svg width="32" height="32" viewBox="0 0 32 32" fill="none" xmlns="http://www.w3.org/2000/svg">
<path d="M26 4H11C10.379 4 9.76657 4.14458 9.21115 4.42229C8.65572 4.7 8.17259 5.10322 7.8 5.6L1.8 13.6C1.28071 14.2924 1 15.1345 1 16C1 16.8655 1.28071 17.7076 1.8 18.4L7.8 26.4C8.17259 26.8968 8.65572 27.3 9.21115 27.5777C9.76657 27.8554 10.379 28 11 28H26C27.0609 28 28.0783 27.5786 28.8284 26.8284C29.5786 26.0783 30 25.0609 30 24V8C30 6.93913 29.5786 5.92172 28.8284 5.17157C28.0783 4.42143 27.0609 4 26 4ZM22.44 20.68C22.0258 21.0928 21.4648 21.3246 20.88 21.3246C20.2952 21.3246 19.7342 21.0928 19.32 20.68L17.76 19.12L16.2 20.68C15.7858 21.0928 15.2248 21.3246 14.64 21.3246C14.0552 21.3246 13.4942 21.0928 13.08 20.68C12.6672 20.2658 12.4354 19.7048 12.4354 19.12C12.4354 18.5352 12.6672 17.9742 13.08 17.56L14.64 16L13.08 14.44C12.6672 14.0258 12.4354 13.4648 12.4354 12.88C12.4354 12.2952 12.6672 11.7342 13.08 11.32C13.4942 10.9072 14.0552 10.6754 14.64 10.6754C15.2248 10.6754 15.7858 10.9072 16.2 11.32L17.76 12.88L19.32 11.32C19.7342 10.9072 20.2952 10.6754 20.88 10.6754C21.4648 10.6754 22.0258 10.9072 22.44 11.32C22.8528 11.7342 23.0846 12.2952 23.0846 12.88C23.0846 13.4648 22.8528 14.0258 22.44 14.44L20.88 16L22.44 17.56C22.8528 17.9742 23.0846 18.5352 23.0846 19.12C23.0846 19.7048 22.8528 20.2658 22.44 20.68Z" fill="#FF7F32"/>
</svg>
