<svg width="375" height="312" viewBox="0 0 375 312" fill="none" xmlns="http://www.w3.org/2000/svg">
<g clip-path="url(#clip0_5203_113933)">
<g filter="url(#filter0_ddddddi_5203_113933)">
<rect x="27.1654" y="49.0157" width="320.669" height="213.78" rx="22.3209" fill="#6464F4"/>
</g>
<mask id="mask0_5203_113933" style="mask-type:alpha" maskUnits="userSpaceOnUse" x="27" y="49" width="321" height="214">
<rect x="27.1654" y="49.0157" width="320.669" height="213.78" fill="url(#paint0_linear_5203_113933)"/>
</mask>
<g mask="url(#mask0_5203_113933)">
<path d="M279.751 92.3702C278.286 92.3702 277.041 92.118 276.017 91.6138C275.008 91.0938 274.236 90.3611 273.7 89.4156C273.165 88.4544 272.865 87.3041 272.802 85.9647C272.786 85.3186 272.779 84.6253 272.779 83.8847C272.779 83.1441 272.786 82.435 272.802 81.7574C272.865 80.4338 273.165 79.2914 273.7 78.3302C274.252 77.3689 275.032 76.6362 276.04 76.132C277.065 75.612 278.302 75.352 279.751 75.352C280.823 75.352 281.784 75.4938 282.635 75.7774C283.486 76.0611 284.211 76.455 284.809 76.9592C285.408 77.4477 285.873 78.0229 286.204 78.6847C286.535 79.3465 286.708 80.0635 286.724 80.8356C286.74 80.9774 286.692 81.0956 286.582 81.1902C286.488 81.2847 286.369 81.332 286.228 81.332H283.982C283.809 81.332 283.667 81.2926 283.557 81.2138C283.446 81.1192 283.368 80.9695 283.32 80.7647C283.068 79.7247 282.635 79.0156 282.02 78.6374C281.406 78.2592 280.642 78.0702 279.728 78.0702C278.672 78.0702 277.829 78.3695 277.199 78.9683C276.568 79.5514 276.229 80.5205 276.182 81.8756C276.135 83.1677 276.135 84.4914 276.182 85.8465C276.229 87.2017 276.568 88.1786 277.199 88.7774C277.829 89.3605 278.672 89.652 279.728 89.652C280.642 89.652 281.406 89.4629 282.02 89.0847C282.635 88.6908 283.068 87.9817 283.32 86.9574C283.368 86.7368 283.446 86.5871 283.557 86.5083C283.667 86.4295 283.809 86.3902 283.982 86.3902H286.228C286.369 86.3902 286.488 86.4374 286.582 86.532C286.692 86.6265 286.74 86.7447 286.724 86.8865C286.708 87.6586 286.535 88.3756 286.204 89.0374C285.873 89.6992 285.408 90.2823 284.809 90.7865C284.211 91.275 283.486 91.6611 282.635 91.9447C281.784 92.2283 280.823 92.3702 279.751 92.3702ZM290.567 92.1338C290.41 92.1338 290.276 92.0786 290.165 91.9683C290.055 91.858 290 91.7241 290 91.5665V76.1792C290 76.0059 290.055 75.8641 290.165 75.7538C290.276 75.6435 290.41 75.5883 290.567 75.5883H296.902C298.131 75.5883 299.202 75.7853 300.116 76.1792C301.03 76.5574 301.739 77.1405 302.243 77.9283C302.748 78.7005 303 79.6695 303 80.8356C303 82.0174 302.748 82.9944 302.243 83.7665C301.739 84.5229 301.03 85.0902 300.116 85.4683C299.202 85.8465 298.131 86.0356 296.902 86.0356H293.38V91.5665C293.38 91.7241 293.325 91.858 293.214 91.9683C293.12 92.0786 292.986 92.1338 292.813 92.1338H290.567ZM293.333 83.412H296.783C297.697 83.412 298.399 83.1992 298.887 82.7738C299.376 82.3326 299.62 81.6865 299.62 80.8356C299.62 80.0477 299.391 79.4174 298.934 78.9447C298.477 78.4562 297.76 78.212 296.783 78.212H293.333V83.412ZM309.085 92.3702C308.265 92.3702 307.525 92.2126 306.863 91.8974C306.201 91.5665 305.673 91.1332 305.279 90.5974C304.901 90.0459 304.712 89.4314 304.712 88.7538C304.712 87.6508 305.153 86.7762 306.036 86.1302C306.934 85.4683 308.116 85.0271 309.581 84.8065L312.819 84.3338V83.8374C312.819 83.1756 312.654 82.6635 312.323 82.3011C311.992 81.9386 311.425 81.7574 310.621 81.7574C310.054 81.7574 309.589 81.8756 309.227 82.112C308.88 82.3326 308.62 82.632 308.447 83.0102C308.32 83.215 308.139 83.3174 307.903 83.3174H306.036C305.862 83.3174 305.728 83.2702 305.634 83.1756C305.555 83.0811 305.516 82.955 305.516 82.7974C305.531 82.5453 305.634 82.238 305.823 81.8756C306.012 81.5132 306.311 81.1665 306.721 80.8356C307.131 80.4889 307.659 80.1974 308.305 79.9611C308.951 79.7247 309.731 79.6065 310.645 79.6065C311.637 79.6065 312.473 79.7326 313.15 79.9847C313.844 80.2211 314.395 80.5441 314.805 80.9538C315.214 81.3635 315.514 81.8441 315.703 82.3956C315.892 82.9471 315.987 83.5302 315.987 84.1447V91.5665C315.987 91.7241 315.931 91.858 315.821 91.9683C315.711 92.0786 315.577 92.1338 315.419 92.1338H313.505C313.331 92.1338 313.19 92.0786 313.079 91.9683C312.985 91.858 312.937 91.7241 312.937 91.5665V90.6447C312.733 90.9441 312.457 91.2277 312.11 91.4956C311.764 91.7477 311.338 91.9605 310.834 92.1338C310.345 92.2914 309.762 92.3702 309.085 92.3702ZM309.888 90.1247C310.44 90.1247 310.936 90.0065 311.377 89.7702C311.834 89.5338 312.189 89.1714 312.441 88.6829C312.709 88.1786 312.843 87.5483 312.843 86.792V86.2956L310.479 86.6738C309.55 86.8156 308.856 87.0441 308.399 87.3592C307.942 87.6744 307.714 88.0605 307.714 88.5174C307.714 88.8641 307.816 89.1635 308.021 89.4156C308.242 89.652 308.517 89.8332 308.848 89.9592C309.179 90.0695 309.526 90.1247 309.888 90.1247ZM321.39 96.6247C321.264 96.6247 321.154 96.5774 321.059 96.4829C320.965 96.3883 320.917 96.278 320.917 96.152C320.917 96.0889 320.917 96.0259 320.917 95.9629C320.933 95.9156 320.965 95.8526 321.012 95.7738L322.856 91.4011L318.317 80.6938C318.254 80.5362 318.223 80.4259 318.223 80.3629C318.239 80.2211 318.294 80.1029 318.388 80.0083C318.483 79.898 318.601 79.8429 318.743 79.8429H320.657C320.847 79.8429 320.988 79.8902 321.083 79.9847C321.177 80.0792 321.248 80.1817 321.296 80.292L324.439 88.0211L327.677 80.292C327.725 80.1659 327.796 80.0635 327.89 79.9847C327.985 79.8902 328.127 79.8429 328.316 79.8429H330.207C330.333 79.8429 330.443 79.8902 330.537 79.9847C330.648 80.0792 330.703 80.1895 330.703 80.3156C330.703 80.4102 330.671 80.5362 330.608 80.6938L323.919 96.1756C323.856 96.3017 323.777 96.4041 323.683 96.4829C323.588 96.5774 323.447 96.6247 323.257 96.6247H321.39Z" fill="#F7F7FA"/>
<path opacity="0.83" d="M270.807 214.869C298.507 214.869 320.961 192.548 320.961 165.013C320.961 137.479 298.507 115.157 270.807 115.157C243.108 115.157 220.653 137.479 220.653 165.013C220.653 192.548 243.108 214.869 270.807 214.869Z" fill="white"/>
<path opacity="0.79" d="M258.613 214.869C286.312 214.869 308.767 192.548 308.767 165.013C308.767 137.479 286.312 115.157 258.613 115.157C230.914 115.157 208.459 137.479 208.459 165.013C208.459 192.548 230.914 214.869 258.613 214.869Z" fill="white"/>
<path opacity="0.75" d="M246.419 214.869C274.118 214.869 296.573 192.548 296.573 165.013C296.573 137.479 274.118 115.157 246.419 115.157C218.72 115.157 196.265 137.479 196.265 165.013C196.265 192.548 218.72 214.869 246.419 214.869Z" fill="white"/>
<path opacity="0.69" d="M234.225 214.869C261.924 214.869 284.379 192.548 284.379 165.013C284.379 137.479 261.924 115.157 234.225 115.157C206.526 115.157 184.071 137.479 184.071 165.013C184.071 192.548 206.526 214.869 234.225 214.869Z" fill="white"/>
<path opacity="0.65" d="M222.031 214.869C249.73 214.869 272.185 192.548 272.185 165.013C272.185 137.479 249.73 115.157 222.031 115.157C194.332 115.157 171.877 137.479 171.877 165.013C171.877 192.548 194.332 214.869 222.031 214.869Z" fill="white"/>
<path opacity="0.64" d="M209.837 214.869C237.536 214.869 259.991 192.548 259.991 165.013C259.991 137.479 237.536 115.157 209.837 115.157C182.138 115.157 159.683 137.479 159.683 165.013C159.683 192.548 182.138 214.869 209.837 214.869Z" fill="white"/>
<path opacity="0.52" d="M197.643 214.869C225.342 214.869 247.797 192.548 247.797 165.013C247.797 137.479 225.342 115.157 197.643 115.157C169.944 115.157 147.489 137.479 147.489 165.013C147.489 192.548 169.944 214.869 197.643 214.869Z" fill="white"/>
<path opacity="0.52" d="M185.449 214.869C213.149 214.869 235.603 192.548 235.603 165.013C235.603 137.479 213.149 115.157 185.449 115.157C157.75 115.157 135.295 137.479 135.295 165.013C135.295 192.548 157.75 214.869 185.449 214.869Z" fill="white"/>
<path opacity="0.5" d="M173.255 214.869C200.954 214.869 223.409 192.548 223.409 165.013C223.409 137.479 200.954 115.157 173.255 115.157C145.556 115.157 123.101 137.479 123.101 165.013C123.101 192.548 145.556 214.869 173.255 214.869Z" fill="white"/>
<path opacity="0.49" d="M161.061 214.869C188.761 214.869 211.215 192.548 211.215 165.013C211.215 137.479 188.761 115.157 161.061 115.157C133.362 115.157 110.907 137.479 110.907 165.013C110.907 192.548 133.362 214.869 161.061 214.869Z" fill="white"/>
<path opacity="0.44" d="M148.867 214.869C176.567 214.869 199.021 192.548 199.021 165.013C199.021 137.479 176.567 115.157 148.867 115.157C121.168 115.157 98.713 137.479 98.713 165.013C98.713 192.548 121.168 214.869 148.867 214.869Z" fill="white"/>
<path opacity="0.4" d="M136.673 214.869C164.373 214.869 186.827 192.548 186.827 165.013C186.827 137.479 164.373 115.157 136.673 115.157C108.974 115.157 86.519 137.479 86.519 165.013C86.519 192.548 108.974 214.869 136.673 214.869Z" fill="white"/>
<path opacity="0.29" d="M124.479 214.869C152.178 214.869 174.633 192.548 174.633 165.013C174.633 137.479 152.178 115.157 124.479 115.157C96.7796 115.157 74.3248 137.479 74.3248 165.013C74.3248 192.548 96.7796 214.869 124.479 214.869Z" fill="white"/>
<path opacity="0.27" d="M112.285 214.869C139.985 214.869 162.439 192.548 162.439 165.013C162.439 137.479 139.985 115.157 112.285 115.157C84.5859 115.157 62.1311 137.479 62.1311 165.013C62.1311 192.548 84.5859 214.869 112.285 214.869Z" fill="white"/>
<path opacity="0.25" d="M100.091 214.869C127.791 214.869 150.246 192.548 150.246 165.013C150.246 137.479 127.791 115.157 100.091 115.157C72.392 115.157 49.9373 137.479 49.9373 165.013C49.9373 192.548 72.392 214.869 100.091 214.869Z" fill="white"/>
<path opacity="0.25" d="M87.8972 214.869C115.597 214.869 138.051 192.548 138.051 165.013C138.051 137.479 115.597 115.157 87.8972 115.157C60.1978 115.157 37.743 137.479 37.743 165.013C37.743 192.548 60.1978 214.869 87.8972 214.869Z" fill="white"/>
<path opacity="0.22" d="M75.7033 214.869C103.403 214.869 125.857 192.548 125.857 165.013C125.857 137.479 103.403 115.157 75.7033 115.157C48.004 115.157 25.5492 137.479 25.5492 165.013C25.5492 192.548 48.004 214.869 75.7033 214.869Z" fill="white"/>
<path opacity="0.14" d="M63.5091 214.869C91.2085 214.869 113.663 192.548 113.663 165.013C113.663 137.479 91.2085 115.157 63.5091 115.157C35.8098 115.157 13.355 137.479 13.355 165.013C13.355 192.548 35.8098 214.869 63.5091 214.869Z" fill="white"/>
<path opacity="0.06" d="M51.3153 214.869C79.0147 214.869 101.469 192.548 101.469 165.013C101.469 137.479 79.0147 115.157 51.3153 115.157C23.6159 115.157 1.16113 137.479 1.16113 165.013C1.16113 192.548 23.6159 214.869 51.3153 214.869Z" fill="white"/>
<path opacity="0.03" d="M39.1213 214.87C66.8207 214.87 89.2755 192.548 89.2755 165.013C89.2755 137.479 66.8207 115.157 39.1213 115.157C11.4219 115.157 -11.0328 137.479 -11.0328 165.013C-11.0328 192.548 11.4219 214.87 39.1213 214.87Z" fill="white"/>
<path opacity="0.95" fill-rule="evenodd" clip-rule="evenodd" d="M332.97 164.975C332.97 192.493 310.529 214.801 282.846 214.801C255.163 214.801 232.722 192.493 232.722 164.975C232.722 137.457 255.163 115.149 282.846 115.149C310.529 115.149 332.97 137.457 332.97 164.975ZM291.481 148.578L285.975 137.487C284.696 134.923 281.007 134.923 279.763 137.487L274.257 148.578C273.046 151.03 270.691 152.736 267.966 153.126L255.654 154.909C252.794 155.322 251.662 158.8 253.725 160.806L262.629 169.434C264.591 171.34 265.488 174.093 265.028 176.79L262.92 188.974C262.427 191.794 265.409 193.956 267.966 192.619L278.978 186.867C281.411 185.596 284.326 185.596 286.76 186.867L297.771 192.619C300.317 193.956 303.299 191.805 302.817 188.974L300.709 176.79C300.238 174.093 301.135 171.34 303.109 169.434L312.012 160.806C314.075 158.811 312.943 155.322 310.083 154.909L297.771 153.126C295.058 152.736 292.703 151.03 291.481 148.578Z" fill="white"/>
<path opacity="0.95" d="M285.975 137.487L291.481 148.578C292.703 151.03 295.058 152.736 297.771 153.126L310.083 154.909C312.943 155.322 314.075 158.811 312.012 160.806L303.109 169.434C301.135 171.34 300.238 174.093 300.709 176.79L302.817 188.974C303.299 191.805 300.317 193.956 297.771 192.619L286.76 186.867C284.326 185.596 281.411 185.596 278.978 186.867L267.966 192.619C265.409 193.956 262.427 191.794 262.92 188.974L265.028 176.79C265.488 174.093 264.591 171.34 262.629 169.434L253.725 160.806C251.662 158.8 252.794 155.322 255.654 154.909L267.966 153.126C270.691 152.736 273.046 151.03 274.257 148.578L279.763 137.487C281.007 134.923 284.696 134.923 285.975 137.487Z" fill="#5353EA"/>
<path d="M46.9044 240.321C46.8226 240.321 46.7556 240.295 46.7035 240.243C46.6514 240.191 46.6254 240.128 46.6254 240.054V232.788C46.6254 232.706 46.6514 232.639 46.7035 232.587C46.7556 232.535 46.8226 232.509 46.9044 232.509H47.7861C47.8903 232.509 47.9684 232.539 48.0205 232.598C48.0725 232.651 48.106 232.691 48.1209 232.721L50.2749 236.739L52.4512 232.721C52.466 232.691 52.4995 232.651 52.5516 232.598C52.6037 232.539 52.6818 232.509 52.786 232.509H53.6565C53.7383 232.509 53.8053 232.535 53.8574 232.587C53.9095 232.639 53.9355 232.706 53.9355 232.788V240.054C53.9355 240.128 53.9095 240.191 53.8574 240.243C53.8053 240.295 53.7383 240.321 53.6565 240.321H52.719C52.6372 240.321 52.5702 240.295 52.5181 240.243C52.4735 240.191 52.4512 240.128 52.4512 240.054V235.221L50.8887 238.201C50.8515 238.268 50.8031 238.327 50.7436 238.38C50.6841 238.424 50.606 238.447 50.5092 238.447H50.0517C49.9475 238.447 49.8657 238.424 49.8061 238.38C49.7541 238.327 49.7094 238.268 49.6722 238.201L48.1097 235.221V240.054C48.1097 240.128 48.0837 240.191 48.0316 240.243C47.9795 240.295 47.9163 240.321 47.8419 240.321H46.9044ZM59.2875 240.321C59.2131 240.321 59.1498 240.295 59.0978 240.243C59.0457 240.191 59.0196 240.128 59.0196 240.054V232.788C59.0196 232.706 59.0457 232.639 59.0978 232.587C59.1498 232.535 59.2131 232.509 59.2875 232.509H64.1981C64.2799 232.509 64.3469 232.535 64.399 232.587C64.4511 232.639 64.4771 232.706 64.4771 232.788V233.525C64.4771 233.599 64.4511 233.662 64.399 233.714C64.3469 233.767 64.2799 233.793 64.1981 233.793H60.5263V235.768H63.9526C64.0344 235.768 64.1014 235.794 64.1534 235.846C64.2055 235.891 64.2316 235.954 64.2316 236.036V236.728C64.2316 236.81 64.2055 236.877 64.1534 236.929C64.1014 236.973 64.0344 236.996 63.9526 236.996H60.5263V239.038H64.2874C64.3692 239.038 64.4362 239.064 64.4883 239.116C64.5403 239.168 64.5664 239.235 64.5664 239.317V240.054C64.5664 240.128 64.5403 240.191 64.4883 240.243C64.4362 240.295 64.3692 240.321 64.2874 240.321H59.2875ZM69.5894 240.321C69.5075 240.321 69.4406 240.295 69.3885 240.243C69.3364 240.191 69.3104 240.128 69.3104 240.054V232.788C69.3104 232.706 69.3364 232.639 69.3885 232.587C69.4406 232.535 69.5075 232.509 69.5894 232.509H70.4711C70.5752 232.509 70.6533 232.539 70.7054 232.598C70.7575 232.651 70.791 232.691 70.8059 232.721L72.9598 236.739L75.1361 232.721C75.151 232.691 75.1845 232.651 75.2366 232.598C75.2887 232.539 75.3668 232.509 75.471 232.509H76.3415C76.4233 232.509 76.4903 232.535 76.5424 232.587C76.5944 232.639 76.6205 232.706 76.6205 232.788V240.054C76.6205 240.128 76.5944 240.191 76.5424 240.243C76.4903 240.295 76.4233 240.321 76.3415 240.321H75.404C75.3221 240.321 75.2552 240.295 75.2031 240.243C75.1585 240.191 75.1361 240.128 75.1361 240.054V235.221L73.5737 238.201C73.5365 238.268 73.4881 238.327 73.4286 238.38C73.3691 238.424 73.2909 238.447 73.1942 238.447H72.7366C72.6325 238.447 72.5506 238.424 72.4911 238.38C72.439 238.327 72.3944 238.268 72.3572 238.201L70.7947 235.221V240.054C70.7947 240.128 70.7687 240.191 70.7166 240.243C70.6645 240.295 70.6013 240.321 70.5269 240.321H69.5894ZM81.9724 240.321C81.898 240.321 81.8348 240.295 81.7827 240.243C81.7306 240.191 81.7046 240.128 81.7046 240.054V232.788C81.7046 232.706 81.7306 232.639 81.7827 232.587C81.8348 232.535 81.898 232.509 81.9724 232.509H85.209C85.8117 232.509 86.3027 232.602 86.6822 232.788C87.0616 232.967 87.3406 233.216 87.5192 233.536C87.7052 233.856 87.7982 234.228 87.7982 234.652C87.7982 234.935 87.7461 235.184 87.642 235.4C87.5452 235.608 87.4225 235.779 87.2737 235.913C87.1323 236.047 86.9909 236.151 86.8496 236.226C87.1397 236.36 87.3964 236.583 87.6196 236.895C87.8429 237.208 87.9545 237.58 87.9545 238.011C87.9545 238.458 87.854 238.856 87.6531 239.205C87.4522 239.555 87.1546 239.83 86.7603 240.031C86.366 240.225 85.8786 240.321 85.2983 240.321H81.9724ZM83.2559 239.138H85.1197C85.5215 239.138 85.8265 239.031 86.0349 238.815C86.2432 238.592 86.3474 238.324 86.3474 238.011C86.3474 237.684 86.2395 237.412 86.0237 237.197C85.8154 236.981 85.514 236.873 85.1197 236.873H83.2559V239.138ZM83.2559 235.712H85.0081C85.4024 235.712 85.6963 235.619 85.8898 235.433C86.0907 235.24 86.1911 234.99 86.1911 234.685C86.1911 234.373 86.0907 234.131 85.8898 233.96C85.6963 233.781 85.4024 233.692 85.0081 233.692H83.2559V235.712ZM92.9716 240.321C92.8972 240.321 92.834 240.295 92.7819 240.243C92.7298 240.191 92.7038 240.128 92.7038 240.054V232.788C92.7038 232.706 92.7298 232.639 92.7819 232.587C92.834 232.535 92.8972 232.509 92.9716 232.509H97.8822C97.9641 232.509 98.031 232.535 98.0831 232.587C98.1352 232.639 98.1612 232.706 98.1612 232.788V233.525C98.1612 233.599 98.1352 233.662 98.0831 233.714C98.031 233.767 97.9641 233.793 97.8822 233.793H94.2104V235.768H97.6367C97.7185 235.768 97.7855 235.794 97.8376 235.846C97.8897 235.891 97.9157 235.954 97.9157 236.036V236.728C97.9157 236.81 97.8897 236.877 97.8376 236.929C97.7855 236.973 97.7185 236.996 97.6367 236.996H94.2104V239.038H97.9715C98.0534 239.038 98.1203 239.064 98.1724 239.116C98.2245 239.168 98.2505 239.235 98.2505 239.317V240.054C98.2505 240.128 98.2245 240.191 98.1724 240.243C98.1203 240.295 98.0534 240.321 97.9715 240.321H92.9716ZM103.262 240.321C103.188 240.321 103.125 240.295 103.073 240.243C103.021 240.191 102.995 240.128 102.995 240.054V232.788C102.995 232.706 103.021 232.639 103.073 232.587C103.125 232.535 103.188 232.509 103.262 232.509H106.153C107.053 232.509 107.764 232.717 108.285 233.134C108.805 233.551 109.066 234.157 109.066 234.953C109.066 235.504 108.928 235.961 108.653 236.326C108.385 236.691 108.024 236.955 107.57 237.118L109.2 239.964C109.222 240.009 109.233 240.05 109.233 240.087C109.233 240.154 109.207 240.21 109.155 240.255C109.11 240.299 109.058 240.321 108.999 240.321H107.983C107.857 240.321 107.76 240.288 107.693 240.221C107.626 240.154 107.574 240.087 107.537 240.02L106.097 237.375H104.546V240.054C104.546 240.128 104.52 240.191 104.468 240.243C104.423 240.295 104.36 240.321 104.278 240.321H103.262ZM104.546 236.114H106.119C106.573 236.114 106.912 236.014 107.135 235.813C107.358 235.604 107.47 235.314 107.47 234.942C107.47 234.57 107.358 234.28 107.135 234.072C106.919 233.856 106.581 233.748 106.119 233.748H104.546V236.114ZM122.764 240.433C122.072 240.433 121.484 240.314 121 240.076C120.524 239.83 120.16 239.484 119.907 239.038C119.654 238.584 119.512 238.041 119.483 237.409C119.475 237.104 119.471 236.776 119.471 236.426C119.471 236.077 119.475 235.742 119.483 235.422C119.512 234.797 119.654 234.258 119.907 233.804C120.167 233.35 120.535 233.004 121.012 232.766C121.495 232.52 122.079 232.398 122.764 232.398C123.27 232.398 123.724 232.464 124.125 232.598C124.527 232.732 124.869 232.918 125.152 233.156C125.435 233.387 125.654 233.659 125.811 233.971C125.967 234.284 126.049 234.622 126.056 234.987C126.064 235.054 126.041 235.11 125.989 235.154C125.945 235.199 125.889 235.221 125.822 235.221H124.762C124.68 235.221 124.613 235.203 124.561 235.165C124.509 235.121 124.471 235.05 124.449 234.953C124.33 234.462 124.125 234.127 123.835 233.949C123.545 233.77 123.184 233.681 122.753 233.681C122.254 233.681 121.856 233.822 121.558 234.105C121.261 234.38 121.101 234.838 121.079 235.478C121.056 236.088 121.056 236.713 121.079 237.353C121.101 237.993 121.261 238.454 121.558 238.737C121.856 239.012 122.254 239.15 122.753 239.15C123.184 239.15 123.545 239.06 123.835 238.882C124.125 238.696 124.33 238.361 124.449 237.877C124.471 237.773 124.509 237.702 124.561 237.665C124.613 237.628 124.68 237.609 124.762 237.609H125.822C125.889 237.609 125.945 237.632 125.989 237.676C126.041 237.721 126.064 237.777 126.056 237.844C126.049 238.208 125.967 238.547 125.811 238.859C125.654 239.172 125.435 239.447 125.152 239.685C124.869 239.916 124.527 240.098 124.125 240.232C123.724 240.366 123.27 240.433 122.764 240.433ZM130.161 240.321C130.101 240.321 130.045 240.299 129.993 240.255C129.949 240.21 129.926 240.154 129.926 240.087C129.926 240.057 129.934 240.024 129.949 239.987L132.638 232.788C132.661 232.714 132.702 232.651 132.761 232.598C132.828 232.539 132.917 232.509 133.029 232.509H134.245C134.357 232.509 134.443 232.539 134.502 232.598C134.562 232.651 134.606 232.714 134.636 232.788L137.326 239.987C137.333 240.024 137.337 240.057 137.337 240.087C137.337 240.154 137.315 240.21 137.27 240.255C137.225 240.299 137.173 240.321 137.114 240.321H136.143C136.039 240.321 135.96 240.299 135.908 240.255C135.864 240.202 135.834 240.154 135.819 240.109L135.295 238.748H131.98L131.455 240.109C131.44 240.154 131.407 240.202 131.355 240.255C131.31 240.299 131.236 240.321 131.132 240.321H130.161ZM132.371 237.464H134.904L133.632 234.016L132.371 237.464ZM141.995 240.321C141.92 240.321 141.857 240.295 141.805 240.243C141.753 240.191 141.727 240.128 141.727 240.054V232.788C141.727 232.706 141.753 232.639 141.805 232.587C141.857 232.535 141.92 232.509 141.995 232.509H144.885C145.786 232.509 146.496 232.717 147.017 233.134C147.538 233.551 147.798 234.157 147.798 234.953C147.798 235.504 147.661 235.961 147.385 236.326C147.118 236.691 146.757 236.955 146.303 237.118L147.932 239.964C147.955 240.009 147.966 240.05 147.966 240.087C147.966 240.154 147.94 240.21 147.888 240.255C147.843 240.299 147.791 240.321 147.731 240.321H146.716C146.589 240.321 146.493 240.288 146.426 240.221C146.359 240.154 146.307 240.087 146.269 240.02L144.83 237.375H143.278V240.054C143.278 240.128 143.252 240.191 143.2 240.243C143.156 240.295 143.092 240.321 143.01 240.321H141.995ZM143.278 236.114H144.852C145.306 236.114 145.644 236.014 145.868 235.813C146.091 235.604 146.202 235.314 146.202 234.942C146.202 234.57 146.091 234.28 145.868 234.072C145.652 233.856 145.313 233.748 144.852 233.748H143.278V236.114ZM152.852 240.321C152.778 240.321 152.715 240.295 152.663 240.243C152.611 240.191 152.584 240.128 152.584 240.054V232.788C152.584 232.706 152.611 232.639 152.663 232.587C152.715 232.535 152.778 232.509 152.852 232.509H155.576C156.327 232.509 156.945 232.624 157.428 232.855C157.919 233.086 158.288 233.428 158.533 233.882C158.786 234.336 158.916 234.89 158.924 235.545C158.939 235.872 158.946 236.162 158.946 236.415C158.946 236.668 158.939 236.955 158.924 237.275C158.909 237.967 158.782 238.54 158.544 238.993C158.306 239.44 157.945 239.775 157.462 239.998C156.985 240.214 156.375 240.321 155.631 240.321H152.852ZM154.136 239.038H155.576C155.992 239.038 156.331 238.978 156.591 238.859C156.852 238.74 157.041 238.551 157.16 238.29C157.287 238.022 157.354 237.673 157.361 237.241C157.369 237.018 157.372 236.825 157.372 236.661C157.38 236.49 157.38 236.322 157.372 236.159C157.372 235.987 157.369 235.794 157.361 235.578C157.346 234.968 157.194 234.518 156.904 234.228C156.613 233.938 156.152 233.793 155.52 233.793H154.136V239.038Z" fill="white"/>
</g>
<g clip-path="url(#clip1_5203_113933)">
<path d="M136.219 73.9507V77.8266H135.419C129.971 77.8266 124.481 81.7458 124.481 90.5357V101.947H120.87V74.3599H124.481V80.252C127.032 76.1798 131.267 73.7977 135.698 73.9274L136.219 73.9507Z" fill="white"/>
<path d="M151.11 73.741C143.766 73.741 138.023 80.0423 138.023 88.0936V88.2C138.023 96.3778 143.829 102.553 151.532 102.553C157.361 102.553 160.643 99.8112 162.875 97.4091L163.253 96.9866L160.686 94.711L160.307 95.1102C157.783 97.8283 155.026 99.0926 151.618 99.0926C146.443 99.0926 142.487 95.2765 141.856 89.7338H163.699L163.762 89.248C163.805 88.8056 163.805 88.6359 163.805 88.1535C163.798 79.663 158.58 73.741 151.11 73.741ZM141.849 86.3635C142.523 80.9905 146.29 77.1545 151.023 77.1545C156.873 77.1545 159.44 81.9819 159.925 86.3635H141.849Z" fill="white"/>
<path d="M84.1767 85.3089V101.947H80.5595V85.615C80.5595 80.2153 77.8956 77.1112 73.2387 77.1112C69.472 77.1112 65.4197 79.866 65.4197 85.9411V101.947H61.7859V85.462C61.7859 80.6245 59.3611 77.5238 55.4184 77.1545C55.2258 77.1112 55.0298 77.1112 54.8338 77.1112H54.5947C50.0906 77.2177 47.5131 80.3018 47.5131 85.615V101.947H43.8959V85.3089C43.8959 78.2391 48.0977 73.6844 54.6179 73.6844C54.7242 73.6844 54.8338 73.6844 54.9434 73.7077C57.3051 73.751 59.3645 74.3997 61.1149 75.6607C61.3773 75.8337 61.6132 76.0266 61.8523 76.2462C62.7857 77.0946 63.4567 78.0262 63.9316 78.8513C63.9748 78.808 63.9981 78.7415 64.0413 78.6982C66.3099 75.3746 69.4754 73.6844 73.4579 73.6844C79.9782 73.6844 84.1767 78.2391 84.1767 85.3089Z" fill="white"/>
<path d="M102.239 73.182C94.0384 73.182 87.392 79.8393 87.392 88.0536C87.392 96.2646 94.0384 102.925 102.239 102.925C110.437 102.925 117.087 96.2646 117.087 88.0536C117.087 79.8393 110.437 73.182 102.239 73.182ZM110.876 86.8093L108.238 89.3844C107.654 89.9533 107.388 90.7751 107.527 91.5802L108.149 95.22C108.295 96.0617 107.408 96.7071 106.654 96.3079L103.392 94.5912C102.671 94.2085 101.808 94.2085 101.087 94.5912L97.825 96.3079C97.0677 96.7071 96.1842 96.0617 96.327 95.22L96.9515 91.5802C97.0877 90.7751 96.8219 89.9533 96.2373 89.3844L93.6 86.8093C92.9888 86.2105 93.3243 85.1691 94.1713 85.046L97.8184 84.517C98.6255 84.3973 99.3231 83.8916 99.6818 83.1596L101.313 79.8493C101.691 79.0808 102.784 79.0808 103.163 79.8493L104.794 83.1596C105.156 83.8916 105.853 84.3973 106.66 84.517L110.304 85.046C111.151 85.1691 111.49 86.2105 110.876 86.8093Z" fill="white"/>
</g>
</g>
<defs>
<filter id="filter0_ddddddi_5203_113933" x="-47.2378" y="-9.20241" width="469.476" height="362.586" filterUnits="userSpaceOnUse" color-interpolation-filters="sRGB">
<feFlood flood-opacity="0" result="BackgroundImageFix"/>
<feColorMatrix in="SourceAlpha" type="matrix" values="0 0 0 0 0 0 0 0 0 0 0 0 0 0 0 0 0 0 127 0" result="hardAlpha"/>
<feOffset dy="2.57366"/>
<feGaussianBlur stdDeviation="1.02946"/>
<feColorMatrix type="matrix" values="0 0 0 0 0.219608 0 0 0 0 0.219608 0 0 0 0 0.533333 0 0 0 0.0196802 0"/>
<feBlend mode="normal" in2="BackgroundImageFix" result="effect1_dropShadow_5203_113933"/>
<feColorMatrix in="SourceAlpha" type="matrix" values="0 0 0 0 0 0 0 0 0 0 0 0 0 0 0 0 0 0 127 0" result="hardAlpha"/>
<feOffset dy="6.18486"/>
<feGaussianBlur stdDeviation="2.47394"/>
<feColorMatrix type="matrix" values="0 0 0 0 0.219608 0 0 0 0 0.219608 0 0 0 0 0.533333 0 0 0 0.0282725 0"/>
<feBlend mode="normal" in2="effect1_dropShadow_5203_113933" result="effect2_dropShadow_5203_113933"/>
<feColorMatrix in="SourceAlpha" type="matrix" values="0 0 0 0 0 0 0 0 0 0 0 0 0 0 0 0 0 0 127 0" result="hardAlpha"/>
<feOffset dy="11.6455"/>
<feGaussianBlur stdDeviation="4.65822"/>
<feColorMatrix type="matrix" values="0 0 0 0 0.219608 0 0 0 0 0.219608 0 0 0 0 0.533333 0 0 0 0.035 0"/>
<feBlend mode="normal" in2="effect2_dropShadow_5203_113933" result="effect3_dropShadow_5203_113933"/>
<feColorMatrix in="SourceAlpha" type="matrix" values="0 0 0 0 0 0 0 0 0 0 0 0 0 0 0 0 0 0 127 0" result="hardAlpha"/>
<feOffset dy="20.7736"/>
<feGaussianBlur stdDeviation="8.30946"/>
<feColorMatrix type="matrix" values="0 0 0 0 0.219608 0 0 0 0 0.219608 0 0 0 0 0.533333 0 0 0 0.0417275 0"/>
<feBlend mode="normal" in2="effect3_dropShadow_5203_113933" result="effect4_dropShadow_5203_113933"/>
<feColorMatrix in="SourceAlpha" type="matrix" values="0 0 0 0 0 0 0 0 0 0 0 0 0 0 0 0 0 0 127 0" result="hardAlpha"/>
<feOffset dy="21.125"/>
<feGaussianBlur stdDeviation="15.5419"/>
<feColorMatrix type="matrix" values="0 0 0 0 0.219608 0 0 0 0 0.219608 0 0 0 0 0.533333 0 0 0 0.0503198 0"/>
<feBlend mode="normal" in2="effect4_dropShadow_5203_113933" result="effect5_dropShadow_5203_113933"/>
<feColorMatrix in="SourceAlpha" type="matrix" values="0 0 0 0 0 0 0 0 0 0 0 0 0 0 0 0 0 0 127 0" result="hardAlpha"/>
<feOffset dy="16.185"/>
<feGaussianBlur stdDeviation="37.2016"/>
<feColorMatrix type="matrix" values="0 0 0 0 0.219955 0 0 0 0 0.219955 0 0 0 0 0.533261 0 0 0 0.07 0"/>
<feBlend mode="normal" in2="effect5_dropShadow_5203_113933" result="effect6_dropShadow_5203_113933"/>
<feBlend mode="normal" in="SourceGraphic" in2="effect6_dropShadow_5203_113933" result="shape"/>
<feColorMatrix in="SourceAlpha" type="matrix" values="0 0 0 0 0 0 0 0 0 0 0 0 0 0 0 0 0 0 127 0" result="hardAlpha"/>
<feOffset dy="-3.72016"/>
<feGaussianBlur stdDeviation="0.46502"/>
<feComposite in2="hardAlpha" operator="arithmetic" k2="-1" k3="1"/>
<feColorMatrix type="matrix" values="0 0 0 0 0.292138 0 0 0 0 0.292138 0 0 0 0 0.824928 0 0 0 1 0"/>
<feBlend mode="normal" in2="shape" result="effect7_innerShadow_5203_113933"/>
</filter>
<linearGradient id="paint0_linear_5203_113933" x1="187.5" y1="49.0157" x2="187.5" y2="262.795" gradientUnits="userSpaceOnUse">
<stop stop-color="#5C5CEB"/>
<stop offset="1" stop-color="#5C5CEB"/>
</linearGradient>
<clipPath id="clip0_5203_113933">
<rect width="375" height="311.811" fill="white"/>
</clipPath>
<clipPath id="clip1_5203_113933">
<rect width="119.902" height="29.7432" fill="white" transform="translate(43.8959 73.182)"/>
</clipPath>
</defs>
</svg>
