<svg width="29" height="27" viewBox="0 0 29 27" fill="none" xmlns="http://www.w3.org/2000/svg">
<path d="M1.15235 14.2749L13.4971 26.2749C14.032 26.7949 14.9065 26.7963 15.4413 26.2776L27.8452 14.2776C27.9733 14.1537 28.0749 14.0066 28.1442 13.8446C28.2135 13.6826 28.2492 13.509 28.2492 13.3336C28.2492 13.1582 28.2135 12.9846 28.1442 12.8226C28.0749 12.6606 27.9733 12.5135 27.8452 12.3896L15.4413 0.389603C15.3136 0.265851 15.1619 0.167741 14.995 0.100889C14.8281 0.0340367 14.6492 -0.00024635 14.4686 1.33252e-06C14.2881 0.000249015 14.1093 0.0350226 13.9426 0.102332C13.7759 0.169642 13.6245 0.268167 13.4971 0.39227L1.15235 12.3923C1.02479 12.5159 0.923608 12.6626 0.854571 12.8241C0.785534 12.9856 0.75 13.1588 0.75 13.3336C0.75 13.5084 0.785534 13.6816 0.854571 13.8431C0.923608 14.0046 1.02479 14.1514 1.15235 14.2749ZM10.3745 10.6669H17.2495V8.00027L21.3745 12.0003L17.2495 16.0003V13.3336H13.1245V18.6669H10.3745V10.6669Z" fill="#5576D1"/>
</svg>
