<svg width="100" height="67" viewBox="0 0 100 67" fill="none" xmlns="http://www.w3.org/2000/svg">
<rect x="1" y="0.513672" width="98.229" height="65.486" rx="6.83332" stroke="#B4B4BB" stroke-width="0.915888" stroke-linecap="round" stroke-dasharray="1.83 3.66"/>
<path d="M36.3243 38.4727C35.4157 38.4727 34.6439 38.3164 34.0089 38.0038C33.3837 37.6814 32.905 37.2271 32.5728 36.6409C32.2406 36.045 32.055 35.3318 32.0159 34.5014C32.0062 34.1009 32.0013 33.671 32.0013 33.2119C32.0013 32.7527 32.0062 32.3131 32.0159 31.893C32.055 31.0723 32.2406 30.3641 32.5728 29.7681C32.9147 29.1722 33.3983 28.7179 34.0236 28.4053C34.6586 28.0829 35.4255 27.9217 36.3243 27.9217C36.9886 27.9217 37.5845 28.0096 38.1121 28.1855C38.6396 28.3613 39.089 28.6055 39.4603 28.9182C39.8315 29.221 40.1197 29.5776 40.3249 29.9879C40.53 30.3982 40.6375 30.8428 40.6473 31.3215C40.657 31.4094 40.6277 31.4827 40.5593 31.5413C40.5007 31.5999 40.4275 31.6292 40.3395 31.6292H38.9474C38.8399 31.6292 38.752 31.6048 38.6836 31.5559C38.6152 31.4973 38.5664 31.4045 38.5371 31.2775C38.3807 30.6327 38.1121 30.1931 37.7311 29.9586C37.3501 29.7242 36.8762 29.6069 36.3096 29.6069C35.6551 29.6069 35.1324 29.7925 34.7416 30.1638C34.3508 30.5252 34.1408 31.1261 34.1115 31.9662C34.0822 32.7673 34.0822 33.588 34.1115 34.4282C34.1408 35.2683 34.3508 35.874 34.7416 36.2453C35.1324 36.6067 35.6551 36.7875 36.3096 36.7875C36.8762 36.7875 37.3501 36.6702 37.7311 36.4358C38.1121 36.1915 38.3807 35.7519 38.5371 35.1169C38.5664 34.9801 38.6152 34.8873 38.6836 34.8385C38.752 34.7896 38.8399 34.7652 38.9474 34.7652H40.3395C40.4275 34.7652 40.5007 34.7945 40.5593 34.8531C40.6277 34.9117 40.657 34.985 40.6473 35.0729C40.6375 35.5516 40.53 35.9962 40.3249 36.4065C40.1197 36.8168 39.8315 37.1783 39.4603 37.4909C39.089 37.7937 38.6396 38.0331 38.1121 38.2089C37.5845 38.3848 36.9886 38.4727 36.3243 38.4727ZM43.0299 38.3262C42.9323 38.3262 42.8492 38.292 42.7808 38.2236C42.7124 38.1552 42.6782 38.0722 42.6782 37.9745V28.4346C42.6782 28.3271 42.7124 28.2392 42.7808 28.1708C42.8492 28.1024 42.9323 28.0682 43.0299 28.0682H46.9573C47.7193 28.0682 48.3836 28.1903 48.9502 28.4346C49.5169 28.6691 49.9565 29.0305 50.2691 29.519C50.5817 29.9977 50.7381 30.5985 50.7381 31.3215C50.7381 32.0542 50.5817 32.6599 50.2691 33.1386C49.9565 33.6075 49.5169 33.9592 48.9502 34.1937C48.3836 34.4282 47.7193 34.5454 46.9573 34.5454H44.7738V37.9745C44.7738 38.0722 44.7396 38.1552 44.6712 38.2236C44.6126 38.292 44.5296 38.3262 44.4221 38.3262H43.0299ZM44.7445 32.9188H46.884C47.4506 32.9188 47.8854 32.7869 48.1882 32.5231C48.4911 32.2496 48.6425 31.849 48.6425 31.3215C48.6425 30.833 48.5008 30.4422 48.2175 30.1491C47.9342 29.8463 47.4897 29.6948 46.884 29.6948H44.7445V32.9188ZM54.5106 38.4727C54.0026 38.4727 53.5434 38.375 53.1331 38.1796C52.7228 37.9745 52.3955 37.7058 52.1513 37.3736C51.9168 37.0317 51.7996 36.6507 51.7996 36.2306C51.7996 35.5468 52.0731 35.0046 52.6202 34.604C53.1771 34.1937 53.9098 33.9201 54.8183 33.7834L56.826 33.4903V33.1825C56.826 32.7722 56.7234 32.4547 56.5182 32.23C56.3131 32.0053 55.9614 31.893 55.4631 31.893C55.1114 31.893 54.8232 31.9662 54.5985 32.1128C54.3836 32.2496 54.2224 32.4352 54.1149 32.6696C54.0368 32.7967 53.9244 32.8602 53.7779 32.8602H52.6202C52.5127 32.8602 52.4297 32.8308 52.3711 32.7722C52.3222 32.7136 52.2978 32.6355 52.2978 32.5378C52.3076 32.3814 52.3711 32.1909 52.4883 31.9662C52.6056 31.7415 52.7912 31.5266 53.0452 31.3215C53.2992 31.1065 53.6265 30.9258 54.027 30.7793C54.4276 30.6327 54.9111 30.5594 55.4778 30.5594C56.0933 30.5594 56.611 30.6376 57.0311 30.7939C57.461 30.9405 57.8029 31.1407 58.0569 31.3947C58.3109 31.6487 58.4965 31.9467 58.6138 32.2886C58.731 32.6306 58.7896 32.992 58.7896 33.3731V37.9745C58.7896 38.0722 58.7554 38.1552 58.687 38.2236C58.6187 38.292 58.5356 38.3262 58.4379 38.3262H57.2509C57.1435 38.3262 57.0555 38.292 56.9872 38.2236C56.9285 38.1552 56.8992 38.0722 56.8992 37.9745V37.403C56.7722 37.5886 56.6013 37.7644 56.3863 37.9305C56.1714 38.0868 55.9076 38.2187 55.595 38.3262C55.2922 38.4239 54.9307 38.4727 54.5106 38.4727ZM55.0088 37.0806C55.3508 37.0806 55.6585 37.0073 55.9321 36.8608C56.2154 36.7142 56.4352 36.4895 56.5915 36.1867C56.7576 35.874 56.8406 35.4833 56.8406 35.0143V34.7066L55.3752 34.9411C54.7988 35.029 54.3689 35.1706 54.0856 35.366C53.8023 35.5614 53.6607 35.8008 53.6607 36.0841C53.6607 36.299 53.7242 36.4846 53.8512 36.6409C53.9879 36.7875 54.1589 36.8998 54.3641 36.978C54.5692 37.0464 54.7841 37.0806 55.0088 37.0806ZM62.1398 41.1105C62.0617 41.1105 61.9933 41.0812 61.9347 41.0225C61.8761 40.9639 61.8467 40.8955 61.8467 40.8174C61.8467 40.7783 61.8467 40.7392 61.8467 40.7002C61.8565 40.6708 61.8761 40.6318 61.9054 40.5829L63.0484 37.8719L60.2348 31.2335C60.1957 31.1358 60.1762 31.0675 60.1762 31.0284C60.1859 30.9405 60.2201 30.8672 60.2787 30.8086C60.3374 30.7402 60.4106 30.706 60.4986 30.706H61.6855C61.8028 30.706 61.8907 30.7353 61.9493 30.7939C62.0079 30.8525 62.0519 30.916 62.0812 30.9844L64.0302 35.7763L66.0378 30.9844C66.0672 30.9063 66.1111 30.8428 66.1697 30.7939C66.2284 30.7353 66.3163 30.706 66.4335 30.706H67.6058C67.684 30.706 67.7524 30.7353 67.811 30.7939C67.8794 30.8525 67.9136 30.9209 67.9136 30.9991C67.9136 31.0577 67.894 31.1358 67.855 31.2335L63.7078 40.832C63.6688 40.9102 63.6199 40.9737 63.5613 41.0225C63.5027 41.0812 63.4147 41.1105 63.2975 41.1105H62.1398Z" fill="#B4B4BB"/>
</svg>
