<svg width="32" height="32" viewBox="0 0 32 32" fill="none" xmlns="http://www.w3.org/2000/svg">
<path d="M28.0004 16.2734C28.0004 15.3963 27.9203 14.5571 27.7715 13.75H16.2559V18.3737L22.8879 18.3751C22.6189 19.9136 21.7532 21.225 20.4268 22.0993V25.0992H24.3746C26.6797 23.0101 28.0004 19.922 28.0004 16.2734Z" fill="#4285F4"/>
<path d="M20.4279 22.099C19.329 22.8248 17.9139 23.2493 16.2584 23.2493C13.0604 23.2493 10.3475 21.1392 9.37595 18.2949H5.30371V21.3886C7.32123 25.309 11.4679 27.9992 16.2584 27.9992C19.5694 27.9992 22.351 26.9329 24.3757 25.0974L20.4279 22.099Z" fill="#34A853"/>
<path d="M8.99228 16.0015C8.99228 15.2028 9.12821 14.4308 9.37575 13.705V10.6113H5.30351C4.46932 12.2324 4 14.0623 4 16.0015C4 17.9406 4.47075 19.7705 5.30351 21.3916L9.37575 18.2979C9.12821 17.5721 8.99228 16.8001 8.99228 16.0015Z" fill="#FABB05"/>
<path d="M16.2584 8.74983C18.0656 8.74983 19.6839 9.35932 20.9617 10.5503L24.4601 7.12732C22.3353 5.18956 19.5651 4 16.2584 4C11.4693 4 7.32123 6.69017 5.30371 10.6105L9.37595 13.7042C10.3475 10.8599 13.0604 8.74983 16.2584 8.74983Z" fill="#E94235"/>
</svg>
