<svg width="33" height="32" viewBox="0 0 33 32" fill="none" xmlns="http://www.w3.org/2000/svg">
<path d="M16.5 0C7.6776 0 0.5 7.1776 0.5 16C0.5 24.8224 7.6776 32 16.5 32C25.3224 32 32.5 24.8224 32.5 16C32.5 7.1776 25.3224 0 16.5 0ZM18.1 25.6L14.9 25.6V22.4L18.1 22.4V25.6ZM19.6616 17.784C19.348 18.0368 19.0456 18.2784 18.8056 18.5184C18.1528 19.1696 18.1016 19.7616 18.1 19.7872V20L14.9 20V19.7328C14.9 19.544 14.9464 17.8496 16.5416 16.2544C16.8536 15.9424 17.2408 15.6256 17.6472 15.296C18.8216 14.344 19.5928 13.6496 19.5928 12.6928C19.5742 11.8845 19.24 11.1156 18.6617 10.5506C18.0834 9.98558 17.3069 9.66934 16.4984 9.66955C15.6899 9.66976 14.9136 9.9864 14.3356 10.5517C13.7576 11.117 13.4238 11.8861 13.4056 12.6944H10.2056C10.2056 9.224 13.0296 6.4 16.5 6.4C19.9704 6.4 22.7944 9.224 22.7944 12.6944C22.7944 15.2496 20.908 16.7744 19.6616 17.784Z" />
</svg>
