<svg width="33" height="32" viewBox="0 0 33 32" fill="none" xmlns="http://www.w3.org/2000/svg">
<path fill-rule="evenodd" clip-rule="evenodd" d="M16.75 0C11.486 0 6.862 2.56 3.95 6.48L3.95 3.2C3.95 2.32 3.23 1.6 2.35 1.6C1.47 1.6 0.75 2.32 0.75 3.2L0.75 9.6C0.75 10.48 1.47 11.2 2.35 11.2L8.75 11.2C9.63 11.2 10.35 10.48 10.35 9.6C10.35 8.72 9.63 8 8.75 8L6.766 8C9.118 5.072 12.702 3.2 16.75 3.2C23.822 3.2 29.55 8.928 29.55 16C29.55 23.072 23.822 28.8 16.75 28.8C9.678 28.8 3.95 23.072 3.95 16C3.95 15.12 3.23 14.4 2.35 14.4C1.47 14.4 0.75 15.12 0.75 16C0.75 24.832 7.918 32 16.75 32C25.582 32 32.75 24.832 32.75 16C32.75 7.168 25.582 0 16.75 0ZM16.75 4.8C15.87 4.8 15.15 5.52 15.15 6.4L15.15 16C15.15 16.448 15.326 16.848 15.614 17.136L20.414 21.936C20.702 22.224 21.102 22.4 21.55 22.4C22.43 22.4 23.15 21.68 23.15 20.8C23.15 20.352 22.974 19.952 22.686 19.664L18.35 15.344L18.35 6.4C18.35 5.52 17.63 4.8 16.75 4.8Z" />
</svg>
