<svg width="14" height="14" viewBox="0 0 14 14" fill="none" xmlns="http://www.w3.org/2000/svg">
<path d="M7 0.527344C3.13425 0.527344 0 3.43772 0 7.02734C0 10.617 3.13425 13.5273 7 13.5273C10.8657 13.5273 14 10.617 14 7.02734C14 3.43772 10.8657 0.527344 7 0.527344ZM7.58333 10.2773H6.41667V6.48568H7.58333V10.2773ZM7 5.13151C6.517 5.13151 6.125 4.76751 6.125 4.31901C6.125 3.87051 6.517 3.50651 7 3.50651C7.483 3.50651 7.875 3.87051 7.875 4.31901C7.875 4.76751 7.483 5.13151 7 5.13151Z" fill="#64656A"/>
</svg>
