<svg width="98" height="24" viewBox="0 0 98 24" fill="none" xmlns="http://www.w3.org/2000/svg">
<path d="M75.4588 0.852938V3.98045H74.8045C70.3522 3.98045 65.8646 7.14287 65.8646 14.2355V23.4435H62.9136V1.18314H65.8646V5.9375C67.9496 2.6516 71.411 0.729448 75.0326 0.834146L75.4588 0.852938Z" fill="#636569"/>
<path d="M87.6295 0.683594C81.627 0.683594 76.9331 5.76816 76.9331 12.2648V12.3507C76.9331 18.9494 81.6786 23.9319 87.9743 23.9319C92.7388 23.9319 95.4211 21.7198 97.2455 19.7816L97.5549 19.4406L95.4564 17.6044L95.1469 17.9265C93.0836 20.1198 90.8303 21.14 88.0449 21.14C83.8152 21.14 80.5818 18.0608 80.066 13.5883H97.9187L97.9703 13.1963C98.0056 12.8393 98.0056 12.7024 98.0056 12.3131C98.0002 5.46212 93.7352 0.683594 87.6295 0.683594ZM80.0606 10.8715C80.6117 6.53594 83.6903 3.44064 87.5589 3.44064C92.3398 3.44064 94.4383 7.33594 94.8347 10.8715H80.0606Z" fill="#636569"/>
<path d="M32.9228 10.0212V23.4467H29.9663V10.2655C29.9663 5.90847 27.789 3.40377 23.9828 3.40377C20.9042 3.40377 17.5921 5.62659 17.5921 10.5286V23.444H14.6221V10.142C14.6221 6.23867 12.6403 3.73666 9.41775 3.43867C9.26029 3.40377 9.10012 3.40377 8.93994 3.40377H8.74447C5.06316 3.48968 2.95645 5.97827 2.95645 10.2655V23.444H0V10.0212C0 4.31384 3.43426 0.638672 8.76348 0.638672C8.85035 0.638672 8.93994 0.638672 9.02953 0.657464C10.9598 0.692363 12.643 1.21585 14.0737 2.2333C14.2882 2.3729 14.4809 2.5286 14.6764 2.70579C15.4392 3.39035 15.9876 4.14203 16.3759 4.8078C16.4112 4.7729 16.4302 4.71921 16.4655 4.68431C18.3197 2.00243 20.9069 0.638672 24.162 0.638672C29.4912 0.638672 32.9228 4.31384 32.9228 10.0212Z" fill="#636569"/>
<path d="M47.6831 24.2324C54.3853 24.2324 59.8184 18.8598 59.8184 12.2324C59.8184 5.605 54.3853 0.232422 47.6831 0.232422C40.981 0.232422 35.5479 5.605 35.5479 12.2324C35.5479 18.8598 40.981 24.2324 47.6831 24.2324Z" fill="#FF7F30"/>
<path d="M48.4407 5.61152L49.7737 8.28267C50.0696 8.87327 50.6397 9.28401 51.2967 9.37797L54.2776 9.8075C54.9699 9.90683 55.2441 10.7471 54.7446 11.2276L52.589 13.3055C52.1112 13.7645 51.894 14.4276 52.008 15.0773L52.5184 18.0115C52.6351 18.6934 51.913 19.2115 51.2967 18.8894L48.6308 17.5041C48.0416 17.1981 47.3358 17.1981 46.7467 17.5041L44.0807 18.8894C43.4617 19.2115 42.7396 18.6907 42.859 18.0115L43.3694 15.0773C43.4807 14.4276 43.2635 13.7645 42.7884 13.3055L40.6329 11.2276C40.1333 10.7444 40.4075 9.90683 41.0998 9.8075L44.0807 9.37797C44.7404 9.28401 45.3105 8.87327 45.6037 8.28267L46.9367 5.61152C47.238 4.99408 48.1312 4.99408 48.4407 5.61152Z" fill="white"/>
</svg>
