<svg width="189" height="64" viewBox="0 0 189 64" fill="none" xmlns="http://www.w3.org/2000/svg">
<path d="M188.046 56.1679C188.046 54.7534 187.18 53.3203 185.528 53.3203C184.039 53.3203 182.908 54.5307 182.908 56.14V56.1632C182.908 57.8096 184.048 59.0061 185.621 59.0061C186.501 59.0108 187.329 58.5934 187.85 57.8838L187.962 57.74L187.427 57.318L187.311 57.4664C186.915 57.9997 186.296 58.3197 185.631 58.329C184.574 58.329 183.778 57.5731 183.653 56.4647H188.046V56.1679ZM183.648 55.8015C183.778 54.7394 184.532 53.9928 185.505 53.9928C186.617 53.9928 187.194 54.8739 187.301 55.8015H183.648Z" fill="#636569"/>
<path d="M179.404 53.3207C178.594 53.3068 177.826 53.6824 177.342 54.3271V53.4413H176.644V60.4905H177.342V58.014C177.835 58.6494 178.599 59.0158 179.404 59.0065C180.916 59.0065 182.103 57.7636 182.103 56.1543C182.103 54.5636 180.916 53.3207 179.404 53.3207ZM179.376 54.0024C180.521 54.0024 181.386 54.93 181.386 56.1636V56.1821C181.386 57.4389 180.558 58.3201 179.376 58.3201C178.226 58.3201 177.319 57.3787 177.319 56.1543C177.319 54.9485 178.222 54.0024 179.376 54.0024Z" fill="#636569"/>
<path d="M175.522 53.4363V56.5482C175.504 57.8977 174.41 58.9829 173.056 58.9969C171.665 58.9969 170.771 58.0508 170.771 56.5853V53.4316H171.469V56.5342C171.469 57.6705 172.065 58.3198 173.098 58.3198C174.07 58.3198 174.829 57.5082 174.829 56.474V53.4316H175.522V53.4363Z" fill="#636569"/>
<path d="M167.123 53.2754C165.568 53.2662 164.303 54.5091 164.289 56.0581C164.289 56.0766 164.289 56.0998 164.289 56.1183V56.1369C164.316 57.6905 165.601 58.9288 167.16 58.901C168.719 58.8731 169.961 57.5931 169.934 56.0395C169.906 54.5091 168.658 53.2801 167.123 53.2754ZM167.123 58.2841C165.941 58.2841 165.019 57.3334 165.019 56.1044C165.019 54.8754 165.913 53.9479 167.099 53.9479C168.268 53.9479 169.217 54.8894 169.217 56.0534C169.217 56.072 169.217 56.0859 169.217 56.1044V56.123C169.217 57.3566 168.319 58.2841 167.123 58.2841Z" fill="#636569"/>
<path d="M163.297 51.1641H162.585V58.8765H163.297V51.1641Z" fill="#636569"/>
<path d="M160.84 53.9611C160.435 53.5576 159.844 53.3535 159.09 53.3535C158.439 53.3582 157.792 53.5158 157.215 53.8173L157.052 53.8915L157.322 54.5222L157.504 54.4341C157.988 54.1744 158.523 54.0353 159.072 54.0306C159.816 54.0306 160.701 54.295 160.701 55.5518V55.6399C160.17 55.4961 159.621 55.4219 159.072 55.4219C157.592 55.4219 156.633 56.1361 156.633 57.2399V57.2584C156.633 58.4503 157.727 58.9929 158.751 58.9929C160.622 58.9929 161.399 57.8706 161.399 56.841V55.5286C161.431 54.9581 161.231 54.3924 160.84 53.9611ZM160.715 56.8735C160.715 57.7176 159.863 58.3251 158.769 58.3251C158.062 58.3251 157.355 57.9912 157.355 57.2213C157.355 56.3958 158.234 56.099 159.063 56.099C159.621 56.0944 160.179 56.1732 160.715 56.3355V56.8735Z" fill="#636569"/>
<path d="M153.966 54.1003V57.3606C153.966 57.9774 154.26 58.2928 154.841 58.2928C155.079 58.2881 155.316 58.2325 155.53 58.1305L155.795 58.0052V58.7241L155.693 58.7751C155.418 58.905 155.116 58.9699 154.813 58.9652C153.85 58.9652 153.273 58.3763 153.273 57.3884V51.7305H153.966V53.4279H155.814V54.0957H153.966V54.1003Z" fill="#636569"/>
<path d="M152.208 55.7231V58.8767H151.514V55.7695C151.514 54.6379 150.918 53.984 149.881 53.984C148.913 53.984 148.149 54.7955 148.149 55.8297V58.8721H147.456V53.4274H148.149V54.137C148.582 53.6037 149.234 53.2976 149.923 53.3068C151.309 53.3161 152.208 54.2622 152.208 55.7231Z" fill="#636569"/>
<path d="M145.962 53.9611C145.557 53.5576 144.966 53.3535 144.212 53.3535C143.561 53.3582 142.919 53.5158 142.337 53.8173L142.174 53.8915L142.444 54.5222L142.621 54.4341C143.105 54.1744 143.645 54.0353 144.189 54.0306C144.934 54.0306 145.818 54.295 145.818 55.5518V55.6399C145.287 55.4961 144.738 55.4219 144.189 55.4219C142.709 55.4219 141.75 56.1361 141.75 57.2399V57.2584C141.75 58.4503 142.844 58.9929 143.868 58.9929C145.739 58.9929 146.516 57.8706 146.516 56.841V55.5286C146.549 54.9581 146.348 54.3924 145.962 53.9611ZM145.832 56.8735C145.832 57.7176 144.98 58.3251 143.887 58.3251C143.179 58.3251 142.472 57.9912 142.472 57.2213C142.472 56.3958 143.351 56.099 144.18 56.099C144.738 56.0944 145.297 56.1732 145.832 56.3355V56.8735Z" fill="#636569"/>
<path d="M140.918 57.7871L140.792 57.9263C140.164 58.659 139.456 58.9976 138.572 58.9976C137.022 58.979 135.775 57.7129 135.789 56.1686V56.1454C135.78 54.5964 137.027 53.3303 138.581 53.3164C139.652 53.3164 140.299 53.8451 140.745 54.3089L140.871 54.4387L140.373 54.935L140.243 54.7958C139.722 54.2393 139.205 53.9935 138.572 53.9935C137.413 53.9935 136.511 54.935 136.511 56.1454C136.511 57.3605 137.446 58.3297 138.595 58.3297C139.228 58.3297 139.763 58.0607 140.28 57.4903L140.406 57.3512L140.918 57.7871Z" fill="#636569"/>
<path d="M126.384 59.8697C126.575 59.7491 127.831 60.7137 128.231 61.3445C128.576 61.8871 128.562 62.5085 128.199 62.7358C127.84 62.963 127.268 62.7079 126.928 62.1653C126.523 61.53 126.184 59.9949 126.384 59.8697Z" fill="#FF7F30"/>
<path d="M127.543 58.1314C127.659 57.918 129.353 58.1777 130.061 58.5673C130.67 58.9012 130.982 59.4995 130.759 59.8983C130.535 60.3018 129.865 60.3575 129.255 60.0235C128.548 59.634 127.417 58.354 127.543 58.1314Z" fill="#FF7F30"/>
<path d="M127.789 56.1275C127.789 55.8678 129.516 55.2324 130.39 55.2324C131.135 55.2324 131.74 55.6313 131.74 56.1275C131.74 56.6237 131.135 57.0226 130.39 57.0226C129.516 57.0226 127.789 56.4011 127.789 56.1275Z" fill="#FF7F30"/>
<path d="M127.543 54.1005C127.659 54.3138 129.353 54.0541 130.061 53.6645C130.67 53.3306 130.982 52.7324 130.759 52.3335C130.535 51.93 129.865 51.8744 129.255 52.2083C128.548 52.5979 127.417 53.8779 127.543 54.1005Z" fill="#FF7F30"/>
<path d="M126.384 52.3651C126.575 52.4857 127.831 51.5211 128.231 50.8904C128.576 50.3478 128.562 49.7263 128.199 49.4991C127.84 49.2718 127.268 49.5269 126.928 50.0695C126.523 50.7002 126.184 52.2399 126.384 52.3651Z" fill="#FF7F30"/>
<path d="M116.048 56.1317C116.048 56.2708 116.053 56.41 116.057 56.5537C116.29 60.8621 119.985 64.1688 124.313 63.9369C124.657 63.9184 125.002 63.8766 125.341 63.8117C125.569 63.77 125.714 63.552 125.672 63.3294C125.672 63.3201 125.667 63.3155 125.667 63.3062L125.165 61.2656C125.123 61.0987 124.992 60.9734 124.825 60.9317C122.549 60.4494 120.92 58.4459 120.92 56.1271V56.1039C120.92 53.785 122.549 51.7816 124.825 51.2992C124.992 51.2621 125.123 51.1323 125.165 50.9653L125.667 48.9247C125.723 48.7021 125.588 48.4795 125.365 48.4239C125.355 48.4239 125.351 48.4192 125.341 48.4192C121.083 47.6216 116.983 50.4134 116.183 54.6569C116.118 54.9955 116.076 55.334 116.057 55.6772C116.048 55.8163 116.048 55.9601 116.048 56.0992V56.1317Z" fill="#FF7F30"/>
<path d="M60.1842 54.1778C59.8212 53.728 59.2767 53.4961 58.56 53.4961C57.8666 53.4961 57.3268 53.728 56.9452 54.1917V53.8717C56.9452 53.7929 56.9173 53.728 56.8661 53.677C56.8149 53.6259 56.7497 53.5981 56.6706 53.5981H56.2052C56.1261 53.5981 56.061 53.6259 56.0098 53.677C55.9586 53.728 55.9307 53.7929 55.9307 53.8717V60.5639C55.9307 60.6428 55.9586 60.7077 56.0098 60.7587C56.061 60.8097 56.1261 60.8375 56.2052 60.8375H56.6985C56.7776 60.8375 56.8428 60.8097 56.8893 60.7587C56.9359 60.7077 56.9591 60.6428 56.9591 60.5639V58.3425C57.3501 58.7923 57.8899 59.0242 58.5554 59.0242C59.2674 59.0242 59.8119 58.7923 60.1749 58.3378C60.5379 57.888 60.7333 57.3036 60.7613 56.608C60.7706 56.5338 60.7706 56.4132 60.7706 56.2602C60.7706 56.1071 60.7659 55.9912 60.7613 55.917C60.738 55.2074 60.5425 54.6231 60.1842 54.1778ZM58.346 54.3958C59.2721 54.3958 59.7188 55.0033 59.7188 56.2602C59.7188 56.3854 59.7142 56.4828 59.7095 56.5523C59.6909 57.0254 59.5699 57.4103 59.3605 57.6978C59.1511 57.9807 58.8113 58.1245 58.346 58.1245C57.9085 58.1245 57.5688 57.9807 57.3361 57.6978C57.0988 57.4103 56.9731 57.0717 56.9591 56.6868L56.9498 56.2973L56.9591 55.917C56.9778 55.5042 57.1034 55.1425 57.3314 54.8457C57.5548 54.5442 57.8992 54.3958 58.346 54.3958Z" fill="#636569"/>
<path d="M65.7875 54.1368C65.3686 53.7102 64.7822 53.4922 64.0377 53.4922C63.2931 53.4922 62.7067 53.7102 62.2878 54.1368C61.869 54.5635 61.6456 55.1293 61.6177 55.8203L61.6084 56.2562L61.6177 56.6922C61.6456 57.3925 61.869 57.9583 62.2832 58.3803C62.6974 58.8023 63.2884 59.0157 64.0377 59.0157C64.7869 59.0157 65.3779 58.8023 65.7921 58.3803C66.2063 57.9583 66.4297 57.3878 66.4576 56.6922C66.4622 56.6133 66.4669 56.4649 66.4669 56.2562C66.4669 56.0429 66.4622 55.8991 66.4576 55.8203C66.4297 55.1293 66.2063 54.5635 65.7875 54.1368ZM62.6741 55.876C62.6881 55.3844 62.8184 55.0041 63.0557 54.7444C63.2977 54.4847 63.6235 54.3548 64.0377 54.3548C64.4472 54.3548 64.7776 54.4847 65.0149 54.7444C65.2523 55.0041 65.3826 55.3844 65.4059 55.8806C65.4105 55.9502 65.4152 56.08 65.4152 56.2609C65.4152 56.4418 65.4105 56.5716 65.4059 56.6412C65.3872 57.1328 65.2569 57.5131 65.0149 57.7728C64.7776 58.0325 64.4518 58.1623 64.0377 58.1623C63.6281 58.1623 63.2977 58.0325 63.0557 57.7728C62.8137 57.5131 62.6881 57.1328 62.6741 56.6412L62.6648 56.2609L62.6741 55.876Z" fill="#636569"/>
<path d="M74.3732 53.5984H73.9172C73.838 53.5984 73.7729 53.6216 73.7217 53.668C73.6705 53.7143 73.6426 53.7561 73.6333 53.7978L72.549 57.4662L71.3855 53.8395C71.3716 53.7793 71.3343 53.7236 71.2831 53.6726C71.2273 53.6216 71.1528 53.5938 71.0644 53.5938H70.72C70.627 53.5938 70.5525 53.6216 70.5013 53.6726C70.4501 53.7236 70.4129 53.7793 70.3989 53.8349L69.2355 57.4662L68.1512 53.7932C68.1326 53.7468 68.1 53.7004 68.0534 53.6587C68.0023 53.6169 67.9371 53.5938 67.858 53.5938H67.4112C67.3461 53.5938 67.2902 53.6169 67.2344 53.6633C67.1832 53.7097 67.1553 53.7746 67.1553 53.8535L67.1785 53.9601L68.6165 58.6396C68.6538 58.7323 68.6957 58.8019 68.7515 58.8482C68.8074 58.8946 68.8818 58.9178 68.9795 58.9178H69.3751C69.5706 58.9178 69.6962 58.8251 69.7567 58.6396L70.8922 55.152L72.0231 58.6349C72.0696 58.8204 72.1953 58.9178 72.3954 58.9178H72.791C72.8933 58.9178 72.9771 58.8946 73.0329 58.8482C73.0841 58.8019 73.1307 58.7323 73.1679 58.6396L74.5966 53.9601L74.6152 53.8535C74.6152 53.7839 74.592 53.719 74.5408 53.6726C74.4989 53.6216 74.4384 53.5984 74.3732 53.5984Z" fill="#636569"/>
<path d="M77.6913 53.4961C77.0026 53.4961 76.4395 53.7187 76.0206 54.1546C75.6018 54.5906 75.3644 55.1796 75.3179 55.917L75.3086 56.2509L75.3179 56.5941C75.3598 57.3407 75.5925 57.939 76.0113 58.3703C76.4348 58.8016 77.0025 59.0242 77.7053 59.0242C78.1427 59.0242 78.5336 58.9454 78.8687 58.7923C79.2038 58.6393 79.4737 58.4538 79.6598 58.2451C79.8553 58.0271 79.9484 57.8416 79.9484 57.6839C79.9484 57.6097 79.9251 57.5541 79.8739 57.5123C79.8274 57.4706 79.7669 57.452 79.6971 57.452H79.2038C79.1153 57.452 79.0548 57.4613 79.0176 57.4845C78.9944 57.4984 78.9571 57.5262 78.8687 57.6422C78.7756 57.772 78.636 57.8973 78.4406 58.0178C78.2498 58.1384 77.9985 58.1987 77.7006 58.1987C77.3097 58.1987 76.9932 58.0503 76.7559 57.7535C76.5186 57.4567 76.3836 57.0903 76.365 56.6636V56.6126H79.8227C79.9018 56.6126 79.967 56.5848 80.0182 56.5338C80.0694 56.4828 80.0973 56.4178 80.0973 56.339V56.1674C80.0973 55.3558 79.8879 54.7019 79.469 54.2196C79.0455 53.7419 78.4499 53.4961 77.6913 53.4961ZM76.714 54.739C76.9514 54.4561 77.2771 54.317 77.6867 54.317C78.0962 54.317 78.4266 54.4607 78.6732 54.739C78.9152 55.0173 79.0409 55.3883 79.0409 55.8335H76.3557C76.3603 55.3883 76.4813 55.0173 76.714 54.739Z" fill="#636569"/>
<path d="M83.9089 53.5996H83.5134C82.8898 53.5996 82.4291 53.799 82.1405 54.1886V53.8825C82.1405 53.8037 82.1126 53.7387 82.0568 53.6831C82.0009 53.6274 81.9358 53.5996 81.8566 53.5996H81.3913C81.3122 53.5996 81.247 53.6274 81.1958 53.6831C81.1446 53.7387 81.1167 53.8037 81.1167 53.8825V58.65C81.1167 58.7289 81.1446 58.7938 81.1958 58.8448C81.247 58.8958 81.3122 58.9237 81.3913 58.9237H81.8892C81.9683 58.9237 82.0335 58.8958 82.0893 58.8448C82.1452 58.7938 82.1731 58.7289 82.1731 58.65V55.6866C82.1731 55.3387 82.2755 55.0558 82.4756 54.8518C82.6757 54.6477 82.9549 54.5457 83.304 54.5457H83.9089C83.9881 54.5457 84.0532 54.5225 84.1044 54.4761C84.1556 54.4298 84.1835 54.3648 84.1835 54.286V53.8732C84.1835 53.7944 84.1556 53.7295 84.1044 53.6784C84.0532 53.6228 83.9881 53.5996 83.9089 53.5996Z" fill="#636569"/>
<path d="M86.9945 53.4961C86.3058 53.4961 85.7427 53.7187 85.3238 54.1546C84.905 54.5906 84.6677 55.1796 84.6211 55.917L84.6118 56.2509L84.6211 56.5941C84.663 57.3407 84.8957 57.939 85.3145 58.3703C85.738 58.8016 86.3058 59.0242 87.0085 59.0242C87.4459 59.0242 87.8369 58.9454 88.1719 58.7923C88.507 58.6393 88.7769 58.4538 88.9631 58.2451C89.1585 58.0271 89.2516 57.8416 89.2516 57.6839C89.2516 57.6097 89.2283 57.5541 89.1771 57.5123C89.1306 57.4706 89.0701 57.452 89.0003 57.452H88.507C88.4186 57.452 88.3581 57.4613 88.3208 57.4845C88.2976 57.4984 88.2603 57.5262 88.1719 57.6422C88.0789 57.772 87.9392 57.8973 87.7438 58.0178C87.553 58.1384 87.3017 58.1987 87.0038 58.1987C86.6129 58.1987 86.2965 58.0503 86.0591 57.7535C85.8218 57.4567 85.6868 57.0903 85.6682 56.6636V56.6126H89.1259C89.2051 56.6126 89.2702 56.5848 89.3214 56.5338C89.3726 56.4828 89.4005 56.4178 89.4005 56.339V56.1674C89.4005 55.3558 89.1911 54.7019 88.7723 54.2196C88.3488 53.7419 87.7531 53.4961 86.9945 53.4961ZM86.0219 54.739C86.2592 54.4561 86.585 54.317 86.9945 54.317C87.4041 54.317 87.7345 54.4607 87.9811 54.739C88.2231 55.0173 88.3488 55.3883 88.3488 55.8335H85.6636C85.6636 55.3883 85.7846 55.0173 86.0219 54.739Z" fill="#636569"/>
<path d="M94.7384 51.6836H94.2544C94.1753 51.6836 94.1101 51.7114 94.059 51.7624C94.0078 51.8135 93.9798 51.8784 93.9798 51.9572V54.1601C93.5796 53.7195 93.0444 53.4969 92.3836 53.4969C91.6716 53.4969 91.1271 53.7334 90.7641 54.2019C90.4011 54.6656 90.2103 55.2546 90.187 55.9549L90.1777 56.261L90.187 56.5624C90.2057 57.2674 90.4011 57.8563 90.7641 58.3201C91.1271 58.7839 91.6716 59.0204 92.3836 59.0204C93.0724 59.0204 93.6169 58.7932 94.0124 58.3387V58.6448C94.0124 58.7236 94.0403 58.7885 94.0915 58.8395C94.1427 58.8906 94.2079 58.9184 94.287 58.9184H94.7431C94.8222 58.9184 94.8873 58.8906 94.9385 58.8395C94.9897 58.7885 95.0176 58.7236 95.0176 58.6448V51.9526C95.0176 51.8737 94.9897 51.8088 94.9385 51.7578C94.8827 51.7068 94.8175 51.6836 94.7384 51.6836ZM92.5977 58.1207C91.6716 58.1207 91.2248 57.5132 91.2248 56.261L91.2341 55.9688C91.2528 55.4958 91.3737 55.1108 91.5832 54.8233C91.7926 54.5404 92.1323 54.3966 92.5977 54.3966C93.0351 54.3966 93.3749 54.5404 93.6075 54.8233C93.8449 55.1108 93.9705 55.4494 93.9845 55.839C93.9892 55.9132 93.9938 56.0477 93.9938 56.2285C93.9938 56.4001 93.9892 56.5346 93.9845 56.6088C93.9659 57.0216 93.8402 57.3833 93.6122 57.6801C93.3842 57.9723 93.0444 58.1207 92.5977 58.1207Z" fill="#636569"/>
<path d="M102.971 54.2019C102.608 53.7334 102.063 53.4969 101.351 53.4969C100.69 53.4969 100.151 53.7195 99.755 54.1601V51.9572C99.755 51.8784 99.7318 51.8135 99.6852 51.7624C99.6387 51.7114 99.5735 51.6836 99.4944 51.6836H99.0011C98.922 51.6836 98.8569 51.7114 98.8057 51.7624C98.7545 51.8135 98.7266 51.8784 98.7266 51.9572V58.6494C98.7266 58.7282 98.7545 58.7932 98.8057 58.8442C98.8569 58.8952 98.922 58.923 99.0011 58.923H99.4665C99.5456 58.923 99.6108 58.8952 99.662 58.8442C99.7132 58.7932 99.7411 58.7282 99.7411 58.6494V58.3433C100.123 58.7932 100.667 59.0204 101.356 59.0204C102.068 59.0204 102.612 58.7839 102.975 58.3201C103.338 57.8563 103.534 57.2674 103.562 56.5671C103.571 56.4929 103.571 56.3862 103.571 56.261C103.571 56.1358 103.566 56.0337 103.562 55.9549C103.529 55.2592 103.334 54.6703 102.971 54.2019ZM101.142 54.3966C102.068 54.3966 102.515 55.0042 102.515 56.261C102.515 56.3862 102.51 56.4836 102.505 56.5532C102.487 57.0262 102.366 57.4111 102.156 57.6987C101.947 57.9816 101.607 58.1253 101.142 58.1253C100.69 58.1253 100.351 57.9769 100.127 57.6848C99.8993 57.3879 99.7783 57.0262 99.755 56.6135L99.7457 56.2332L99.755 55.839C99.769 55.454 99.8946 55.1108 100.132 54.8279C100.365 54.5404 100.704 54.3966 101.142 54.3966Z" fill="#636569"/>
<path d="M109.207 53.6687C109.16 53.6223 109.095 53.5945 109.025 53.5945H108.55C108.42 53.5945 108.322 53.6594 108.257 53.7893L106.717 57.3649L105.218 53.7846C105.158 53.6548 105.065 53.5898 104.939 53.5898H104.446C104.376 53.5898 104.311 53.613 104.264 53.664C104.218 53.7104 104.19 53.7707 104.19 53.8449C104.19 53.8635 104.195 53.9052 104.246 54.0304L106.172 58.5568L105.4 60.3841C105.363 60.4629 105.344 60.5278 105.344 60.5835C105.344 60.6484 105.367 60.704 105.419 60.7551C105.465 60.8014 105.526 60.8293 105.591 60.8293H106.065C106.196 60.8293 106.293 60.7643 106.354 60.6345L109.225 54.0304C109.272 53.8913 109.276 53.8542 109.276 53.8356C109.281 53.7754 109.258 53.7197 109.207 53.6687Z" fill="#636569"/>
<path d="M129.851 1.11762V6.52051H128.729C121.097 6.52051 113.404 11.9837 113.404 24.2365V40.1437H108.346V1.68805H113.404V9.90138C116.978 4.22486 122.912 0.904282 129.12 1.08515L129.851 1.11762Z" fill="#636569"/>
<path d="M150.713 0.826172C140.424 0.826172 132.377 9.60994 132.377 20.8331V20.9815C132.377 32.381 140.512 40.9885 151.304 40.9885C159.472 40.9885 164.069 37.167 167.197 33.8186L167.727 33.2296L164.13 30.0575L163.599 30.614C160.063 34.403 156.2 36.1653 151.425 36.1653C144.175 36.1653 138.632 30.8459 137.748 23.1195H168.351L168.439 22.4424C168.5 21.8256 168.5 21.5891 168.5 20.9166C168.49 9.08124 161.179 0.826172 150.713 0.826172ZM137.739 18.4262C138.683 10.9363 143.961 5.58907 150.592 5.58907C158.787 5.58907 162.385 12.3183 163.064 18.4262H137.739Z" fill="#636569"/>
<path d="M56.9359 16.9567V40.1498H51.868V17.3788C51.868 9.85182 48.1357 5.52486 41.6111 5.52486C36.3338 5.52486 30.6562 9.36486 30.6562 17.8333V40.1451H25.565V17.1654C25.565 10.4222 22.1678 6.09993 16.6438 5.58515C16.3739 5.52486 16.0993 5.52486 15.8248 5.52486H15.4897C9.17922 5.67326 5.56792 9.97239 5.56792 17.3788V40.1451H0.5V16.9567C0.5 7.09703 6.38698 0.748047 15.5223 0.748047C15.6712 0.748047 15.8248 0.748047 15.9783 0.780511C19.2871 0.840801 22.1725 1.74515 24.625 3.50283C24.9926 3.74399 25.323 4.01297 25.6581 4.31906C26.9658 5.50167 27.9059 6.80022 28.5714 7.95037C28.6319 7.89008 28.6644 7.79732 28.7249 7.73703C31.9034 3.10399 36.3384 0.748047 41.9183 0.748047C51.0536 0.748047 56.9359 7.09703 56.9359 16.9567Z" fill="#636569"/>
<path fill-rule="evenodd" clip-rule="evenodd" d="M103.04 20.7773C103.04 32.2264 93.727 41.5077 82.2383 41.5077C70.7495 41.5077 61.436 32.2264 61.436 20.7773C61.436 9.32821 70.7495 0.046875 82.2383 0.046875C93.727 0.046875 103.04 9.32821 103.04 20.7773ZM85.8216 13.9553L83.5366 9.34079C83.0061 8.27412 81.475 8.27412 80.9585 9.34079L78.6735 13.9553C78.1709 14.9756 77.1936 15.6851 76.0627 15.8475L70.9529 16.5895C69.7662 16.7611 69.2962 18.208 70.1525 19.0428L73.8476 22.6324C74.662 23.4254 75.0343 24.5709 74.8435 25.6933L73.9686 30.7622C73.7638 31.9356 75.0017 32.8353 76.0627 32.2788L80.6327 29.8857C81.6426 29.357 82.8525 29.357 83.8624 29.8857L88.4324 32.2788C89.4888 32.8353 90.7267 31.9402 90.5266 30.7622L89.6517 25.6933C89.4562 24.5709 89.8285 23.4254 90.6476 22.6324L94.3426 19.0428C95.1989 18.2127 94.7289 16.7611 93.5422 16.5895L88.4324 15.8475C87.3062 15.6851 86.3289 14.9756 85.8216 13.9553Z" fill="#FF7F30"/>
</svg>
