<svg width="22" height="28" viewBox="0 0 22 28" fill="none" xmlns="http://www.w3.org/2000/svg">
<path d="M11.0002 11.5651C16.3015 11.5651 21.6668 9.7331 21.6668 6.23177C21.6668 2.73044 16.3015 0.898438 11.0002 0.898438C5.69883 0.898438 0.333496 2.73044 0.333496 6.23177C0.333496 9.7331 5.69883 11.5651 11.0002 11.5651Z" fill="#FF7F32"/>
<path d="M0.333496 11.5651C0.333496 15.0664 5.69883 16.8984 11.0002 16.8984C16.3015 16.8984 21.6668 15.0664 21.6668 11.5651V8.89844C21.6668 12.3998 16.3015 14.2318 11.0002 14.2318C5.69883 14.2318 0.333496 12.3998 0.333496 8.89844L0.333496 11.5651Z" fill="#FF7F32"/>
<path d="M0.333496 16.8991C0.333496 20.4004 5.69883 22.2324 11.0002 22.2324C16.3015 22.2324 21.6668 20.4004 21.6668 16.8991V14.2324C21.6668 17.7338 16.3015 19.5658 11.0002 19.5658C5.69883 19.5658 0.333496 17.7338 0.333496 14.2324L0.333496 16.8991Z" fill="#FF7F32"/>
<path d="M0.333496 22.2331C0.333496 25.7344 5.69883 27.5664 11.0002 27.5664C16.3015 27.5664 21.6668 25.7344 21.6668 22.2331V19.5664C21.6668 23.0677 16.3015 24.8997 11.0002 24.8997C5.69883 24.8997 0.333496 23.0677 0.333496 19.5664L0.333496 22.2331Z" fill="#FF7F32"/>
</svg>
