<svg width="24" height="34" viewBox="0 0 24 34" fill="none" xmlns="http://www.w3.org/2000/svg">
<g clip-path="url(#clip0_6147_116575)">
<g filter="url(#filter0_f_6147_116575)">
<ellipse cx="12" cy="29.7285" rx="4" ry="2" fill="black" fill-opacity="0.12"/>
</g>
<mask id="path-2-outside-1_6147_116575" maskUnits="userSpaceOnUse" x="1" y="1.76172" width="22" height="29" fill="black">
<rect fill="white" x="1" y="1.76172" width="22" height="29"/>
<path fill-rule="evenodd" clip-rule="evenodd" d="M17.9159 21.1164C20.3926 19.2668 22 16.2857 22 12.9231C22 7.31112 17.5228 2.76172 12 2.76172C6.47715 2.76172 2 7.31112 2 12.9231C2 16.2857 3.60741 19.2668 6.08404 21.1164C7.96789 22.5588 10.6241 24.835 11.2305 28.5004C11.2937 28.8819 11.6133 29.1782 12 29.1782C12.3867 29.1782 12.7063 28.8819 12.7695 28.5004C13.3759 24.8351 16.0321 22.5588 17.9159 21.1164Z"/>
</mask>
<path fill-rule="evenodd" clip-rule="evenodd" d="M17.9159 21.1164C20.3926 19.2668 22 16.2857 22 12.9231C22 7.31112 17.5228 2.76172 12 2.76172C6.47715 2.76172 2 7.31112 2 12.9231C2 16.2857 3.60741 19.2668 6.08404 21.1164C7.96789 22.5588 10.6241 24.835 11.2305 28.5004C11.2937 28.8819 11.6133 29.1782 12 29.1782C12.3867 29.1782 12.7063 28.8819 12.7695 28.5004C13.3759 24.8351 16.0321 22.5588 17.9159 21.1164Z" fill="#9D2BF6"/>
<path d="M17.9159 21.1164L17.3175 20.3151L17.308 20.3224L17.9159 21.1164ZM6.08404 21.1164L6.69203 20.3223L6.6824 20.3151L6.08404 21.1164ZM11.2305 28.5004L10.2439 28.6637L11.2305 28.5004ZM12.7695 28.5004L13.7561 28.6637V28.6636L12.7695 28.5004ZM18.5143 21.9176C21.236 19.885 23 16.6107 23 12.9231H21C21 15.9607 19.5492 18.6486 17.3176 20.3151L18.5143 21.9176ZM23 12.9231C23 6.77398 18.0902 1.76172 12 1.76172V3.76172C16.9555 3.76172 21 7.84825 21 12.9231H23ZM12 1.76172C5.90984 1.76172 1 6.77398 1 12.9231H3C3 7.84825 7.04447 3.76172 12 3.76172V1.76172ZM1 12.9231C1 16.6107 2.76399 19.885 5.48569 21.9176L6.6824 20.3151C4.45083 18.6486 3 15.9607 3 12.9231H1ZM12.2171 28.3372C11.5425 24.2598 8.59246 21.7775 6.69198 20.3224L5.47611 21.9104C7.34332 23.34 9.70567 25.4103 10.2439 28.6637L12.2171 28.3372ZM12 28.1782C12.0689 28.1782 12.1259 28.206 12.1605 28.237C12.193 28.266 12.2112 28.3014 12.2171 28.3372L10.2439 28.6637C10.3793 29.4819 11.0788 30.1782 12 30.1782V28.1782ZM11.7829 28.3372C11.7888 28.3014 11.807 28.266 11.8395 28.237C11.8741 28.206 11.9311 28.1782 12 28.1782V30.1782C12.9212 30.1782 13.6207 29.4819 13.7561 28.6637L11.7829 28.3372ZM17.308 20.3224C15.4075 21.7775 12.4575 24.2598 11.7829 28.3372L13.7561 28.6636C14.2943 25.4103 16.6567 23.34 18.5239 21.9104L17.308 20.3224Z" fill="url(#paint0_linear_6147_116575)" mask="url(#path-2-outside-1_6147_116575)"/>
</g>
<defs>
<filter id="filter0_f_6147_116575" x="6" y="25.7285" width="12" height="8" filterUnits="userSpaceOnUse" color-interpolation-filters="sRGB">
<feFlood flood-opacity="0" result="BackgroundImageFix"/>
<feBlend mode="normal" in="SourceGraphic" in2="BackgroundImageFix" result="shape"/>
<feGaussianBlur stdDeviation="1" result="effect1_foregroundBlur_6147_116575"/>
</filter>
<linearGradient id="paint0_linear_6147_116575" x1="12" y1="2.76172" x2="12" y2="29.1782" gradientUnits="userSpaceOnUse">
<stop stop-color="white"/>
<stop offset="1" stop-color="white" stop-opacity="0.35"/>
</linearGradient>
<clipPath id="clip0_6147_116575">
<rect width="24" height="32.5164" fill="white" transform="translate(0 0.728516)"/>
</clipPath>
</defs>
</svg>
