<svg width="24" height="33" viewBox="0 0 24 33" fill="none" xmlns="http://www.w3.org/2000/svg">
<g clip-path="url(#clip0_6147_116576)">
<g filter="url(#filter0_f_6147_116576)">
<ellipse cx="12" cy="29.2129" rx="4" ry="2" fill="black" fill-opacity="0.12"/>
</g>
<mask id="path-2-outside-1_6147_116576" maskUnits="userSpaceOnUse" x="1" y="1.24609" width="22" height="29" fill="black">
<rect fill="white" x="1" y="1.24609" width="22" height="29"/>
<path fill-rule="evenodd" clip-rule="evenodd" d="M17.9159 20.6007C20.3926 18.7512 22 15.7701 22 12.4075C22 6.79549 17.5228 2.24609 12 2.24609C6.47715 2.24609 2 6.79549 2 12.4075C2 15.7701 3.60741 18.7512 6.08404 20.6007C7.96789 22.0432 10.6241 24.3194 11.2305 27.9848C11.2937 28.3663 11.6133 28.6625 12 28.6625C12.3867 28.6625 12.7063 28.3663 12.7695 27.9848C13.3759 24.3194 16.0321 22.0432 17.9159 20.6007Z"/>
</mask>
<path fill-rule="evenodd" clip-rule="evenodd" d="M17.9159 20.6007C20.3926 18.7512 22 15.7701 22 12.4075C22 6.79549 17.5228 2.24609 12 2.24609C6.47715 2.24609 2 6.79549 2 12.4075C2 15.7701 3.60741 18.7512 6.08404 20.6007C7.96789 22.0432 10.6241 24.3194 11.2305 27.9848C11.2937 28.3663 11.6133 28.6625 12 28.6625C12.3867 28.6625 12.7063 28.3663 12.7695 27.9848C13.3759 24.3194 16.0321 22.0432 17.9159 20.6007Z" fill="#5576D1"/>
<path d="M17.9159 20.6007L17.3175 19.7995L17.308 19.8068L17.9159 20.6007ZM6.08404 20.6007L6.69203 19.8067L6.6824 19.7995L6.08404 20.6007ZM11.2305 27.9848L10.2439 28.148L11.2305 27.9848ZM12.7695 27.9848L13.7561 28.148V28.148L12.7695 27.9848ZM18.5143 21.402C21.236 19.3694 23 16.0951 23 12.4075H21C21 15.4451 19.5492 18.133 17.3176 19.7995L18.5143 21.402ZM23 12.4075C23 6.25836 18.0902 1.24609 12 1.24609V3.24609C16.9555 3.24609 21 7.33262 21 12.4075H23ZM12 1.24609C5.90984 1.24609 1 6.25836 1 12.4075H3C3 7.33262 7.04447 3.24609 12 3.24609V1.24609ZM1 12.4075C1 16.095 2.76399 19.3694 5.48569 21.402L6.6824 19.7995C4.45083 18.133 3 15.4451 3 12.4075H1ZM12.2171 27.8216C11.5425 23.7442 8.59246 21.2619 6.69198 19.8068L5.47611 21.3947C7.34332 22.8244 9.70567 24.8947 10.2439 28.148L12.2171 27.8216ZM12 27.6625C12.0689 27.6625 12.1259 27.6904 12.1605 27.7213C12.193 27.7503 12.2112 27.7857 12.2171 27.8216L10.2439 28.148C10.3793 28.9663 11.0788 29.6625 12 29.6625V27.6625ZM11.7829 27.8216C11.7888 27.7857 11.807 27.7503 11.8395 27.7213C11.8741 27.6904 11.9311 27.6625 12 27.6625V29.6625C12.9212 29.6625 13.6207 28.9663 13.7561 28.148L11.7829 27.8216ZM17.308 19.8068C15.4075 21.2619 12.4575 23.7442 11.7829 27.8216L13.7561 28.148C14.2943 24.8947 16.6567 22.8244 18.5239 21.3947L17.308 19.8068Z" fill="url(#paint0_linear_6147_116576)" mask="url(#path-2-outside-1_6147_116576)"/>
</g>
<defs>
<filter id="filter0_f_6147_116576" x="6" y="25.2129" width="12" height="8" filterUnits="userSpaceOnUse" color-interpolation-filters="sRGB">
<feFlood flood-opacity="0" result="BackgroundImageFix"/>
<feBlend mode="normal" in="SourceGraphic" in2="BackgroundImageFix" result="shape"/>
<feGaussianBlur stdDeviation="1" result="effect1_foregroundBlur_6147_116576"/>
</filter>
<linearGradient id="paint0_linear_6147_116576" x1="12" y1="2.24609" x2="12" y2="28.6625" gradientUnits="userSpaceOnUse">
<stop stop-color="white"/>
<stop offset="1" stop-color="white" stop-opacity="0.35"/>
</linearGradient>
<clipPath id="clip0_6147_116576">
<rect width="24" height="32.5164" fill="white" transform="translate(0 0.212891)"/>
</clipPath>
</defs>
</svg>
