<svg width="24" height="36" viewBox="0 0 24 36" fill="none" xmlns="http://www.w3.org/2000/svg">
<g filter="url(#filter0_f_6147_116577)">
<ellipse cx="12" cy="29.1055" rx="4" ry="2" fill="black" fill-opacity="0.12"/>
</g>
<mask id="path-2-outside-1_6147_116577" maskUnits="userSpaceOnUse" x="1" y="1.29883" width="22" height="31" fill="black">
<rect fill="white" x="1" y="1.29883" width="22" height="31"/>
<path fill-rule="evenodd" clip-rule="evenodd" d="M17.9159 22.1154C20.3926 20.1186 22 16.9 22 13.2695C22 7.21057 17.5228 2.29883 12 2.29883C6.47715 2.29883 2 7.21057 2 13.2695C2 16.9 3.60743 20.1185 6.0841 22.1154C7.97628 23.6796 10.6476 26.152 11.2385 30.1402C11.295 30.522 11.614 30.8192 12 30.8192C12.386 30.8192 12.705 30.522 12.7615 30.1402C13.3524 26.152 16.0237 23.6796 17.9159 22.1154Z"/>
</mask>
<path fill-rule="evenodd" clip-rule="evenodd" d="M17.9159 22.1154C20.3926 20.1186 22 16.9 22 13.2695C22 7.21057 17.5228 2.29883 12 2.29883C6.47715 2.29883 2 7.21057 2 13.2695C2 16.9 3.60743 20.1185 6.0841 22.1154C7.97628 23.6796 10.6476 26.152 11.2385 30.1402C11.295 30.522 11.614 30.8192 12 30.8192C12.386 30.8192 12.705 30.522 12.7615 30.1402C13.3524 26.152 16.0237 23.6796 17.9159 22.1154Z" fill="#50CD3B"/>
<path d="M17.9159 22.1154L17.2882 21.3369L17.2788 21.3447L17.9159 22.1154ZM6.0841 22.1154L6.72129 21.3446L6.71176 21.3369L6.0841 22.1154ZM11.2385 30.1402L12.2277 29.9936V29.9936L11.2385 30.1402ZM12.7615 30.1402L11.7723 29.9936V29.9936L12.7615 30.1402ZM18.5436 22.8939C21.2618 20.7023 23 17.1945 23 13.2695H21C21 16.6054 19.5234 19.5348 17.2882 21.3369L18.5436 22.8939ZM23 13.2695C23 6.74749 18.1603 1.29883 12 1.29883V3.29883C16.8854 3.29883 21 7.67365 21 13.2695H23ZM12 1.29883C5.8397 1.29883 1 6.74749 1 13.2695H3C3 7.67365 7.11461 3.29883 12 3.29883V1.29883ZM1 13.2695C1 17.1945 2.73823 20.7023 5.45643 22.8939L6.71176 21.3369C4.47664 19.5348 3 16.6054 3 13.2695H1ZM12.2277 29.9936C11.5785 25.6117 8.64123 22.9318 6.72124 21.3447L5.44695 22.8861C7.31132 24.4273 9.71677 26.6924 10.2493 30.2867L12.2277 29.9936ZM12 29.8192C12.0703 29.8192 12.1293 29.8477 12.1661 29.8809C12.201 29.9124 12.2215 29.9522 12.2277 29.9936L10.2493 30.2867C10.3725 31.1184 11.0784 31.8192 12 31.8192V29.8192ZM11.7723 29.9936C11.7785 29.9522 11.799 29.9124 11.8339 29.8809C11.8707 29.8477 11.9297 29.8192 12 29.8192V31.8192C12.9216 31.8192 13.6275 31.1184 13.7507 30.2867L11.7723 29.9936ZM17.2788 21.3447C15.3588 22.9318 12.4215 25.6117 11.7723 29.9936L13.7507 30.2867C14.2832 26.6924 16.6887 24.4273 18.553 22.8861L17.2788 21.3447Z" fill="url(#paint0_linear_6147_116577)" mask="url(#path-2-outside-1_6147_116577)"/>
<defs>
<filter id="filter0_f_6147_116577" x="6" y="25.1055" width="12" height="8" filterUnits="userSpaceOnUse" color-interpolation-filters="sRGB">
<feFlood flood-opacity="0" result="BackgroundImageFix"/>
<feBlend mode="normal" in="SourceGraphic" in2="BackgroundImageFix" result="shape"/>
<feGaussianBlur stdDeviation="1" result="effect1_foregroundBlur_6147_116577"/>
</filter>
<linearGradient id="paint0_linear_6147_116577" x1="12" y1="2.29883" x2="12" y2="30.8192" gradientUnits="userSpaceOnUse">
<stop stop-color="white"/>
<stop offset="1" stop-color="white" stop-opacity="0.35"/>
</linearGradient>
</defs>
</svg>
