<svg width="24" height="36" viewBox="0 0 24 36" fill="none" xmlns="http://www.w3.org/2000/svg">
<g filter="url(#filter0_f_6147_116578)">
<ellipse cx="12" cy="29" rx="4" ry="2" fill="black" fill-opacity="0.12"/>
</g>
<mask id="path-2-outside-1_6147_116578" maskUnits="userSpaceOnUse" x="1" y="1.19336" width="22" height="31" fill="black">
<rect fill="white" x="1" y="1.19336" width="22" height="31"/>
<path fill-rule="evenodd" clip-rule="evenodd" d="M17.9159 22.0099C20.3926 20.0131 22 16.7945 22 13.164C22 7.1051 17.5228 2.19336 12 2.19336C6.47715 2.19336 2 7.1051 2 13.164C2 16.7945 3.60743 20.0131 6.0841 22.0099C7.97628 23.5741 10.6476 26.0466 11.2385 30.0347C11.295 30.4166 11.614 30.7138 12 30.7138C12.386 30.7138 12.705 30.4166 12.7615 30.0347C13.3524 26.0466 16.0237 23.5741 17.9159 22.0099Z"/>
</mask>
<path fill-rule="evenodd" clip-rule="evenodd" d="M17.9159 22.0099C20.3926 20.0131 22 16.7945 22 13.164C22 7.1051 17.5228 2.19336 12 2.19336C6.47715 2.19336 2 7.1051 2 13.164C2 16.7945 3.60743 20.0131 6.0841 22.0099C7.97628 23.5741 10.6476 26.0466 11.2385 30.0347C11.295 30.4166 11.614 30.7138 12 30.7138C12.386 30.7138 12.705 30.4166 12.7615 30.0347C13.3524 26.0466 16.0237 23.5741 17.9159 22.0099Z" fill="#F22C38"/>
<path d="M17.9159 22.0099L17.2882 21.2314L17.2788 21.2392L17.9159 22.0099ZM6.0841 22.0099L6.72129 21.2391L6.71176 21.2314L6.0841 22.0099ZM11.2385 30.0347L12.2277 29.8882V29.8882L11.2385 30.0347ZM12.7615 30.0347L11.7723 29.8882V29.8882L12.7615 30.0347ZM18.5436 22.7884C21.2618 20.5968 23 17.089 23 13.164H21C21 16.5 19.5234 19.4293 17.2882 21.2314L18.5436 22.7884ZM23 13.164C23 6.64202 18.1603 1.19336 12 1.19336V3.19336C16.8854 3.19336 21 7.56818 21 13.164H23ZM12 1.19336C5.8397 1.19336 1 6.64202 1 13.164H3C3 7.56818 7.11461 3.19336 12 3.19336V1.19336ZM1 13.164C1 17.089 2.73823 20.5968 5.45643 22.7884L6.71176 21.2314C4.47664 19.4293 3 16.5 3 13.164H1ZM12.2277 29.8882C11.5785 25.5062 8.64123 22.8264 6.72124 21.2392L5.44695 22.7807C7.31132 24.3219 9.71677 26.5869 10.2493 30.1812L12.2277 29.8882ZM12 29.7138C12.0703 29.7138 12.1293 29.7422 12.1661 29.7755C12.201 29.8069 12.2215 29.8467 12.2277 29.8882L10.2493 30.1812C10.3725 31.013 11.0784 31.7138 12 31.7138V29.7138ZM11.7723 29.8882C11.7785 29.8467 11.799 29.8069 11.8339 29.7755C11.8707 29.7422 11.9297 29.7138 12 29.7138V31.7138C12.9216 31.7138 13.6275 31.013 13.7507 30.1812L11.7723 29.8882ZM17.2788 21.2392C15.3588 22.8264 12.4215 25.5062 11.7723 29.8882L13.7507 30.1812C14.2832 26.5869 16.6887 24.3219 18.553 22.7807L17.2788 21.2392Z" fill="url(#paint0_linear_6147_116578)" mask="url(#path-2-outside-1_6147_116578)"/>
<defs>
<filter id="filter0_f_6147_116578" x="6" y="25" width="12" height="8" filterUnits="userSpaceOnUse" color-interpolation-filters="sRGB">
<feFlood flood-opacity="0" result="BackgroundImageFix"/>
<feBlend mode="normal" in="SourceGraphic" in2="BackgroundImageFix" result="shape"/>
<feGaussianBlur stdDeviation="1" result="effect1_foregroundBlur_6147_116578"/>
</filter>
<linearGradient id="paint0_linear_6147_116578" x1="12" y1="2.19336" x2="12" y2="30.7138" gradientUnits="userSpaceOnUse">
<stop stop-color="white"/>
<stop offset="1" stop-color="white" stop-opacity="0.35"/>
</linearGradient>
</defs>
</svg>
