<svg width="24" height="36" viewBox="0 0 24 36" fill="none" xmlns="http://www.w3.org/2000/svg">
<g filter="url(#filter0_f_6147_116574)">
<ellipse cx="12" cy="29.2441" rx="4" ry="2" fill="black" fill-opacity="0.12"/>
</g>
<mask id="path-2-outside-1_6147_116574" maskUnits="userSpaceOnUse" x="1" y="1.4375" width="22" height="31" fill="black">
<rect fill="white" x="1" y="1.4375" width="22" height="31"/>
<path fill-rule="evenodd" clip-rule="evenodd" d="M17.9159 22.2541C20.3926 20.2572 22 17.0386 22 13.4082C22 7.34924 17.5228 2.4375 12 2.4375C6.47715 2.4375 2 7.34924 2 13.4082C2 17.0386 3.60743 20.2572 6.0841 22.2541C7.97628 23.8183 10.6476 26.2907 11.2385 30.2788C11.295 30.6607 11.614 30.9579 12 30.9579C12.386 30.9579 12.705 30.6607 12.7615 30.2788C13.3524 26.2907 16.0237 23.8183 17.9159 22.2541Z"/>
</mask>
<path fill-rule="evenodd" clip-rule="evenodd" d="M17.9159 22.2541C20.3926 20.2572 22 17.0386 22 13.4082C22 7.34924 17.5228 2.4375 12 2.4375C6.47715 2.4375 2 7.34924 2 13.4082C2 17.0386 3.60743 20.2572 6.0841 22.2541C7.97628 23.8183 10.6476 26.2907 11.2385 30.2788C11.295 30.6607 11.614 30.9579 12 30.9579C12.386 30.9579 12.705 30.6607 12.7615 30.2788C13.3524 26.2907 16.0237 23.8183 17.9159 22.2541Z" fill="#FF7F32"/>
<path d="M17.9159 22.2541L17.2882 21.4755L17.2788 21.4833L17.9159 22.2541ZM6.0841 22.2541L6.72129 21.4833L6.71176 21.4756L6.0841 22.2541ZM11.2385 30.2788L12.2277 30.1323V30.1323L11.2385 30.2788ZM12.7615 30.2788L11.7723 30.1323V30.1323L12.7615 30.2788ZM18.5436 23.0326C21.2618 20.841 23 17.3332 23 13.4082H21C21 16.7441 19.5234 19.6735 17.2882 21.4756L18.5436 23.0326ZM23 13.4082C23 6.88616 18.1603 1.4375 12 1.4375V3.4375C16.8854 3.4375 21 7.81232 21 13.4082H23ZM12 1.4375C5.8397 1.4375 1 6.88616 1 13.4082H3C3 7.81232 7.11461 3.4375 12 3.4375V1.4375ZM1 13.4082C1 17.3332 2.73823 20.841 5.45643 23.0326L6.71176 21.4756C4.47664 19.6735 3 16.7441 3 13.4082H1ZM12.2277 30.1323C11.5785 25.7504 8.64123 23.0705 6.72124 21.4833L5.44695 23.0248C7.31132 24.566 9.71677 26.831 10.2493 30.4254L12.2277 30.1323ZM12 29.9579C12.0703 29.9579 12.1293 29.9863 12.1661 30.0196C12.201 30.0511 12.2215 30.0909 12.2277 30.1323L10.2493 30.4254C10.3725 31.2571 11.0784 31.9579 12 31.9579V29.9579ZM11.7723 30.1323C11.7785 30.0909 11.799 30.0511 11.8339 30.0196C11.8707 29.9863 11.9297 29.9579 12 29.9579V31.9579C12.9216 31.9579 13.6275 31.2571 13.7507 30.4254L11.7723 30.1323ZM17.2788 21.4833C15.3588 23.0705 12.4215 25.7504 11.7723 30.1323L13.7507 30.4254C14.2832 26.831 16.6887 24.566 18.553 23.0248L17.2788 21.4833Z" fill="url(#paint0_linear_6147_116574)" mask="url(#path-2-outside-1_6147_116574)"/>
<defs>
<filter id="filter0_f_6147_116574" x="6" y="25.2441" width="12" height="8" filterUnits="userSpaceOnUse" color-interpolation-filters="sRGB">
<feFlood flood-opacity="0" result="BackgroundImageFix"/>
<feBlend mode="normal" in="SourceGraphic" in2="BackgroundImageFix" result="shape"/>
<feGaussianBlur stdDeviation="1" result="effect1_foregroundBlur_6147_116574"/>
</filter>
<linearGradient id="paint0_linear_6147_116574" x1="12" y1="2.4375" x2="12" y2="30.9579" gradientUnits="userSpaceOnUse">
<stop stop-color="white"/>
<stop offset="1" stop-color="white" stop-opacity="0.35"/>
</linearGradient>
</defs>
</svg>
