<svg width="28" height="28" viewBox="0 0 28 28" fill="none" xmlns="http://www.w3.org/2000/svg">
<path d="M14.0003 0.666016C6.64833 0.666016 0.666992 6.64735 0.666992 13.9993C0.666992 21.3513 6.64833 27.3327 14.0003 27.3327C21.3523 27.3327 27.3337 21.3513 27.3337 13.9993C27.3337 6.64735 21.3523 0.666016 14.0003 0.666016ZM15.3337 21.9993L12.667 21.9993V19.3327L15.3337 19.3327V21.9993ZM16.635 15.486C16.3737 15.6967 16.1217 15.898 15.9217 16.098C15.3777 16.6407 15.335 17.134 15.3337 17.1553V17.3327L12.667 17.3327V17.11C12.667 16.9527 12.7057 15.5407 14.035 14.2113C14.295 13.9514 14.6177 13.6874 14.9563 13.4127C15.935 12.6193 16.5777 12.0407 16.5777 11.2433C16.5622 10.5698 16.2837 9.92902 15.8017 9.45817C15.3198 8.98733 14.6728 8.7238 13.999 8.72398C13.3253 8.72415 12.6783 8.98802 12.1967 9.45911C11.715 9.9302 11.4368 10.5711 11.4217 11.2447H8.75499C8.75499 8.35268 11.1083 5.99935 14.0003 5.99935C16.8923 5.99935 19.2457 8.35268 19.2457 11.2447C19.2457 13.374 17.6737 14.6447 16.635 15.486Z" fill="#FFAB79"/>
</svg>
