<svg width="24" height="24" viewBox="0 0 24 24" fill="none" xmlns="http://www.w3.org/2000/svg">
<path fill-rule="evenodd" clip-rule="evenodd" d="M19.1999 10.8001H13.1999V4.8001C13.1999 4.1401 12.6599 3.6001 11.9999 3.6001C11.3399 3.6001 10.7999 4.1401 10.7999 4.8001V10.8001H4.79995C4.13995 10.8001 3.59995 11.3401 3.59995 12.0001C3.59995 12.6601 4.13995 13.2001 4.79995 13.2001H10.7999V19.2001C10.7999 19.8601 11.3399 20.4001 11.9999 20.4001C12.6599 20.4001 13.1999 19.8601 13.1999 19.2001V13.2001H19.1999C19.8599 13.2001 20.3999 12.6601 20.3999 12.0001C20.3999 11.3401 19.8599 10.8001 19.1999 10.8001Z" fill="#FF7F32"/>
</svg>
