<svg width="100%" height="100%" viewBox="0 0 107 71" fill="none" xmlns="http://www.w3.org/2000/svg">
<g clip-path="url(#clip0_3952_110536)">
<path d="M0 7.46C0 3.33996 3.33996 0 7.46 0H99.54C103.66 0 107 3.33996 107 7.46V63.54C107 67.66 103.66 71 99.54 71H7.46C3.33995 71 0 67.66 0 63.54V7.46Z" fill="#E04F39"/>
<path d="M68.5048 16C68.4381 16 68.3814 15.9767 68.3348 15.93C68.2881 15.8833 68.2648 15.8267 68.2648 15.76V9.25C68.2648 9.17667 68.2881 9.11667 68.3348 9.07C68.3814 9.02333 68.4381 9 68.5048 9H71.1848C71.7048 9 72.1581 9.08333 72.5448 9.25C72.9314 9.41 73.2314 9.65667 73.4448 9.99C73.6581 10.3167 73.7648 10.7267 73.7648 11.22C73.7648 11.72 73.6581 12.1333 73.4448 12.46C73.2314 12.78 72.9314 13.02 72.5448 13.18C72.1581 13.34 71.7048 13.42 71.1848 13.42H69.6948V15.76C69.6948 15.8267 69.6714 15.8833 69.6248 15.93C69.5848 15.9767 69.5281 16 69.4548 16H68.5048ZM69.6748 12.31H71.1348C71.5214 12.31 71.8181 12.22 72.0248 12.04C72.2314 11.8533 72.3348 11.58 72.3348 11.22C72.3348 10.8867 72.2381 10.62 72.0448 10.42C71.8514 10.2133 71.5481 10.11 71.1348 10.11H69.6748V12.31ZM76.3391 16.1C75.9925 16.1 75.6791 16.0333 75.3991 15.9C75.1191 15.76 74.8958 15.5767 74.7291 15.35C74.5691 15.1167 74.4891 14.8567 74.4891 14.57C74.4891 14.1033 74.6758 13.7333 75.0491 13.46C75.4291 13.18 75.9291 12.9933 76.5491 12.9L77.9191 12.7V12.49C77.9191 12.21 77.8491 11.9933 77.7091 11.84C77.5691 11.6867 77.3291 11.61 76.9891 11.61C76.7491 11.61 76.5525 11.66 76.3991 11.76C76.2525 11.8533 76.1425 11.98 76.0691 12.14C76.0158 12.2267 75.9391 12.27 75.8391 12.27H75.0491C74.9758 12.27 74.9191 12.25 74.8791 12.21C74.8458 12.17 74.8291 12.1167 74.8291 12.05C74.8358 11.9433 74.8791 11.8133 74.9591 11.66C75.0391 11.5067 75.1658 11.36 75.3391 11.22C75.5125 11.0733 75.7358 10.95 76.0091 10.85C76.2825 10.75 76.6125 10.7 76.9991 10.7C77.4191 10.7 77.7725 10.7533 78.0591 10.86C78.3525 10.96 78.5858 11.0967 78.7591 11.27C78.9325 11.4433 79.0591 11.6467 79.1391 11.88C79.2191 12.1133 79.2591 12.36 79.2591 12.62V15.76C79.2591 15.8267 79.2358 15.8833 79.1891 15.93C79.1425 15.9767 79.0858 16 79.0191 16H78.2091C78.1358 16 78.0758 15.9767 78.0291 15.93C77.9891 15.8833 77.9691 15.8267 77.9691 15.76V15.37C77.8825 15.4967 77.7658 15.6167 77.6191 15.73C77.4725 15.8367 77.2925 15.9267 77.0791 16C76.8725 16.0667 76.6258 16.1 76.3391 16.1ZM76.6791 15.15C76.9125 15.15 77.1225 15.1 77.3091 15C77.5025 14.9 77.6525 14.7467 77.7591 14.54C77.8725 14.3267 77.9291 14.06 77.9291 13.74V13.53L76.9291 13.69C76.5358 13.75 76.2425 13.8467 76.0491 13.98C75.8558 14.1133 75.7591 14.2767 75.7591 14.47C75.7591 14.6167 75.8025 14.7433 75.8891 14.85C75.9825 14.95 76.0991 15.0267 76.2391 15.08C76.3791 15.1267 76.5258 15.15 76.6791 15.15ZM81.5453 17.9C81.492 17.9 81.4453 17.88 81.4053 17.84C81.3653 17.8 81.3453 17.7533 81.3453 17.7C81.3453 17.6733 81.3453 17.6467 81.3453 17.62C81.352 17.6 81.3653 17.5733 81.3853 17.54L82.1653 15.69L80.2453 11.16C80.2186 11.0933 80.2053 11.0467 80.2053 11.02C80.212 10.96 80.2353 10.91 80.2753 10.87C80.3153 10.8233 80.3653 10.8 80.4253 10.8H81.2353C81.3153 10.8 81.3753 10.82 81.4153 10.86C81.4553 10.9 81.4853 10.9433 81.5053 10.99L82.8353 14.26L84.2053 10.99C84.2253 10.9367 84.2553 10.8933 84.2953 10.86C84.3353 10.82 84.3953 10.8 84.4753 10.8H85.2753C85.3286 10.8 85.3753 10.82 85.4153 10.86C85.462 10.9 85.4853 10.9467 85.4853 11C85.4853 11.04 85.472 11.0933 85.4453 11.16L82.6153 17.71C82.5886 17.7633 82.5553 17.8067 82.5153 17.84C82.4753 17.88 82.4153 17.9 82.3353 17.9H81.5453ZM86.7875 16C86.7208 16 86.6642 15.9767 86.6175 15.93C86.5708 15.8833 86.5475 15.8267 86.5475 15.76V11.05C86.5475 10.9767 86.5708 10.9167 86.6175 10.87C86.6642 10.8233 86.7208 10.8 86.7875 10.8H87.5975C87.6642 10.8 87.7208 10.8233 87.7675 10.87C87.8208 10.9167 87.8475 10.9767 87.8475 11.05V11.46C88.0008 11.2467 88.1975 11.0833 88.4375 10.97C88.6842 10.8567 88.9675 10.8 89.2875 10.8H89.6975C89.7708 10.8 89.8275 10.8233 89.8675 10.87C89.9142 10.9167 89.9375 10.9733 89.9375 11.04V11.76C89.9375 11.8267 89.9142 11.8833 89.8675 11.93C89.8275 11.9767 89.7708 12 89.6975 12H88.9175C88.5975 12 88.3475 12.09 88.1675 12.27C87.9942 12.45 87.9075 12.6967 87.9075 13.01V15.76C87.9075 15.8267 87.8842 15.8833 87.8375 15.93C87.7908 15.9767 87.7308 16 87.6575 16H86.7875ZM93.1491 16.1C92.6157 16.1 92.1657 16.0067 91.7991 15.82C91.4391 15.6333 91.1624 15.37 90.9691 15.03C90.7824 14.69 90.6757 14.2933 90.6491 13.84C90.6424 13.72 90.6391 13.5733 90.6391 13.4C90.6391 13.2267 90.6424 13.08 90.6491 12.96C90.6757 12.5 90.7857 12.1033 90.9791 11.77C91.1791 11.43 91.4591 11.1667 91.8191 10.98C92.1857 10.7933 92.6291 10.7 93.1491 10.7C93.6691 10.7 94.1091 10.7933 94.4691 10.98C94.8357 11.1667 95.1157 11.43 95.3091 11.77C95.5091 12.1033 95.6224 12.5 95.6491 12.96C95.6557 13.08 95.6591 13.2267 95.6591 13.4C95.6591 13.5733 95.6557 13.72 95.6491 13.84C95.6224 14.2933 95.5124 14.69 95.3191 15.03C95.1324 15.37 94.8557 15.6333 94.4891 15.82C94.1291 16.0067 93.6824 16.1 93.1491 16.1ZM93.1491 15.11C93.5024 15.11 93.7757 15 93.9691 14.78C94.1624 14.5533 94.2691 14.2233 94.2891 13.79C94.2957 13.69 94.2991 13.56 94.2991 13.4C94.2991 13.24 94.2957 13.11 94.2891 13.01C94.2691 12.5833 94.1624 12.2567 93.9691 12.03C93.7757 11.8033 93.5024 11.69 93.1491 11.69C92.7957 11.69 92.5224 11.8033 92.3291 12.03C92.1357 12.2567 92.0291 12.5833 92.0091 13.01C92.0024 13.11 91.9991 13.24 91.9991 13.4C91.9991 13.56 92.0024 13.69 92.0091 13.79C92.0291 14.2233 92.1357 14.5533 92.3291 14.78C92.5224 15 92.7957 15.11 93.1491 15.11ZM97.217 16C97.1504 16 97.0937 15.9767 97.047 15.93C97.0004 15.8833 96.977 15.8267 96.977 15.76V9.14C96.977 9.07333 97.0004 9.01667 97.047 8.97C97.0937 8.92333 97.1504 8.9 97.217 8.9H98.047C98.1137 8.9 98.1704 8.92333 98.217 8.97C98.2637 9.01667 98.287 9.07333 98.287 9.14V15.76C98.287 15.8267 98.2637 15.8833 98.217 15.93C98.1704 15.9767 98.1137 16 98.047 16H97.217ZM100.064 16C99.9968 16 99.9402 15.9767 99.8935 15.93C99.8468 15.8833 99.8235 15.8267 99.8235 15.76V9.14C99.8235 9.07333 99.8468 9.01667 99.8935 8.97C99.9402 8.92333 99.9968 8.9 100.064 8.9H100.894C100.96 8.9 101.017 8.92333 101.064 8.97C101.11 9.01667 101.134 9.07333 101.134 9.14V15.76C101.134 15.8267 101.11 15.8833 101.064 15.93C101.017 15.9767 100.96 16 100.894 16H100.064Z" fill="#F7F7FA"/>
<path opacity="0.83" fill-rule="evenodd" clip-rule="evenodd" d="M98.2028 43.7569C98.2028 52.9605 90.6972 60.4215 81.4386 60.4215C72.1799 60.4215 64.6743 52.9605 64.6743 43.7569C64.6743 34.5533 72.1799 27.0923 81.4386 27.0923C90.6972 27.0923 98.2028 34.5533 98.2028 43.7569ZM86.5609 34.5635L88.4024 38.273C88.8112 39.0932 89.5988 39.6636 90.5064 39.794L94.6243 40.3905C95.5806 40.5285 95.9594 41.6954 95.2693 42.3627L92.2915 45.2482C91.6315 45.8858 91.3314 46.8066 91.489 47.7088L92.194 51.7836C92.3553 52.7305 91.3577 53.4501 90.5064 53.0027L86.8235 51.079C86.0096 50.654 85.0345 50.654 84.2207 51.079L80.5378 53.0027C79.6827 53.4501 78.6851 52.7268 78.8501 51.7836L79.5552 47.7088C79.709 46.8066 79.409 45.8858 78.7526 45.2482L75.7748 42.3627C75.0848 41.6916 75.4636 40.5285 76.4199 40.3905L80.5378 39.794C81.4492 39.6636 82.2367 39.0932 82.6418 38.273L84.4832 34.5635C84.8995 33.706 86.1334 33.706 86.5609 34.5635Z" fill="white"/>
<path opacity="0.79" fill-rule="evenodd" clip-rule="evenodd" d="M91.2297 53.1243C88.2127 57.529 83.1275 60.4215 77.3626 60.4215C68.104 60.4215 60.5984 52.9605 60.5984 43.7569C60.5984 34.5533 68.104 27.0923 77.3626 27.0923C85.4165 27.0923 92.1438 32.7379 93.7583 40.2651L90.5062 39.794C89.5986 39.6636 88.8111 39.0932 88.4023 38.273L86.5608 34.5635C86.1333 33.706 84.8994 33.706 84.4831 34.5635L82.6417 38.273C82.2366 39.0932 81.449 39.6636 80.5377 39.794L76.4198 40.3905C75.4634 40.5285 75.0846 41.6916 75.7747 42.3627L78.7525 45.2482C79.4088 45.8858 79.7089 46.8066 79.5551 47.7088L78.85 51.7836C78.685 52.7268 79.6826 53.4501 80.5377 53.0027L84.2206 51.079C85.0344 50.654 86.0095 50.654 86.8234 51.079L90.5062 53.0027C90.7455 53.1284 90.9963 53.162 91.2297 53.1243ZM92.1611 51.594C93.4157 49.2579 94.1269 46.59 94.1269 43.7569C94.1269 43.6617 94.1261 43.5668 94.1245 43.472L92.2914 45.2482C91.6313 45.8858 91.3313 46.8066 91.4888 47.7088L92.1611 51.594Z" fill="white"/>
<path opacity="0.75" fill-rule="evenodd" clip-rule="evenodd" d="M88.0243 51.7063C85.1844 56.8978 79.6495 60.4215 73.2867 60.4215C64.0281 60.4215 56.5225 52.9605 56.5225 43.7569C56.5225 34.5533 64.0281 27.0923 73.2867 27.0923C81.0407 27.0923 87.5651 32.3253 89.4809 39.4324C89.0235 39.1612 88.6457 38.7614 88.4023 38.273L86.5608 34.5635C86.1333 33.706 84.8994 33.706 84.4831 34.5635L82.6417 38.273C82.2366 39.0932 81.449 39.6636 80.5377 39.794L76.4198 40.3905C75.4634 40.5285 75.0846 41.6916 75.7747 42.3627L78.7525 45.2482C79.4088 45.8858 79.7089 46.8066 79.5551 47.7088L78.85 51.7836C78.685 52.7268 79.6826 53.4501 80.5377 53.0027L84.2206 51.079C85.0344 50.654 86.0095 50.654 86.8234 51.079L88.0243 51.7063Z" fill="white"/>
<path opacity="0.69" fill-rule="evenodd" clip-rule="evenodd" d="M84.292 51.043C81.5723 56.5953 75.841 60.4215 69.2108 60.4215C59.9521 60.4215 52.4465 52.9605 52.4465 43.7569C52.4465 34.5533 59.9521 27.0923 69.2108 27.0923C75.5413 27.0923 81.0522 30.5803 83.9048 35.7284L82.6417 38.273C82.2366 39.0932 81.449 39.6636 80.5377 39.794L76.4198 40.3905C75.4634 40.5285 75.0846 41.6916 75.7747 42.3627L78.7525 45.2482C79.4088 45.8858 79.7089 46.8066 79.5551 47.7088L78.85 51.7836C78.685 52.7268 79.6826 53.4501 80.5377 53.0027L84.2206 51.079C84.2443 51.0666 84.2681 51.0546 84.292 51.043Z" fill="white"/>
<path opacity="0.65" fill-rule="evenodd" clip-rule="evenodd" d="M79.202 52.8252C76.213 57.3976 71.0292 60.4215 65.1348 60.4215C55.8762 60.4215 48.3706 52.9605 48.3706 43.7569C48.3706 34.5533 55.8762 27.0923 65.1348 27.0923C72.9292 27.0923 79.4811 32.3799 81.3586 39.5435C81.1029 39.6671 80.8265 39.7527 80.5377 39.794L76.4198 40.3905C75.4634 40.5285 75.0846 41.6916 75.7747 42.3627L78.7525 45.2482C79.4088 45.8858 79.7089 46.8066 79.5551 47.7088L78.85 51.7836C78.7769 52.2016 78.9321 52.5764 79.202 52.8252Z" fill="white"/>
<path opacity="0.64" fill-rule="evenodd" clip-rule="evenodd" d="M77.8131 44.338C77.5051 53.2725 70.1219 60.4215 61.0589 60.4215C51.8003 60.4215 44.2947 52.9605 44.2947 43.7569C44.2947 34.5533 51.8003 27.0923 61.0589 27.0923C69.1043 27.0923 75.826 32.726 77.4494 40.2414L76.4198 40.3905C75.4634 40.5285 75.0846 41.6916 75.7747 42.3627L77.8131 44.338Z" fill="white"/>
<path opacity="0.52" d="M56.983 60.4215C66.2416 60.4215 73.7472 52.9605 73.7472 43.7569C73.7472 34.5533 66.2416 27.0923 56.983 27.0923C47.7244 27.0923 40.2188 34.5533 40.2188 43.7569C40.2188 52.9605 47.7244 60.4215 56.983 60.4215Z" fill="white"/>
<path opacity="0.52" d="M52.9071 60.4215C62.1657 60.4215 69.6713 52.9605 69.6713 43.7569C69.6713 34.5533 62.1657 27.0923 52.9071 27.0923C43.6484 27.0923 36.1428 34.5533 36.1428 43.7569C36.1428 52.9605 43.6484 60.4215 52.9071 60.4215Z" fill="white"/>
<path opacity="0.5" d="M48.8311 60.4215C58.0898 60.4215 65.5954 52.9605 65.5954 43.7569C65.5954 34.5533 58.0898 27.0923 48.8311 27.0923C39.5725 27.0923 32.0669 34.5533 32.0669 43.7569C32.0669 52.9605 39.5725 60.4215 48.8311 60.4215Z" fill="white"/>
<path opacity="0.49" d="M44.7552 60.4215C54.0138 60.4215 61.5194 52.9605 61.5194 43.7569C61.5194 34.5533 54.0138 27.0923 44.7552 27.0923C35.4966 27.0923 27.991 34.5533 27.991 43.7569C27.991 52.9605 35.4966 60.4215 44.7552 60.4215Z" fill="white"/>
<path opacity="0.44" d="M40.6793 60.4215C49.9379 60.4215 57.4435 52.9605 57.4435 43.7569C57.4435 34.5533 49.9379 27.0923 40.6793 27.0923C31.4206 27.0923 23.915 34.5533 23.915 43.7569C23.915 52.9605 31.4206 60.4215 40.6793 60.4215Z" fill="white"/>
<path opacity="0.4" d="M36.6033 60.4215C45.862 60.4215 53.3676 52.9605 53.3676 43.7569C53.3676 34.5533 45.862 27.0923 36.6033 27.0923C27.3447 27.0923 19.8391 34.5533 19.8391 43.7569C19.8391 52.9605 27.3447 60.4215 36.6033 60.4215Z" fill="white"/>
<path opacity="0.29" d="M32.5274 60.4215C41.786 60.4215 49.2917 52.9605 49.2917 43.7569C49.2917 34.5533 41.786 27.0923 32.5274 27.0923C23.2688 27.0923 15.7632 34.5533 15.7632 43.7569C15.7632 52.9605 23.2688 60.4215 32.5274 60.4215Z" fill="white"/>
<path opacity="0.27" d="M28.452 60.4215C37.7106 60.4215 45.2162 52.9605 45.2162 43.7569C45.2162 34.5533 37.7106 27.0923 28.452 27.0923C19.1933 27.0923 11.6877 34.5533 11.6877 43.7569C11.6877 52.9605 19.1933 60.4215 28.452 60.4215Z" fill="white"/>
<path opacity="0.25" d="M24.3761 60.4215C33.6347 60.4215 41.1403 52.9605 41.1403 43.7569C41.1403 34.5533 33.6347 27.0923 24.3761 27.0923C15.1174 27.0923 7.61182 34.5533 7.61182 43.7569C7.61182 52.9605 15.1174 60.4215 24.3761 60.4215Z" fill="white"/>
<path opacity="0.25" d="M20.3001 60.4215C29.5588 60.4215 37.0644 52.9605 37.0644 43.7569C37.0644 34.5533 29.5588 27.0923 20.3001 27.0923C11.0415 27.0923 3.53589 34.5533 3.53589 43.7569C3.53589 52.9605 11.0415 60.4215 20.3001 60.4215Z" fill="white"/>
<path opacity="0.22" d="M16.2242 60.4215C25.4828 60.4215 32.9884 52.9605 32.9884 43.7569C32.9884 34.5533 25.4828 27.0923 16.2242 27.0923C6.96556 27.0923 -0.540039 34.5533 -0.540039 43.7569C-0.540039 52.9605 6.96556 60.4215 16.2242 60.4215Z" fill="white"/>
<path opacity="0.14" d="M12.1483 60.4215C21.4069 60.4215 28.9125 52.9605 28.9125 43.7569C28.9125 34.5533 21.4069 27.0923 12.1483 27.0923C2.88964 27.0923 -4.61597 34.5533 -4.61597 43.7569C-4.61597 52.9605 2.88964 60.4215 12.1483 60.4215Z" fill="white"/>
<path opacity="0.06" d="M8.07234 60.4215C17.331 60.4215 24.8366 52.9605 24.8366 43.7569C24.8366 34.5533 17.331 27.0923 8.07234 27.0923C-1.18629 27.0923 -8.69189 34.5533 -8.69189 43.7569C-8.69189 52.9605 -1.18629 60.4215 8.07234 60.4215Z" fill="white"/>
<path opacity="0.03" d="M3.99641 60.4215C13.255 60.4215 20.7606 52.9605 20.7606 43.7569C20.7606 34.5533 13.255 27.0923 3.99641 27.0923C-5.26222 27.0923 -12.7678 34.5533 -12.7678 43.7569C-12.7678 52.9605 -5.26222 60.4215 3.99641 60.4215Z" fill="white"/>
<path opacity="0.95" fill-rule="evenodd" clip-rule="evenodd" d="M102.278 43.7569C102.278 52.9605 94.7729 60.4215 85.5142 60.4215C76.2556 60.4215 68.75 52.9605 68.75 43.7569C68.75 34.5533 76.2556 27.0923 85.5142 27.0923C94.7729 27.0923 102.278 34.5533 102.278 43.7569ZM88.4021 38.2729L86.5606 34.5634C86.1331 33.706 84.8992 33.706 84.4829 34.5634L82.6415 38.2729C82.2364 39.0931 81.4489 39.6635 80.5375 39.794L76.4196 40.3905C75.4632 40.5284 75.0845 41.6916 75.7745 42.3626L78.7523 45.2482C79.4087 45.8857 79.7087 46.8065 79.5549 47.7087L78.8498 51.7835C78.6848 52.7267 79.6824 53.45 80.5375 53.0026L84.2204 51.0789C85.0342 50.6539 86.0093 50.6539 86.8232 51.0789L90.506 53.0026C91.3574 53.45 92.355 52.7305 92.1937 51.7835L91.4887 47.7087C91.3311 46.8065 91.6312 45.8857 92.2912 45.2482L95.269 42.3626C95.9591 41.6953 95.5803 40.5284 94.624 40.3905L90.506 39.794C89.5985 39.6635 88.8109 39.0931 88.4021 38.2729Z" fill="white"/>
<g clip-path="url(#clip1_3952_110536)">
<path d="M34.6884 8.33955V9.63589H34.4338C32.7011 9.63589 30.9546 10.9467 30.9546 13.8865V17.7032H29.8062V8.47642H30.9546V10.4471C31.766 9.08508 33.1131 8.28837 34.5226 8.33176L34.6884 8.33955Z" fill="white"/>
<path d="M39.425 8.26953C37.089 8.26953 35.2622 10.377 35.2622 13.0699V13.1055C35.2622 15.8406 37.109 17.9058 39.5592 17.9058C41.4134 17.9058 42.4573 16.9889 43.1673 16.1855L43.2877 16.0442L42.471 15.2831L42.3506 15.4166C41.5476 16.3257 40.6706 16.7485 39.5866 16.7485C37.9405 16.7485 36.6822 15.4722 36.4815 13.6184H43.4293L43.4494 13.456C43.4631 13.308 43.4631 13.2512 43.4631 13.0899C43.461 10.2502 41.8011 8.26953 39.425 8.26953ZM36.4793 12.4912C36.6938 10.6942 37.8919 9.41119 39.3975 9.41119C41.2581 9.41119 42.0748 11.0258 42.2291 12.4912H36.4793Z" fill="white"/>
<path d="M18.1345 12.1384V17.7031H16.9839V12.2407C16.9839 10.4348 16.1366 9.3966 14.6553 9.3966C13.4572 9.3966 12.1682 10.3179 12.1682 12.3498V17.7031H11.0123V12.1896C11.0123 10.5716 10.241 9.53458 8.98693 9.41107C8.92565 9.3966 8.86331 9.3966 8.80098 9.3966H8.72491C7.29223 9.43221 6.47235 10.4637 6.47235 12.2407V17.7031H5.32178V12.1384C5.32178 9.77382 6.65831 8.25049 8.7323 8.25049C8.76611 8.25049 8.80098 8.25049 8.83584 8.25828C9.58705 8.27274 10.2421 8.48973 10.7989 8.91145C10.8824 8.96931 10.9574 9.03385 11.0335 9.10729C11.3303 9.39104 11.5438 9.7026 11.6949 9.97856C11.7086 9.9641 11.716 9.94184 11.7297 9.92738C12.4513 8.81576 13.4582 8.25049 14.725 8.25049C16.799 8.25049 18.1345 9.77382 18.1345 12.1384Z" fill="white"/>
<path d="M23.88 8.08252C21.2714 8.08252 19.1572 10.3091 19.1572 13.0564C19.1572 15.8027 21.2714 18.0303 23.88 18.0303C26.4875 18.0303 28.6027 15.8027 28.6027 13.0564C28.6027 10.3091 26.4875 8.08252 23.88 8.08252ZM26.627 12.6403L25.7881 13.5015C25.6021 13.6918 25.5176 13.9666 25.562 14.2359L25.7596 15.4533C25.8061 15.7348 25.524 15.9506 25.2841 15.8171L24.2466 15.243C24.0173 15.115 23.7426 15.115 23.5134 15.243L22.4758 15.8171C22.2349 15.9506 21.9539 15.7348 21.9993 15.4533L22.198 14.2359C22.2413 13.9666 22.1568 13.6918 21.9708 13.5015L21.1319 12.6403C20.9375 12.44 21.0442 12.0917 21.3136 12.0505L22.4737 11.8736C22.7305 11.8335 22.9523 11.6644 23.0664 11.4196L23.5852 10.3124C23.7056 10.0554 24.0532 10.0554 24.1737 10.3124L24.6925 11.4196C24.8076 11.6644 25.0295 11.8335 25.2862 11.8736L26.4453 12.0505C26.7147 12.0917 26.8225 12.44 26.627 12.6403Z" fill="white"/>
</g>
</g>
<defs>
<clipPath id="clip0_3952_110536">
<path d="M0 7.46C0 3.33996 3.33996 0 7.46 0H99.54C103.66 0 107 3.33996 107 7.46V63.54C107 67.66 103.66 71 99.54 71H7.46C3.33995 71 0 67.66 0 63.54V7.46Z" fill="white"/>
</clipPath>
<clipPath id="clip1_3952_110536">
<rect width="38.1391" height="9.94783" fill="white" transform="translate(5.32178 8.08252)"/>
</clipPath>
</defs>
</svg>
