<svg width="107" height="72" viewBox="0 0 107 72" fill="none" xmlns="http://www.w3.org/2000/svg">
<g clip-path="url(#clip0_5780_97915)">
<path d="M0 7.91703C0 3.79699 3.33996 0.457031 7.46 0.457031H99.54C103.66 0.457031 107 3.79699 107 7.91703V63.997C107 68.1171 103.66 71.457 99.54 71.457H7.46C3.33995 71.457 0 68.1171 0 63.997V7.91703Z" fill="#E1543E"/>
<g filter="url(#filter0_di_5780_97915)">
<path d="M0 10.457C0 4.93418 4.47715 0.457031 10 0.457031H97C102.523 0.457031 107 4.93418 107 10.457V61.457C107 66.9799 102.523 71.457 97 71.457H10C4.47715 71.457 0 66.9799 0 61.457V10.457Z" fill="#E1543E"/>
</g>
<path d="M68.5048 16.457C68.4381 16.457 68.3814 16.4337 68.3348 16.387C68.2881 16.3404 68.2648 16.2837 68.2648 16.217V9.70703C68.2648 9.6337 68.2881 9.5737 68.3348 9.52703C68.3814 9.48036 68.4381 9.45703 68.5048 9.45703H71.1848C71.7048 9.45703 72.1581 9.54036 72.5448 9.70703C72.9314 9.86703 73.2314 10.1137 73.4448 10.447C73.6581 10.7737 73.7648 11.1837 73.7648 11.677C73.7648 12.177 73.6581 12.5904 73.4448 12.917C73.2314 13.237 72.9314 13.477 72.5448 13.637C72.1581 13.797 71.7048 13.877 71.1848 13.877H69.6948V16.217C69.6948 16.2837 69.6714 16.3404 69.6248 16.387C69.5848 16.4337 69.5281 16.457 69.4548 16.457H68.5048ZM69.6748 12.767H71.1348C71.5214 12.767 71.8181 12.677 72.0248 12.497C72.2314 12.3104 72.3348 12.037 72.3348 11.677C72.3348 11.3437 72.2381 11.077 72.0448 10.877C71.8514 10.6704 71.5481 10.567 71.1348 10.567H69.6748V12.767ZM76.3391 16.557C75.9925 16.557 75.6791 16.4904 75.3991 16.357C75.1191 16.217 74.8958 16.0337 74.7291 15.807C74.5691 15.5737 74.4891 15.3137 74.4891 15.027C74.4891 14.5604 74.6758 14.1904 75.0491 13.917C75.4291 13.637 75.9291 13.4504 76.5491 13.357L77.9191 13.157V12.947C77.9191 12.667 77.8491 12.4504 77.7091 12.297C77.5691 12.1437 77.3291 12.067 76.9891 12.067C76.7491 12.067 76.5525 12.117 76.3991 12.217C76.2525 12.3104 76.1425 12.437 76.0691 12.597C76.0158 12.6837 75.9391 12.727 75.8391 12.727H75.0491C74.9758 12.727 74.9191 12.707 74.8791 12.667C74.8458 12.627 74.8291 12.5737 74.8291 12.507C74.8358 12.4004 74.8791 12.2704 74.9591 12.117C75.0391 11.9637 75.1658 11.817 75.3391 11.677C75.5125 11.5304 75.7358 11.407 76.0091 11.307C76.2825 11.207 76.6125 11.157 76.9991 11.157C77.4191 11.157 77.7725 11.2104 78.0591 11.317C78.3525 11.417 78.5858 11.5537 78.7591 11.727C78.9325 11.9004 79.0591 12.1037 79.1391 12.337C79.2191 12.5704 79.2591 12.817 79.2591 13.077V16.217C79.2591 16.2837 79.2358 16.3404 79.1891 16.387C79.1425 16.4337 79.0858 16.457 79.0191 16.457H78.2091C78.1358 16.457 78.0758 16.4337 78.0291 16.387C77.9891 16.3404 77.9691 16.2837 77.9691 16.217V15.827C77.8825 15.9537 77.7658 16.0737 77.6191 16.187C77.4725 16.2937 77.2925 16.3837 77.0791 16.457C76.8725 16.5237 76.6258 16.557 76.3391 16.557ZM76.6791 15.607C76.9125 15.607 77.1225 15.557 77.3091 15.457C77.5025 15.357 77.6525 15.2037 77.7591 14.997C77.8725 14.7837 77.9291 14.517 77.9291 14.197V13.987L76.9291 14.147C76.5358 14.207 76.2425 14.3037 76.0491 14.437C75.8558 14.5704 75.7591 14.7337 75.7591 14.927C75.7591 15.0737 75.8025 15.2004 75.8891 15.307C75.9825 15.407 76.0991 15.4837 76.2391 15.537C76.3791 15.5837 76.5258 15.607 76.6791 15.607ZM81.5453 18.357C81.492 18.357 81.4453 18.337 81.4053 18.297C81.3653 18.257 81.3453 18.2104 81.3453 18.157C81.3453 18.1304 81.3453 18.1037 81.3453 18.077C81.352 18.057 81.3653 18.0304 81.3853 17.997L82.1653 16.147L80.2453 11.617C80.2186 11.5504 80.2053 11.5037 80.2053 11.477C80.212 11.417 80.2353 11.367 80.2753 11.327C80.3153 11.2804 80.3653 11.257 80.4253 11.257H81.2353C81.3153 11.257 81.3753 11.277 81.4153 11.317C81.4553 11.357 81.4853 11.4004 81.5053 11.447L82.8353 14.717L84.2053 11.447C84.2253 11.3937 84.2553 11.3504 84.2953 11.317C84.3353 11.277 84.3953 11.257 84.4753 11.257H85.2753C85.3286 11.257 85.3753 11.277 85.4153 11.317C85.462 11.357 85.4853 11.4037 85.4853 11.457C85.4853 11.497 85.472 11.5504 85.4453 11.617L82.6153 18.167C82.5886 18.2204 82.5553 18.2637 82.5153 18.297C82.4753 18.337 82.4153 18.357 82.3353 18.357H81.5453ZM86.7875 16.457C86.7208 16.457 86.6642 16.4337 86.6175 16.387C86.5708 16.3404 86.5475 16.2837 86.5475 16.217V11.507C86.5475 11.4337 86.5708 11.3737 86.6175 11.327C86.6642 11.2804 86.7208 11.257 86.7875 11.257H87.5975C87.6642 11.257 87.7208 11.2804 87.7675 11.327C87.8208 11.3737 87.8475 11.4337 87.8475 11.507V11.917C88.0008 11.7037 88.1975 11.5404 88.4375 11.427C88.6842 11.3137 88.9675 11.257 89.2875 11.257H89.6975C89.7708 11.257 89.8275 11.2804 89.8675 11.327C89.9142 11.3737 89.9375 11.4304 89.9375 11.497V12.217C89.9375 12.2837 89.9142 12.3404 89.8675 12.387C89.8275 12.4337 89.7708 12.457 89.6975 12.457H88.9175C88.5975 12.457 88.3475 12.547 88.1675 12.727C87.9942 12.907 87.9075 13.1537 87.9075 13.467V16.217C87.9075 16.2837 87.8842 16.3404 87.8375 16.387C87.7908 16.4337 87.7308 16.457 87.6575 16.457H86.7875ZM93.1491 16.557C92.6157 16.557 92.1657 16.4637 91.7991 16.277C91.4391 16.0904 91.1624 15.827 90.9691 15.487C90.7824 15.147 90.6757 14.7504 90.6491 14.297C90.6424 14.177 90.6391 14.0304 90.6391 13.857C90.6391 13.6837 90.6424 13.537 90.6491 13.417C90.6757 12.957 90.7857 12.5604 90.9791 12.227C91.1791 11.887 91.4591 11.6237 91.8191 11.437C92.1857 11.2504 92.6291 11.157 93.1491 11.157C93.6691 11.157 94.1091 11.2504 94.4691 11.437C94.8357 11.6237 95.1157 11.887 95.3091 12.227C95.5091 12.5604 95.6224 12.957 95.6491 13.417C95.6557 13.537 95.6591 13.6837 95.6591 13.857C95.6591 14.0304 95.6557 14.177 95.6491 14.297C95.6224 14.7504 95.5124 15.147 95.3191 15.487C95.1324 15.827 94.8557 16.0904 94.4891 16.277C94.1291 16.4637 93.6824 16.557 93.1491 16.557ZM93.1491 15.567C93.5024 15.567 93.7757 15.457 93.9691 15.237C94.1624 15.0104 94.2691 14.6804 94.2891 14.247C94.2957 14.147 94.2991 14.017 94.2991 13.857C94.2991 13.697 94.2957 13.567 94.2891 13.467C94.2691 13.0404 94.1624 12.7137 93.9691 12.487C93.7757 12.2604 93.5024 12.147 93.1491 12.147C92.7957 12.147 92.5224 12.2604 92.3291 12.487C92.1357 12.7137 92.0291 13.0404 92.0091 13.467C92.0024 13.567 91.9991 13.697 91.9991 13.857C91.9991 14.017 92.0024 14.147 92.0091 14.247C92.0291 14.6804 92.1357 15.0104 92.3291 15.237C92.5224 15.457 92.7957 15.567 93.1491 15.567ZM97.217 16.457C97.1504 16.457 97.0937 16.4337 97.047 16.387C97.0004 16.3404 96.977 16.2837 96.977 16.217V9.59703C96.977 9.53036 97.0004 9.4737 97.047 9.42703C97.0937 9.38036 97.1504 9.35703 97.217 9.35703H98.047C98.1137 9.35703 98.1704 9.38036 98.217 9.42703C98.2637 9.4737 98.287 9.53036 98.287 9.59703V16.217C98.287 16.2837 98.2637 16.3404 98.217 16.387C98.1704 16.4337 98.1137 16.457 98.047 16.457H97.217ZM100.064 16.457C99.9968 16.457 99.9402 16.4337 99.8935 16.387C99.8468 16.3404 99.8235 16.2837 99.8235 16.217V9.59703C99.8235 9.53036 99.8468 9.4737 99.8935 9.42703C99.9402 9.38036 99.9968 9.35703 100.064 9.35703H100.894C100.96 9.35703 101.017 9.38036 101.064 9.42703C101.11 9.4737 101.134 9.53036 101.134 9.59703V16.217C101.134 16.2837 101.11 16.3404 101.064 16.387C101.017 16.4337 100.96 16.457 100.894 16.457H100.064Z" fill="#F7F7FA"/>
<path opacity="0.83" fill-rule="evenodd" clip-rule="evenodd" d="M98.2028 44.2134C98.2028 53.4171 90.6972 60.8781 81.4386 60.8781C72.1799 60.8781 64.6743 53.4171 64.6743 44.2134C64.6743 35.0098 72.1799 27.5488 81.4386 27.5488C90.6972 27.5488 98.2028 35.0098 98.2028 44.2134ZM86.5609 35.0201L88.4024 38.7295C88.8112 39.5497 89.5988 40.1201 90.5064 40.2506L94.6243 40.8471C95.5806 40.985 95.9594 42.1519 95.2693 42.8192L92.2915 45.7048C91.6315 46.3423 91.3314 47.2631 91.489 48.1653L92.194 52.2402C92.3553 53.1871 91.3577 53.9066 90.5064 53.4592L86.8235 51.5355C86.0096 51.1105 85.0345 51.1105 84.2207 51.5355L80.5378 53.4592C79.6827 53.9066 78.6851 53.1834 78.8501 52.2402L79.5552 48.1653C79.709 47.2631 79.409 46.3423 78.7526 45.7048L75.7748 42.8192C75.0848 42.1482 75.4636 40.985 76.4199 40.8471L80.5378 40.2506C81.4492 40.1201 82.2367 39.5497 82.6418 38.7295L84.4832 35.0201C84.8995 34.1626 86.1334 34.1626 86.5609 35.0201Z" fill="white"/>
<path opacity="0.79" fill-rule="evenodd" clip-rule="evenodd" d="M91.2299 53.5808C88.213 57.9855 83.1277 60.8781 77.3629 60.8781C68.1042 60.8781 60.5986 53.4171 60.5986 44.2134C60.5986 35.0098 68.1042 27.5488 77.3629 27.5488C85.4167 27.5488 92.1441 33.1944 93.7585 40.7216L90.5065 40.2506C89.5989 40.1201 88.8113 39.5497 88.4025 38.7295L86.5611 35.0201C86.1335 34.1626 84.8996 34.1626 84.4834 35.0201L82.6419 38.7295C82.2369 39.5497 81.4493 40.1201 80.5379 40.2506L76.42 40.8471C75.4637 40.985 75.0849 42.1482 75.775 42.8192L78.7528 45.7048C79.4091 46.3423 79.7091 47.2631 79.5553 48.1653L78.8503 52.2402C78.6853 53.1834 79.6829 53.9066 80.5379 53.4592L84.2208 51.5355C85.0347 51.1105 86.0098 51.1105 86.8236 51.5355L90.5065 53.4592C90.7457 53.585 90.9965 53.6185 91.2299 53.5808ZM92.1613 52.0505C93.4159 49.7145 94.1271 47.0465 94.1271 44.2134C94.1271 44.1183 94.1263 44.0233 94.1247 43.9285L92.2917 45.7048C91.6316 46.3423 91.3316 47.2631 91.4891 48.1653L92.1613 52.0505Z" fill="white"/>
<path opacity="0.75" fill-rule="evenodd" clip-rule="evenodd" d="M88.0243 52.1628C85.1844 57.3543 79.6495 60.8781 73.2867 60.8781C64.0281 60.8781 56.5225 53.4171 56.5225 44.2134C56.5225 35.0098 64.0281 27.5488 73.2867 27.5488C81.0407 27.5488 87.5651 32.7818 89.4809 39.8889C89.0235 39.6178 88.6457 39.2179 88.4023 38.7295L86.5608 35.0201C86.1333 34.1626 84.8994 34.1626 84.4831 35.0201L82.6417 38.7295C82.2366 39.5497 81.449 40.1201 80.5377 40.2506L76.4198 40.8471C75.4634 40.985 75.0846 42.1482 75.7747 42.8192L78.7525 45.7048C79.4088 46.3423 79.7089 47.2631 79.5551 48.1653L78.85 52.2402C78.685 53.1834 79.6826 53.9066 80.5377 53.4592L84.2206 51.5355C85.0344 51.1105 86.0095 51.1105 86.8234 51.5355L88.0243 52.1628Z" fill="white"/>
<path opacity="0.69" fill-rule="evenodd" clip-rule="evenodd" d="M84.2922 51.4995C81.5726 57.0519 75.8413 60.8781 69.211 60.8781C59.9524 60.8781 52.4468 53.4171 52.4468 44.2134C52.4468 35.0098 59.9524 27.5488 69.211 27.5488C75.5415 27.5488 81.0524 31.0368 83.9051 36.185L82.6419 38.7295C82.2369 39.5497 81.4493 40.1201 80.5379 40.2506L76.42 40.8471C75.4637 40.985 75.0849 42.1482 75.775 42.8192L78.7528 45.7048C79.4091 46.3423 79.7091 47.2631 79.5553 48.1653L78.8503 52.2402C78.6853 53.1834 79.6829 53.9066 80.5379 53.4592L84.2208 51.5355C84.2445 51.5232 84.2683 51.5112 84.2922 51.4995Z" fill="white"/>
<path opacity="0.65" fill-rule="evenodd" clip-rule="evenodd" d="M79.2025 53.2818C76.2135 57.8541 71.0296 60.8781 65.1353 60.8781C55.8767 60.8781 48.3711 53.4171 48.3711 44.2134C48.3711 35.0098 55.8767 27.5488 65.1353 27.5488C72.9297 27.5488 79.4816 32.8365 81.3591 40C81.1034 40.1237 80.827 40.2092 80.5382 40.2506L76.4203 40.8471C75.4639 40.985 75.0851 42.1482 75.7752 42.8192L78.753 45.7048C79.4093 46.3423 79.7094 47.2631 79.5556 48.1653L78.8505 52.2402C78.7774 52.6581 78.9326 53.0329 79.2025 53.2818Z" fill="white"/>
<path opacity="0.64" fill-rule="evenodd" clip-rule="evenodd" d="M77.8134 44.7945C77.5054 53.7291 70.1221 60.8781 61.0592 60.8781C51.8005 60.8781 44.2949 53.4171 44.2949 44.2134C44.2949 35.0098 51.8005 27.5488 61.0592 27.5488C69.1045 27.5488 75.8262 33.1826 77.4497 40.6979L76.42 40.8471C75.4637 40.985 75.0849 42.1482 75.775 42.8192L77.8134 44.7945Z" fill="white"/>
<path opacity="0.52" d="M56.983 60.8781C66.2416 60.8781 73.7472 53.4171 73.7472 44.2134C73.7472 35.0098 66.2416 27.5488 56.983 27.5488C47.7244 27.5488 40.2188 35.0098 40.2188 44.2134C40.2188 53.4171 47.7244 60.8781 56.983 60.8781Z" fill="white"/>
<path opacity="0.52" d="M52.9073 60.8781C62.1659 60.8781 69.6715 53.4171 69.6715 44.2134C69.6715 35.0098 62.1659 27.5488 52.9073 27.5488C43.6487 27.5488 36.1431 35.0098 36.1431 44.2134C36.1431 53.4171 43.6487 60.8781 52.9073 60.8781Z" fill="white"/>
<path opacity="0.5" d="M48.8316 60.8781C58.0902 60.8781 65.5959 53.4171 65.5959 44.2134C65.5959 35.0098 58.0902 27.5488 48.8316 27.5488C39.573 27.5488 32.0674 35.0098 32.0674 44.2134C32.0674 53.4171 39.573 60.8781 48.8316 60.8781Z" fill="white"/>
<path opacity="0.49" d="M44.7554 60.8781C54.0141 60.8781 61.5197 53.4171 61.5197 44.2134C61.5197 35.0098 54.0141 27.5488 44.7554 27.5488C35.4968 27.5488 27.9912 35.0098 27.9912 44.2134C27.9912 53.4171 35.4968 60.8781 44.7554 60.8781Z" fill="white"/>
<path opacity="0.44" d="M40.6798 60.8781C49.9384 60.8781 57.444 53.4171 57.444 44.2134C57.444 35.0098 49.9384 27.5488 40.6798 27.5488C31.4211 27.5488 23.9155 35.0098 23.9155 44.2134C23.9155 53.4171 31.4211 60.8781 40.6798 60.8781Z" fill="white"/>
<path opacity="0.4" d="M36.6036 60.8781C45.8622 60.8781 53.3678 53.4171 53.3678 44.2134C53.3678 35.0098 45.8622 27.5488 36.6036 27.5488C27.345 27.5488 19.8394 35.0098 19.8394 44.2134C19.8394 53.4171 27.345 60.8781 36.6036 60.8781Z" fill="white"/>
<path opacity="0.29" d="M32.5279 60.8781C41.7865 60.8781 49.2921 53.4171 49.2921 44.2134C49.2921 35.0098 41.7865 27.5488 32.5279 27.5488C23.2693 27.5488 15.7637 35.0098 15.7637 44.2134C15.7637 53.4171 23.2693 60.8781 32.5279 60.8781Z" fill="white"/>
<path opacity="0.27" d="M28.4522 60.8781C37.7109 60.8781 45.2165 53.4171 45.2165 44.2134C45.2165 35.0098 37.7109 27.5488 28.4522 27.5488C19.1936 27.5488 11.688 35.0098 11.688 44.2134C11.688 53.4171 19.1936 60.8781 28.4522 60.8781Z" fill="white"/>
<path opacity="0.25" d="M24.3761 60.8781C33.6347 60.8781 41.1403 53.4171 41.1403 44.2134C41.1403 35.0098 33.6347 27.5488 24.3761 27.5488C15.1174 27.5488 7.61182 35.0098 7.61182 44.2134C7.61182 53.4171 15.1174 60.8781 24.3761 60.8781Z" fill="white"/>
<path opacity="0.25" d="M20.3004 60.8781C29.559 60.8781 37.0646 53.4171 37.0646 44.2134C37.0646 35.0098 29.559 27.5488 20.3004 27.5488C11.0417 27.5488 3.53613 35.0098 3.53613 44.2134C3.53613 53.4171 11.0417 60.8781 20.3004 60.8781Z" fill="white"/>
<path opacity="0.22" d="M16.2242 60.8781C25.4828 60.8781 32.9884 53.4171 32.9884 44.2134C32.9884 35.0098 25.4828 27.5488 16.2242 27.5488C6.96556 27.5488 -0.540039 35.0098 -0.540039 44.2134C-0.540039 53.4171 6.96556 60.8781 16.2242 60.8781Z" fill="white"/>
<path opacity="0.14" d="M12.1485 60.8781C21.4071 60.8781 28.9127 53.4171 28.9127 44.2134C28.9127 35.0098 21.4071 27.5488 12.1485 27.5488C2.88988 27.5488 -4.61572 35.0098 -4.61572 44.2134C-4.61572 53.4171 2.88988 60.8781 12.1485 60.8781Z" fill="white"/>
<path opacity="0.06" d="M8.07234 60.8781C17.331 60.8781 24.8366 53.4171 24.8366 44.2134C24.8366 35.0098 17.331 27.5488 8.07234 27.5488C-1.18629 27.5488 -8.69189 35.0098 -8.69189 44.2134C-8.69189 53.4171 -1.18629 60.8781 8.07234 60.8781Z" fill="white"/>
<path opacity="0.03" d="M3.99666 60.8781C13.2553 60.8781 20.7609 53.4171 20.7609 44.2134C20.7609 35.0098 13.2553 27.5488 3.99666 27.5488C-5.26198 27.5488 -12.7676 35.0098 -12.7676 44.2134C-12.7676 53.4171 -5.26198 60.8781 3.99666 60.8781Z" fill="white"/>
<path opacity="0.95" fill-rule="evenodd" clip-rule="evenodd" d="M102.279 44.2134C102.279 53.4171 94.7734 60.8781 85.5147 60.8781C76.2561 60.8781 68.7505 53.4171 68.7505 44.2134C68.7505 35.0098 76.2561 27.5488 85.5147 27.5488C94.7734 27.5488 102.279 35.0098 102.279 44.2134ZM88.4026 38.7294L86.5611 35.02C86.1336 34.1625 84.8997 34.1625 84.4834 35.02L82.642 38.7294C82.2369 39.5496 81.4494 40.12 80.538 40.2505L76.4201 40.847C75.4637 40.9849 75.0849 42.1481 75.775 42.8192L78.7528 45.7047C79.4091 46.3422 79.7092 47.2631 79.5554 48.1653L78.8503 52.2401C78.6853 53.1833 79.6829 53.9065 80.538 53.4592L84.2209 51.5355C85.0347 51.1105 86.0098 51.1105 86.8237 51.5355L90.5065 53.4592C91.3579 53.9065 92.3555 53.187 92.1942 52.2401L91.4891 48.1653C91.3316 47.2631 91.6317 46.3422 92.2917 45.7047L95.2695 42.8192C95.9596 42.1518 95.5808 40.9849 94.6245 40.847L90.5065 40.2505C89.5989 40.12 88.8114 39.5496 88.4026 38.7294Z" fill="white"/>
<g clip-path="url(#clip1_5780_97915)">
<path d="M34.6884 8.79658V10.0929H34.4338C32.7011 10.0929 30.9546 11.4037 30.9546 14.3436V18.1602H29.8062V8.93345H30.9546V10.9041C31.766 9.54212 33.1131 8.7454 34.5226 8.7888L34.6884 8.79658Z" fill="white"/>
<path d="M39.425 8.72656C37.089 8.72656 35.2622 10.8341 35.2622 13.5269V13.5625C35.2622 16.2976 37.109 18.3628 39.5592 18.3628C41.4134 18.3628 42.4573 17.4459 43.1673 16.6425L43.2877 16.5012L42.471 15.7401L42.3506 15.8736C41.5476 16.7827 40.6706 17.2056 39.5866 17.2056C37.9405 17.2056 36.6822 15.9293 36.4815 14.0755H43.4293L43.4494 13.913C43.4631 13.765 43.4631 13.7083 43.4631 13.5469C43.461 10.7072 41.8011 8.72656 39.425 8.72656ZM36.4793 12.9483C36.6938 11.1512 37.8919 9.86823 39.3975 9.86823C41.2581 9.86823 42.0748 11.4828 42.2291 12.9483H36.4793Z" fill="white"/>
<path d="M18.1345 12.5949V18.1597H16.9839V12.6973C16.9839 10.8913 16.1366 9.85315 14.6553 9.85315C13.4572 9.85315 12.1682 10.7745 12.1682 12.8063V18.1597H11.0123V12.6461C11.0123 11.0282 10.241 9.99112 8.98693 9.86761C8.92565 9.85315 8.86331 9.85315 8.80098 9.85315H8.72491C7.29223 9.88875 6.47235 10.9203 6.47235 12.6973V18.1597H5.32178V12.5949C5.32178 10.2304 6.65831 8.70703 8.7323 8.70703C8.76611 8.70703 8.80098 8.70703 8.83584 8.71482C9.58705 8.72929 10.2421 8.94627 10.7989 9.36799C10.8824 9.42586 10.9574 9.49039 11.0335 9.56384C11.3303 9.84758 11.5438 10.1591 11.6949 10.4351C11.7086 10.4206 11.716 10.3984 11.7297 10.3839C12.4513 9.2723 13.4582 8.70703 14.725 8.70703C16.799 8.70703 18.1345 10.2304 18.1345 12.5949Z" fill="white"/>
<path d="M23.88 8.53906C21.2714 8.53906 19.1572 10.7656 19.1572 13.513C19.1572 16.2592 21.2714 18.4869 23.88 18.4869C26.4875 18.4869 28.6027 16.2592 28.6027 13.513C28.6027 10.7656 26.4875 8.53906 23.88 8.53906ZM26.627 13.0968L25.7881 13.9581C25.6021 14.1483 25.5176 14.4232 25.562 14.6925L25.7596 15.9098C25.8061 16.1913 25.524 16.4072 25.2841 16.2737L24.2466 15.6995C24.0173 15.5715 23.7426 15.5715 23.5134 15.6995L22.4758 16.2737C22.2349 16.4072 21.9539 16.1913 21.9993 15.9098L22.198 14.6925C22.2413 14.4232 22.1568 14.1483 21.9708 13.9581L21.1319 13.0968C20.9375 12.8965 21.0442 12.5482 21.3136 12.5071L22.4737 12.3301C22.7305 12.2901 22.9523 12.1209 23.0664 11.8761L23.5852 10.769C23.7056 10.5119 24.0532 10.5119 24.1737 10.769L24.6925 11.8761C24.8076 12.1209 25.0295 12.2901 25.2862 12.3301L26.4453 12.5071C26.7147 12.5482 26.8225 12.8965 26.627 13.0968Z" fill="white"/>
</g>
</g>
<defs>
<filter id="filter0_di_5780_97915" x="-3.575" y="-1.33047" width="114.15" height="78.15" filterUnits="userSpaceOnUse" color-interpolation-filters="sRGB">
<feFlood flood-opacity="0" result="BackgroundImageFix"/>
<feColorMatrix in="SourceAlpha" type="matrix" values="0 0 0 0 0 0 0 0 0 0 0 0 0 0 0 0 0 0 127 0" result="hardAlpha"/>
<feOffset dy="1.7875"/>
<feGaussianBlur stdDeviation="1.7875"/>
<feColorMatrix type="matrix" values="0 0 0 0 0.890196 0 0 0 0 0.372549 0 0 0 0 0.286275 0 0 0 0.3 0"/>
<feBlend mode="normal" in2="BackgroundImageFix" result="effect1_dropShadow_5780_97915"/>
<feBlend mode="normal" in="SourceGraphic" in2="effect1_dropShadow_5780_97915" result="shape"/>
<feColorMatrix in="SourceAlpha" type="matrix" values="0 0 0 0 0 0 0 0 0 0 0 0 0 0 0 0 0 0 127 0" result="hardAlpha"/>
<feOffset dy="-1.24348"/>
<feGaussianBlur stdDeviation="0.155435"/>
<feComposite in2="hardAlpha" operator="arithmetic" k2="-1" k3="1"/>
<feColorMatrix type="matrix" values="0 0 0 0 0.882353 0 0 0 0 0.337255 0 0 0 0 0.25098 0 0 0 0.5 0"/>
<feBlend mode="normal" in2="shape" result="effect2_innerShadow_5780_97915"/>
</filter>
<clipPath id="clip0_5780_97915">
<path d="M0 7.91703C0 3.79699 3.33996 0.457031 7.46 0.457031H99.54C103.66 0.457031 107 3.79699 107 7.91703V63.997C107 68.1171 103.66 71.457 99.54 71.457H7.46C3.33995 71.457 0 68.1171 0 63.997V7.91703Z" fill="white"/>
</clipPath>
<clipPath id="clip1_5780_97915">
<rect width="38.1391" height="9.94783" fill="white" transform="translate(5.32178 8.53906)"/>
</clipPath>
</defs>
</svg>
