<svg width="32" height="32" viewBox="0 0 32 32" fill="none" xmlns="http://www.w3.org/2000/svg">
<path d="M16 0C7.3264 0 0 7.3264 0 16C0 24.6736 7.3264 32 16 32C24.6736 32 32 24.6736 32 16C32 7.3264 24.6736 0 16 0ZM16 8C18.7632 8 20.8 10.0352 20.8 12.8C20.8 15.5648 18.7632 17.6 16 17.6C13.2384 17.6 11.2 15.5648 11.2 12.8C11.2 10.0352 13.2384 8 16 8ZM7.8304 23.6352C9.2656 21.5232 11.6592 20.1152 14.4 20.1152H17.6C20.3424 20.1152 22.7344 21.5232 24.1696 23.6352C22.1248 25.824 19.224 27.2 16 27.2C12.776 27.2 9.8752 25.824 7.8304 23.6352Z" fill="#FF7F32"/>
</svg>
