<svg width="28" height="28" viewBox="0 0 28 28" fill="none" xmlns="http://www.w3.org/2000/svg">
<path d="M6.59896 0C5.47331 0 4.63477 0.375976 4.13802 0.966146C3.64128 1.55632 3.5 2.29004 3.5 2.91667C3.5 4.4069 4.30664 5.61686 5.41406 6.39844C5.75586 6.63997 6.11816 6.83138 6.50781 7L0 7L0 13.4167L11.0833 13.4167V7.58333H16.9167V13.4167L28 13.4167V7L21.4922 7C21.8818 6.83138 22.2441 6.63997 22.5859 6.39844C23.6934 5.61686 24.5 4.4069 24.5 2.91667C24.5 2.29004 24.3587 1.55632 23.862 0.966146C23.3652 0.375976 22.5267 0 21.401 0C20.2367 0 19.2956 0.492188 18.5938 1.16667C17.8919 1.84115 17.3883 2.69108 16.9167 3.5C16.445 4.30892 16.0007 5.08594 15.5312 5.61458C15.0618 6.14323 14.6335 6.41667 14 6.41667C13.3665 6.41667 12.9382 6.14323 12.4688 5.61458C11.9993 5.08594 11.555 4.30892 11.0833 3.5C10.6117 2.69108 10.1081 1.84115 9.40625 1.16667C8.70443 0.492188 7.76335 0 6.59896 0ZM6.59896 1.16667C7.45345 1.16667 8.03678 1.47656 8.58594 2.00521C9.13509 2.53385 9.61816 3.28809 10.0807 4.08333C10.5433 4.87858 10.9967 5.70573 11.5938 6.38021C11.6051 6.39388 11.6188 6.40299 11.6302 6.41667L9.33333 6.41667C8.15755 6.41667 6.94303 6.06576 6.07031 5.45052C5.19759 4.83529 4.66667 4.00358 4.66667 2.91667C4.66667 2.47689 4.77148 2.04167 5.03125 1.73177C5.29102 1.42188 5.71712 1.16667 6.59896 1.16667ZM21.401 1.16667C22.2806 1.16667 22.709 1.42188 22.9688 1.73177C23.2285 2.04167 23.3333 2.47689 23.3333 2.91667C23.3333 4.00358 22.8024 4.83529 21.9297 5.45052C21.057 6.06576 19.8424 6.41667 18.6667 6.41667L16.3698 6.41667C16.3812 6.40299 16.3949 6.39388 16.4062 6.38021C17.0033 5.70573 17.4567 4.87858 17.9193 4.08333C18.3818 3.28809 18.8649 2.53385 19.4141 2.00521C19.9632 1.47656 20.5465 1.16667 21.401 1.16667ZM1.16667 14.5833L1.16667 28L26.8333 28V14.5833L16.9167 14.5833V26.8333L11.0833 26.8333L11.0833 14.5833L1.16667 14.5833Z" fill="#FFAB79"/>
</svg>
