<svg width="33" height="32" viewBox="0 0 33 32" fill="none" xmlns="http://www.w3.org/2000/svg">
<path d="M7.79167 0C6.50521 0 5.54688 0.429687 4.97917 1.10417C4.41146 1.77865 4.25 2.61719 4.25 3.33333C4.25 5.03646 5.17187 6.41927 6.4375 7.3125C6.82812 7.58854 7.24219 7.80729 7.6875 8L0.25 8L0.25 15.3333L12.9167 15.3333V8.66667H19.5833L19.5833 15.3333L32.25 15.3333V8H24.8125C25.2578 7.80729 25.6719 7.58854 26.0625 7.3125C27.3281 6.41927 28.25 5.03646 28.25 3.33333C28.25 2.61719 28.0885 1.77865 27.5208 1.10417C26.9531 0.429687 25.9948 0 24.7083 0C23.3776 0 22.3021 0.5625 21.5 1.33333C20.6979 2.10417 20.1224 3.07552 19.5833 4C19.0443 4.92448 18.5365 5.8125 18 6.41667C17.4635 7.02083 16.974 7.33333 16.25 7.33333C15.526 7.33333 15.0365 7.02083 14.5 6.41667C13.9635 5.8125 13.4557 4.92448 12.9167 4C12.3776 3.07552 11.8021 2.10417 11 1.33333C10.1979 0.5625 9.1224 0 7.79167 0ZM7.79167 1.33333C8.76823 1.33333 9.4349 1.6875 10.0625 2.29167C10.6901 2.89583 11.2422 3.75781 11.7708 4.66667C12.2995 5.57552 12.8177 6.52083 13.5 7.29167C13.513 7.30729 13.5286 7.31771 13.5417 7.33333L10.9167 7.33333C9.57292 7.33333 8.1849 6.93229 7.1875 6.22917C6.1901 5.52604 5.58333 4.57552 5.58333 3.33333C5.58333 2.83073 5.70313 2.33333 6 1.97917C6.29688 1.625 6.78385 1.33333 7.79167 1.33333ZM24.7083 1.33333C25.7135 1.33333 26.2031 1.625 26.5 1.97917C26.7969 2.33333 26.9167 2.83073 26.9167 3.33333C26.9167 4.57552 26.3099 5.52604 25.3125 6.22917C24.3151 6.93229 22.9271 7.33333 21.5833 7.33333H18.9583C18.9714 7.31771 18.987 7.30729 19 7.29167C19.6823 6.52083 20.2005 5.57552 20.7292 4.66667C21.2578 3.75781 21.8099 2.89583 22.4375 2.29167C23.0651 1.6875 23.7318 1.33333 24.7083 1.33333ZM1.58333 16.6667L1.58333 32L30.9167 32V16.6667H19.5833V30.6667L12.9167 30.6667L12.9167 16.6667H1.58333Z" />
</svg>
