<svg width="14" height="23" viewBox="0 0 14 23" fill="none" xmlns="http://www.w3.org/2000/svg">
<path fill-rule="evenodd" clip-rule="evenodd" d="M12.9356 10.3648L3.33561 0.764781C3.04761 0.476781 2.64761 0.300781 2.19961 0.300781C1.31961 0.300781 0.599609 1.02078 0.599609 1.90078C0.599609 2.34878 0.775609 2.74878 1.06361 3.03678L9.54361 11.5008L1.07961 19.9648C0.77561 20.2528 0.599609 20.6528 0.599609 21.1008C0.599609 21.9808 1.31961 22.7008 2.19961 22.7008C2.64761 22.7008 3.04761 22.5248 3.33561 22.2368L12.9356 12.6368C13.2236 12.3488 13.3996 11.9488 13.3996 11.5008C13.3996 11.0528 13.2236 10.6528 12.9356 10.3648Z" fill="#BFBEC0"/>
</svg>
