<svg width="25" height="24" viewBox="0 0 25 24" fill="none" xmlns="http://www.w3.org/2000/svg">
<path d="M16.9455 10.1538C16.9455 8.375 16.3133 6.85337 15.0488 5.58894C13.7844 4.32452 12.2628 3.69231 10.4839 3.69231C8.70508 3.69231 7.18344 4.32452 5.91902 5.58894C4.6546 6.85337 4.02239 8.375 4.02239 10.1538C4.02239 11.9327 4.6546 13.4543 5.91902 14.7188C7.18344 15.9832 8.70508 16.6154 10.4839 16.6154C12.2628 16.6154 13.7844 15.9832 15.0488 14.7188C16.3133 13.4543 16.9455 11.9327 16.9455 10.1538ZM24.3301 22.1538C24.3301 22.6538 24.1474 23.0865 23.782 23.4519C23.4166 23.8173 22.9839 24 22.4839 24C21.9647 24 21.532 23.8173 21.1858 23.4519L16.2387 18.5192C14.5176 19.7115 12.5993 20.3077 10.4839 20.3077C9.10892 20.3077 7.79402 20.0409 6.53921 19.5072C5.28441 18.9736 4.20267 18.2524 3.29402 17.3438C2.38537 16.4351 1.66421 15.3534 1.13056 14.0986C0.596905 12.8438 0.330078 11.5288 0.330078 10.1538C0.330078 8.77885 0.596905 7.46394 1.13056 6.20913C1.66421 4.95433 2.38537 3.8726 3.29402 2.96394C4.20267 2.05529 5.28441 1.33413 6.53921 0.800481C7.79402 0.266827 9.10892 0 10.4839 0C11.8589 0 13.1738 0.266827 14.4286 0.800481C15.6834 1.33413 16.7652 2.05529 17.6738 2.96394C18.5825 3.8726 19.3036 4.95433 19.8373 6.20913C20.3709 7.46394 20.6378 8.77885 20.6378 10.1538C20.6378 12.2692 20.0416 14.1875 18.8493 15.9087L23.7964 20.8558C24.1522 21.2115 24.3301 21.6442 24.3301 22.1538Z" fill="#64656A"/>
</svg>
