<svg width="100%" height="100%" viewBox="0 0 143 144" fill="none" xmlns="http://www.w3.org/2000/svg">
<path d="M71.5 143.232C32.032 143.232 0 111.2 0 71.7324C0 32.2644 32.032 0.232422 71.5 0.232422C110.968 0.232422 143 32.2644 143 71.7324C143 111.2 110.968 143.232 71.5 143.232ZM107.25 43.1324C105.248 43.1324 103.461 43.9189 102.174 45.2059L57.2 90.2509L40.8265 73.8059C39.5395 72.5189 37.752 71.7324 35.75 71.7324C31.8175 71.7324 28.6 74.9499 28.6 78.8824C28.6 80.8844 29.3865 82.6719 30.6735 83.9589L52.1235 105.409C53.4105 106.696 55.198 107.482 57.2 107.482C59.202 107.482 60.9895 106.696 62.2765 105.409L112.327 55.3589C113.614 54.0719 114.4 52.2844 114.4 50.2824C114.4 46.3499 111.183 43.1324 107.25 43.1324Z" fill="#FF7F32"/>
</svg>
