<svg width="375" height="312" viewBox="0 0 375 312" fill="none" xmlns="http://www.w3.org/2000/svg">
<g opacity="0.3">
<rect opacity="0.6" x="50.9399" y="138.799" width="81.4417" height="114.178" fill="url(#paint0_linear_6157_131800)"/>
<circle cx="92.06" cy="254.973" r="40.3216" fill="white"/>
</g>
<g opacity="0.3">
<rect opacity="0.6" x="246.968" y="103.76" width="95.2408" height="133.524" fill="url(#paint1_linear_6157_131800)"/>
<circle cx="295.055" cy="239.618" r="47.1535" fill="white"/>
</g>
<g opacity="0.3">
<rect opacity="0.6" x="269" y="28" width="68" height="55" fill="url(#paint2_linear_6157_131800)"/>
<ellipse cx="303.315" cy="79.6113" rx="33.6184" ry="34.5654" fill="white"/>
</g>
<g opacity="0.3">
<rect opacity="0.6" x="32" y="28" width="127" height="75" fill="url(#paint3_linear_6157_131800)"/>
<ellipse cx="96.3958" cy="101.392" rx="63.4488" ry="63.9223" fill="white"/>
</g>
<g opacity="0.8">
<circle cx="294.792" cy="238.707" r="47.8233" fill="#6464F4"/>
<path d="M337.123 238.707C337.123 262.086 318.171 281.038 294.792 281.038C271.412 281.038 252.46 262.086 252.46 238.707C252.46 215.328 271.412 196.375 294.792 196.375C318.171 196.375 337.123 215.328 337.123 238.707Z" fill="#7171FF"/>
<path d="M331.632 238.707C331.632 259.053 315.138 275.547 294.792 275.547C274.445 275.547 257.952 259.053 257.952 238.707C257.952 218.361 274.445 201.867 294.792 201.867C315.138 201.867 331.632 218.361 331.632 238.707Z" fill="#6464F4"/>
<path fill-rule="evenodd" clip-rule="evenodd" d="M294.792 284.7C320.193 284.7 340.784 264.108 340.784 238.707C340.784 213.306 320.193 192.714 294.792 192.714C269.39 192.714 248.799 213.306 248.799 238.707C248.799 264.108 269.39 284.7 294.792 284.7ZM294.792 286.53C321.204 286.53 342.615 265.119 342.615 238.707C342.615 212.295 321.204 190.883 294.792 190.883C268.379 190.883 246.968 212.295 246.968 238.707C246.968 265.119 268.379 286.53 294.792 286.53Z" fill="#7171FF"/>
<path fill-rule="evenodd" clip-rule="evenodd" d="M294.792 206.443C276.973 206.443 262.528 220.888 262.528 238.707C262.528 256.525 276.973 270.97 294.792 270.97C312.61 270.97 327.055 256.525 327.055 238.707C327.055 220.888 312.61 206.443 294.792 206.443ZM261.613 238.707C261.613 220.383 276.467 205.528 294.792 205.528C313.116 205.528 327.97 220.383 327.97 238.707C327.97 257.031 313.116 271.886 294.792 271.886C276.467 271.886 261.613 257.031 261.613 238.707Z" fill="#7171FF"/>
<path fill-rule="evenodd" clip-rule="evenodd" d="M280.834 215.138H308.292V214.223H280.834V215.138ZM312.868 219.257H276.257V218.342H312.868V219.257ZM271.681 223.376H317.445V222.461H271.681V223.376ZM319.733 227.495H269.393V226.579H319.733V227.495ZM267.104 231.613H322.021V230.698H267.104V231.613ZM323.394 235.732H266.189V234.817H323.394V235.732ZM324.538 239.851H264.816V238.936H324.538V239.851ZM266.189 243.054L323.394 243.054V243.97L266.189 243.97L266.189 243.054ZM322.021 247.173L267.105 247.173V248.088L322.021 248.088V247.173ZM269.393 251.292L319.733 251.292V252.207L269.393 252.207V251.292ZM317.445 255.411L271.681 255.411L271.681 256.326L317.445 256.326V255.411ZM276.257 259.529L312.868 259.529V260.445L276.257 260.445V259.529ZM308.292 263.648L280.834 263.648V264.563L308.292 264.563V263.648Z" fill="#7171FF"/>
<path d="M269.164 240.308L291.817 203.011H297.08L320.877 240.308L297.08 275.318H292.961L269.164 240.308Z" fill="#6464F4"/>
<path d="M272.138 240.614L294.792 204.003L317.216 240.614L294.792 273.106L272.138 240.614Z" fill="#5F5FE9"/>
<path fill-rule="evenodd" clip-rule="evenodd" d="M294.563 272.778L294.792 273.106L317.216 240.614L294.792 204.003L294.563 204.372V272.778Z" fill="#5C5CE1"/>
</g>
<g opacity="0.7">
<circle cx="92.1343" cy="254.806" r="41.1943" fill="#6464F4"/>
<path d="M128.598 254.806C128.598 274.944 112.273 291.27 92.1343 291.27C71.9959 291.27 55.6704 274.944 55.6704 254.806C55.6704 234.667 71.9959 218.342 92.1343 218.342C112.273 218.342 128.598 234.667 128.598 254.806Z" fill="#7171FF"/>
<path d="M123.868 254.806C123.868 272.332 109.66 286.539 92.1343 286.539C74.6084 286.539 60.4009 272.332 60.4009 254.806C60.4009 237.28 74.6084 223.072 92.1343 223.072C109.66 223.072 123.868 237.28 123.868 254.806Z" fill="#6464F4"/>
<path fill-rule="evenodd" clip-rule="evenodd" d="M92.1343 294.423C114.014 294.423 131.752 276.686 131.752 254.806C131.752 232.926 114.014 215.188 92.1343 215.188C70.2541 215.188 52.5168 232.926 52.5168 254.806C52.5168 276.686 70.2541 294.423 92.1343 294.423ZM92.1343 296C114.885 296 133.329 277.557 133.329 254.806C133.329 232.055 114.885 213.611 92.1343 213.611C69.3833 213.611 50.9399 232.055 50.9399 254.806C50.9399 277.557 69.3833 296 92.1343 296Z" fill="#7171FF"/>
<path fill-rule="evenodd" clip-rule="evenodd" d="M92.1343 227.014C76.7855 227.014 64.3429 239.457 64.3429 254.806C64.3429 270.154 76.7855 282.597 92.1343 282.597C107.483 282.597 119.926 270.154 119.926 254.806C119.926 239.457 107.483 227.014 92.1343 227.014ZM63.5544 254.806C63.5544 239.021 76.3501 226.226 92.1343 226.226C107.918 226.226 120.714 239.021 120.714 254.806C120.714 270.59 107.918 283.385 92.1343 283.385C76.3501 283.385 63.5544 270.59 63.5544 254.806Z" fill="#7171FF"/>
<path fill-rule="evenodd" clip-rule="evenodd" d="M80.1111 234.504H103.763V233.716H80.1111V234.504ZM107.705 238.052H76.1691V237.264H107.705V238.052ZM72.227 241.6H111.647V240.811H72.227V241.6ZM113.619 245.148H70.256V244.359H113.619V245.148ZM68.2849 248.696H115.589V247.907H68.2849V248.696ZM116.772 252.243H67.4966V251.455H116.772V252.243ZM117.758 255.791H66.314V255.003H117.758V255.791ZM67.4966 258.551L116.772 258.551V259.339L67.4966 259.339L67.4966 258.551ZM115.589 262.098L68.2849 262.098L68.2849 262.887L115.589 262.887V262.098ZM70.256 265.646L113.618 265.646V266.435L70.256 266.435V265.646ZM111.647 269.194L72.2271 269.194V269.983L111.647 269.983V269.194ZM76.1691 272.742H107.705V273.53L76.1691 273.53V272.742ZM103.763 276.29H80.1111L80.1111 277.078L103.763 277.078V276.29Z" fill="#7171FF"/>
<path d="M70.0588 256.185L89.5719 224.058H94.1053L114.604 256.185L94.1053 286.342H90.5575L70.0588 256.185Z" fill="#6464F4"/>
<path d="M72.6212 256.448L92.1343 224.912L111.45 256.448L92.1343 284.437L72.6212 256.448Z" fill="#5F5FE9"/>
<path fill-rule="evenodd" clip-rule="evenodd" d="M91.9371 284.154L92.1343 284.437L111.45 256.448L92.1343 224.912L91.9371 225.231V284.154Z" fill="#5C5CE1"/>
</g>
<g opacity="0.7">
<circle cx="96.8693" cy="102.339" r="64.8693" fill="#6464F4"/>
<path d="M154.29 102.339C154.29 134.052 128.582 159.759 96.8694 159.759C65.1571 159.759 39.4492 134.052 39.4492 102.339C39.4492 70.6271 65.1571 44.9192 96.8694 44.9192C128.582 44.9192 154.29 70.6271 154.29 102.339Z" fill="#7171FF"/>
<path d="M146.84 102.339C146.84 129.937 124.467 152.31 96.8692 152.31C69.271 152.31 46.8982 129.937 46.8982 102.339C46.8982 74.741 69.271 52.3682 96.8692 52.3682C124.467 52.3682 146.84 74.741 146.84 102.339Z" fill="#6464F4"/>
<path fill-rule="evenodd" clip-rule="evenodd" d="M96.8693 164.725C131.324 164.725 159.255 136.794 159.255 102.339C159.255 67.8843 131.324 39.953 96.8693 39.953C62.4143 39.953 34.483 67.8843 34.483 102.339C34.483 136.794 62.4143 164.725 96.8693 164.725ZM96.8693 167.208C132.696 167.208 161.739 138.166 161.739 102.339C161.739 66.5129 132.696 37.47 96.8693 37.47C61.043 37.47 32 66.5129 32 102.339C32 138.166 61.043 167.208 96.8693 167.208Z" fill="#7171FF"/>
<path fill-rule="evenodd" clip-rule="evenodd" d="M96.8692 58.5757C72.6994 58.5757 53.1058 78.1693 53.1058 102.339C53.1058 126.509 72.6994 146.103 96.8692 146.103C121.039 146.103 140.633 126.509 140.633 102.339C140.633 78.1693 121.039 58.5757 96.8692 58.5757ZM51.8643 102.339C51.8643 77.4837 72.0137 57.3342 96.8692 57.3342C121.725 57.3342 141.874 77.4837 141.874 102.339C141.874 127.195 121.725 147.344 96.8692 147.344C72.0137 147.344 51.8643 127.195 51.8643 102.339Z" fill="#7171FF"/>
<path fill-rule="evenodd" clip-rule="evenodd" d="M77.9362 70.3702H115.182V69.1287H77.9362V70.3702ZM121.389 75.957H71.7286V74.7155H121.389V75.957ZM65.521 81.5439H127.597V80.3023H65.521V81.5439ZM130.701 87.1307H62.4172V85.8892H130.701V87.1307ZM59.3133 92.7175H133.804V91.476H59.3133V92.7175ZM135.667 98.3043H58.0719V97.0627H135.667V98.3043ZM137.219 103.891H56.2096V102.65H137.219V103.891ZM58.0719 108.236L135.667 108.236V109.478L58.0719 109.478L58.0719 108.236ZM133.804 113.823L59.3134 113.823V115.065L133.804 115.065V113.823ZM62.4172 119.41L130.701 119.41V120.652L62.4172 120.652V119.41ZM127.597 124.997L65.521 124.997V126.238L127.597 126.238V124.997ZM71.7286 130.584L121.389 130.584V131.825L71.7286 131.825V130.584ZM115.182 136.171H77.9361V137.412H115.182V136.171Z" fill="#7171FF"/>
<path d="M62.1068 104.512L92.8344 53.92H99.9731L132.253 104.512L99.9731 152H94.3863L62.1068 104.512Z" fill="#6464F4"/>
<path d="M66.1416 104.926L96.8691 55.2651L127.286 104.926L96.8691 149L66.1416 104.926Z" fill="#5F5FE9"/>
<path fill-rule="evenodd" clip-rule="evenodd" d="M96.5587 148.554L96.8691 149L127.286 104.926L96.8691 55.2651L96.5587 55.7668V148.554Z" fill="#5C5CE1"/>
</g>
<g opacity="0.8">
<circle cx="303.315" cy="79.6113" r="34.5654" fill="#6464F4"/>
<path d="M333.911 79.6113C333.911 96.5091 320.212 110.207 303.315 110.207C286.417 110.207 272.718 96.5091 272.718 79.6113C272.718 62.7135 286.417 49.0151 303.315 49.0151C320.212 49.0151 333.911 62.7135 333.911 79.6113Z" fill="#7171FF"/>
<path d="M329.941 79.6113C329.941 94.3169 318.02 106.238 303.315 106.238C288.609 106.238 276.688 94.3169 276.688 79.6113C276.688 64.9056 288.609 52.9844 303.315 52.9844C318.02 52.9844 329.941 64.9056 329.941 79.6113Z" fill="#6464F4"/>
<path fill-rule="evenodd" clip-rule="evenodd" d="M303.315 112.854C321.674 112.854 336.557 97.9705 336.557 79.6113C336.557 61.2521 321.674 46.369 303.315 46.369C284.955 46.369 270.072 61.2521 270.072 79.6113C270.072 97.9705 284.955 112.854 303.315 112.854ZM303.315 114.177C322.404 114.177 337.88 98.7012 337.88 79.6113C337.88 60.5213 322.404 45.0459 303.315 45.0459C284.225 45.0459 268.749 60.5213 268.749 79.6113C268.749 98.7012 284.225 114.177 303.315 114.177Z" fill="#7171FF"/>
<path fill-rule="evenodd" clip-rule="evenodd" d="M303.315 56.292C290.436 56.292 279.995 66.7324 279.995 79.6113C279.995 92.4901 290.436 102.93 303.315 102.93C316.193 102.93 326.634 92.4901 326.634 79.6113C326.634 66.7324 316.193 56.292 303.315 56.292ZM279.334 79.6113C279.334 66.367 290.07 55.6305 303.315 55.6305C316.559 55.6305 327.295 66.367 327.295 79.6113C327.295 92.8555 316.559 103.592 303.315 103.592C290.07 103.592 279.334 92.8555 279.334 79.6113Z" fill="#7171FF"/>
<path fill-rule="evenodd" clip-rule="evenodd" d="M293.226 62.5766H313.072V61.915H293.226V62.5766ZM316.38 65.5535H289.918V64.892H316.38V65.5535ZM286.611 68.5304H319.688V67.8689H286.611V68.5304ZM321.341 71.5074H284.957V70.8458H321.341V71.5074ZM283.303 74.4843H322.995V73.8228H283.303V74.4843ZM323.987 77.4611H282.641V76.7996H323.987V77.4611ZM324.814 80.4381H281.649V79.7765H324.814V80.4381ZM282.641 82.7535L323.987 82.7535V83.4151L282.641 83.415L282.641 82.7535ZM322.995 85.7304L283.303 85.7304V86.392L322.995 86.392V85.7304ZM284.957 88.7074L321.341 88.7074V89.3689L284.957 89.3689V88.7074ZM319.688 91.6842L286.611 91.6842V92.3457L319.688 92.3457V91.6842ZM289.918 94.6611L316.38 94.6611V95.3227L289.918 95.3227V94.6611ZM313.072 97.6381L293.226 97.6381V98.2996H313.072V97.6381Z" fill="#7171FF"/>
<path d="M284.791 80.769L301.164 53.8113H304.968L322.168 80.769L304.968 106.073H301.991L284.791 80.769Z" fill="#6464F4"/>
<path d="M286.941 80.9895L303.314 54.528L319.522 80.9895L303.314 104.474L286.941 80.9895Z" fill="#5F5FE9"/>
<path fill-rule="evenodd" clip-rule="evenodd" d="M303.149 104.237L303.314 104.474L319.522 80.9895L303.314 54.528L303.149 54.7953V104.237Z" fill="#5C5CE1"/>
</g>
<g filter="url(#filter0_ddd_6157_131800)">
<circle cx="189.675" cy="164.841" r="98.9611" fill="#6464F4"/>
</g>
<path d="M277.272 164.841C277.272 213.22 238.053 252.438 189.675 252.438C141.296 252.438 102.078 213.22 102.078 164.841C102.078 116.462 141.296 77.2439 189.675 77.2439C238.053 77.2439 277.272 116.462 277.272 164.841Z" fill="#7171FF"/>
<path d="M265.908 164.841C265.908 206.943 231.777 241.074 189.675 241.074C147.572 241.074 113.442 206.943 113.442 164.841C113.442 122.739 147.572 88.6078 189.675 88.6078C231.777 88.6078 265.908 122.739 265.908 164.841Z" fill="#6464F4"/>
<path fill-rule="evenodd" clip-rule="evenodd" d="M189.675 260.014C242.238 260.014 284.848 217.404 284.848 164.841C284.848 112.278 242.238 69.6679 189.675 69.6679C137.112 69.6679 94.5017 112.278 94.5017 164.841C94.5017 217.404 137.112 260.014 189.675 260.014ZM189.675 263.802C244.33 263.802 288.636 219.496 288.636 164.841C288.636 110.186 244.33 65.8799 189.675 65.8799C135.02 65.8799 90.7137 110.186 90.7137 164.841C90.7137 219.496 135.02 263.802 189.675 263.802Z" fill="#7171FF"/>
<path fill-rule="evenodd" clip-rule="evenodd" d="M189.675 98.0777C152.802 98.0777 122.912 127.969 122.912 164.841C122.912 201.713 152.802 231.604 189.675 231.604C226.547 231.604 256.438 201.713 256.438 164.841C256.438 127.969 226.547 98.0777 189.675 98.0777ZM121.018 164.841C121.018 126.923 151.756 96.1837 189.675 96.1837C227.593 96.1837 258.332 126.923 258.332 164.841C258.332 202.759 227.593 233.498 189.675 233.498C151.756 233.498 121.018 202.759 121.018 164.841Z" fill="#7171FF"/>
<path fill-rule="evenodd" clip-rule="evenodd" d="M160.791 116.071H217.611V114.177H160.791V116.071ZM227.081 124.594H151.322V122.7H227.081V124.594ZM141.852 133.117H236.551V131.223H141.852V133.117ZM241.286 141.64H137.117V139.746H241.286V141.64ZM132.382 150.163H246.021V148.269H132.382V150.163ZM248.862 158.686H130.488V156.792H248.862V158.686ZM251.23 167.209H127.647V165.315H251.23V167.209ZM130.488 173.838L248.862 173.838V175.732L130.488 175.732L130.488 173.838ZM246.021 182.361L132.382 182.36V184.254L246.021 184.254V182.361ZM137.117 190.883L241.286 190.883V192.777L137.117 192.777V190.883ZM236.551 199.406L141.852 199.406V201.3L236.551 201.3V199.406ZM151.322 207.929L227.081 207.929V209.823L151.322 209.823V207.929ZM217.611 216.452L160.791 216.452V218.346L217.611 218.346V216.452Z" fill="#7171FF"/>
<path d="M136.643 168.156L183.519 90.9753H194.41L243.654 168.156L194.41 240.601H185.887L136.643 168.156Z" fill="#6464F4"/>
<path d="M142.799 168.787L189.675 93.0273L236.078 168.787L189.675 236.024L142.799 168.787Z" fill="#5F5FE9"/>
<path fill-rule="evenodd" clip-rule="evenodd" d="M189.201 235.345L189.675 236.024L236.078 168.787L189.675 93.0273L189.201 93.7926V235.345Z" fill="#5C5CE1"/>
<path d="M135.54 195.556C134.969 195.556 134.484 195.356 134.085 194.957C133.686 194.558 133.486 194.073 133.486 193.502V189.138C133.486 188.625 133.6 188.026 133.828 187.341C134.114 186.6 134.713 185.858 135.625 185.117L149.145 171.683C152.91 168.716 155.933 166.206 158.215 164.153C160.554 162.042 162.237 160.131 163.264 158.42C164.347 156.651 164.889 154.911 164.889 153.2C164.889 150.633 164.176 148.551 162.75 146.954C161.381 145.356 159.185 144.558 156.161 144.558C154.165 144.558 152.482 144.985 151.113 145.841C149.744 146.64 148.66 147.724 147.861 149.093C147.12 150.462 146.606 151.973 146.321 153.628C146.207 154.369 145.893 154.883 145.38 155.168C144.867 155.453 144.353 155.596 143.84 155.596H136.224C135.711 155.596 135.283 155.425 134.941 155.082C134.598 154.74 134.427 154.341 134.427 153.885C134.484 151.432 134.998 149.064 135.968 146.782C136.937 144.444 138.335 142.39 140.16 140.622C142.043 138.796 144.325 137.341 147.006 136.258C149.687 135.174 152.71 134.632 156.076 134.632C160.811 134.632 164.718 135.43 167.799 137.028C170.936 138.625 173.275 140.793 174.815 143.531C176.412 146.269 177.211 149.349 177.211 152.772C177.211 155.453 176.698 157.935 175.671 160.217C174.644 162.441 173.161 164.609 171.221 166.72C169.282 168.773 166.943 170.884 164.205 173.052L152.054 185.373H176.441C177.068 185.373 177.553 185.573 177.896 185.972C178.295 186.315 178.495 186.799 178.495 187.427V193.502C178.495 194.073 178.295 194.558 177.896 194.957C177.553 195.356 177.068 195.556 176.441 195.556H135.54ZM192.026 195.556C190.828 195.556 190.229 194.985 190.229 193.845C190.229 193.502 190.343 193.189 190.572 192.903L232.756 137.284C233.156 136.771 233.555 136.372 233.954 136.086C234.354 135.801 234.924 135.659 235.666 135.659H240.201C241.399 135.659 241.998 136.229 241.998 137.37C241.998 137.712 241.884 138.026 241.655 138.311L199.471 193.93C199.071 194.444 198.672 194.843 198.273 195.128C197.93 195.413 197.36 195.556 196.561 195.556H192.026ZM233.184 196.069C229.362 196.069 226.339 195.014 224.114 192.903C221.889 190.793 220.663 188.026 220.435 184.603C220.378 183.12 220.349 181.837 220.349 180.753C220.349 179.669 220.378 178.328 220.435 176.731C220.663 173.308 221.832 170.542 223.943 168.431C226.111 166.32 229.191 165.265 233.184 165.265C237.234 165.265 240.315 166.32 242.426 168.431C244.593 170.542 245.763 173.308 245.934 176.731C246.048 178.328 246.105 179.669 246.105 180.753C246.105 181.837 246.048 183.12 245.934 184.603C245.763 188.026 244.536 190.793 242.254 192.903C240.03 195.014 237.006 196.069 233.184 196.069ZM233.184 189.395C234.439 189.395 235.409 189.138 236.094 188.625C236.835 188.112 237.377 187.456 237.719 186.657C238.062 185.858 238.233 185.06 238.233 184.261C238.347 182.835 238.404 181.637 238.404 180.667C238.404 179.64 238.347 178.471 238.233 177.159C238.176 175.847 237.776 174.649 237.035 173.565C236.293 172.424 235.01 171.854 233.184 171.854C231.416 171.854 230.161 172.424 229.419 173.565C228.678 174.649 228.25 175.847 228.136 177.159C228.079 178.471 228.05 179.64 228.05 180.667C228.05 181.637 228.079 182.835 228.136 184.261C228.25 185.06 228.45 185.858 228.735 186.657C229.077 187.456 229.59 188.112 230.275 188.625C231.017 189.138 231.986 189.395 233.184 189.395ZM199.043 165.778C195.221 165.778 192.197 164.78 189.973 162.784C187.748 160.787 186.521 158.077 186.293 154.655C186.236 153.171 186.208 151.888 186.208 150.804C186.208 149.663 186.236 148.294 186.293 146.697C186.521 143.274 187.691 140.507 189.802 138.397C191.969 136.286 195.05 135.231 199.043 135.231C203.093 135.231 206.173 136.286 208.284 138.397C210.452 140.507 211.621 143.274 211.792 146.697C211.906 148.294 211.964 149.663 211.964 150.804C211.964 151.888 211.906 153.171 211.792 154.655C211.621 158.077 210.395 160.787 208.113 162.784C205.888 164.78 202.865 165.778 199.043 165.778ZM199.043 159.446C200.298 159.446 201.268 159.19 201.952 158.676C202.694 158.163 203.236 157.507 203.578 156.708C203.92 155.91 204.091 155.082 204.091 154.227C204.205 152.801 204.262 151.603 204.262 150.633C204.262 149.606 204.205 148.437 204.091 147.125C204.034 145.813 203.635 144.615 202.893 143.531C202.152 142.447 200.868 141.905 199.043 141.905C197.274 141.905 196.019 142.447 195.278 143.531C194.536 144.615 194.137 145.813 194.08 147.125C194.023 148.437 193.994 149.606 193.994 150.633C193.994 151.603 194.023 152.801 194.08 154.227C194.137 155.082 194.308 155.91 194.593 156.708C194.936 157.507 195.449 158.163 196.134 158.676C196.875 159.19 197.845 159.446 199.043 159.446Z" fill="white"/>
<defs>
<filter id="filter0_ddd_6157_131800" x="75.7831" y="65.8799" width="227.783" height="231.516" filterUnits="userSpaceOnUse" color-interpolation-filters="sRGB">
<feFlood flood-opacity="0" result="BackgroundImageFix"/>
<feColorMatrix in="SourceAlpha" type="matrix" values="0 0 0 0 0 0 0 0 0 0 0 0 0 0 0 0 0 0 127 0" result="hardAlpha"/>
<feOffset dy="4.12457"/>
<feGaussianBlur stdDeviation="1.64983"/>
<feColorMatrix type="matrix" values="0 0 0 0 0.219608 0 0 0 0 0.219608 0 0 0 0 0.533333 0 0 0 0.0196802 0"/>
<feBlend mode="normal" in2="BackgroundImageFix" result="effect1_dropShadow_6157_131800"/>
<feColorMatrix in="SourceAlpha" type="matrix" values="0 0 0 0 0 0 0 0 0 0 0 0 0 0 0 0 0 0 127 0" result="hardAlpha"/>
<feOffset dy="9.91191"/>
<feGaussianBlur stdDeviation="3.96476"/>
<feColorMatrix type="matrix" values="0 0 0 0 0.219608 0 0 0 0 0.219608 0 0 0 0 0.533333 0 0 0 0.0282725 0"/>
<feBlend mode="normal" in2="effect1_dropShadow_6157_131800" result="effect2_dropShadow_6157_131800"/>
<feColorMatrix in="SourceAlpha" type="matrix" values="0 0 0 0 0 0 0 0 0 0 0 0 0 0 0 0 0 0 127 0" result="hardAlpha"/>
<feOffset dy="18.6632"/>
<feGaussianBlur stdDeviation="7.4653"/>
<feColorMatrix type="matrix" values="0 0 0 0 0.219608 0 0 0 0 0.219608 0 0 0 0 0.533333 0 0 0 0.035 0"/>
<feBlend mode="normal" in2="effect2_dropShadow_6157_131800" result="effect3_dropShadow_6157_131800"/>
<feBlend mode="normal" in="SourceGraphic" in2="effect3_dropShadow_6157_131800" result="shape"/>
</filter>
<linearGradient id="paint0_linear_6157_131800" x1="91.6608" y1="138.799" x2="91.6608" y2="252.977" gradientUnits="userSpaceOnUse">
<stop offset="0.487215" stop-color="#6464F4" stop-opacity="0"/>
<stop offset="1" stop-color="#6464F4"/>
</linearGradient>
<linearGradient id="paint1_linear_6157_131800" x1="294.589" y1="103.76" x2="294.589" y2="237.284" gradientUnits="userSpaceOnUse">
<stop offset="0.310121" stop-color="#6464F4" stop-opacity="0"/>
<stop offset="1" stop-color="#6464F4"/>
</linearGradient>
<linearGradient id="paint2_linear_6157_131800" x1="303" y1="28" x2="303" y2="83" gradientUnits="userSpaceOnUse">
<stop stop-color="#6464F4" stop-opacity="0"/>
<stop offset="1" stop-color="#6464F4"/>
</linearGradient>
<linearGradient id="paint3_linear_6157_131800" x1="95.5" y1="28" x2="95.5" y2="103" gradientUnits="userSpaceOnUse">
<stop stop-color="#6464F4" stop-opacity="0"/>
<stop offset="1" stop-color="#6464F4"/>
</linearGradient>
</defs>
</svg>
